<?xml version="1.0" encoding="utf-8"?>
<!-- Generator: Adobe Illustrator 24.0.0, SVG Export Plug-In . SVG Version: 6.00 Build 0)  -->
<svg version="1.1" id="Layer_1" xmlns="http://www.w3.org/2000/svg" xmlns:xlink="http://www.w3.org/1999/xlink" x="0px" y="0px"
	 viewBox="0 0 36.85 36.85" style="enable-background:new 0 0 36.85 36.85;" xml:space="preserve">
<g id="Layer_20">
</g>
<g id="Layer_3">
</g>
<g id="Layer_2">
</g>
<g id="Layer_4">
</g>
<g id="Layer_5">
</g>
<g id="Layer_6">
</g>
<g id="Layer_7">
	<g id="Group_528">
		<path id="Path_3263" d="M23.24,15.97c-0.27,0.04-0.46,0.29-0.42,0.56c0.04,0.27,0.29,0.46,0.56,0.42c0.02,0,0.03-0.01,0.05-0.01
			c0.26-0.06,0.54-0.05,0.8,0.02c0,0.09-0.01,0.17-0.05,0.25c-0.16,0.43-0.35,0.6-0.48,0.62c-0.09,0-0.18-0.04-0.24-0.11
			c-0.14-0.24-0.45-0.31-0.68-0.17c-0.24,0.14-0.31,0.45-0.17,0.68c0.02,0.03,0.04,0.05,0.06,0.08c0.24,0.32,0.61,0.51,1.01,0.52
			c0.05,0,0.11,0,0.16,0c0.4-0.05,0.91-0.31,1.28-1.25c0.21-0.4,0.16-0.88-0.11-1.23C24.51,15.75,23.45,15.93,23.24,15.97z"/>
		<path id="Path_3264" d="M18.45,0.01C8.28,0,0.02,8.23,0.01,18.4S8.23,36.83,18.4,36.84s18.42-8.22,18.44-18.39
			c0.01-4.89-1.93-9.58-5.39-13.04C28,1.96,23.32,0.02,18.45,0.01z M18.45,35.8C8.83,35.81,1.02,28.02,1.01,18.4
			C1,8.78,8.79,0.98,18.41,0.97c9.62-0.01,17.42,7.78,17.44,17.4c0.01,4.63-1.83,9.06-5.1,12.33C27.48,33.96,23.06,35.8,18.45,35.8z
			"/>
		<path id="Path_3265" d="M18.45,2.75c-1.08,0-2.15,0.11-3.21,0.33h-0.02C6.76,4.86,1.35,13.16,3.12,21.61s10.07,13.87,18.53,12.1
			c8.46-1.78,13.87-10.07,12.1-18.53C32.23,7.94,25.85,2.76,18.45,2.75L18.45,2.75z M15.52,4.04c0.14-0.03,0.27-0.05,0.4-0.07
			c-0.87,1.03-1.83,2.69-1.1,4.54l0,0c0.16,0.37,0.35,0.73,0.57,1.08c1.32,2.04,1.99,4.43,1.92,6.86c-0.14-0.08-0.29-0.14-0.43-0.2
			c-0.27-3.08-1-4.29-1.72-5.46l0,0c-0.5-0.76-0.9-1.59-1.17-2.47C13.28,5.84,15.12,4.33,15.52,4.04L15.52,4.04z M16.86,22.23
			l0.06,0.05c-0.41,1.14-0.98,2.22-1.69,3.21c-0.16,0.22-0.12,0.53,0.1,0.7c0.08,0.06,0.19,0.1,0.29,0.1c0.16,0,0.3-0.08,0.4-0.2
			c0.73-1,1.32-2.1,1.76-3.26c1.34,0.61,3.23,0.71,4.31,0.71c0.49,0,0.8-0.02,0.86-0.02l0,0c0.27,0,0.5-0.23,0.49-0.5
			c0-0.27-0.23-0.5-0.5-0.49c-0.02,0-0.04,0-0.06,0c-1.12,0.07-4.25,0.03-5.36-1.01l0,0c-0.23-0.2-0.37-0.49-0.37-0.8
			c0-0.82,0.66-1.74,1.1-2.24c0.09,0.03,0.17,0.05,0.26,0.06c0.09,0.54,0.34,1.03,0.72,1.42c-0.27,0.09-0.54,0.19-0.8,0.31
			c-0.25,0.12-0.35,0.42-0.23,0.67c0.12,0.24,0.4,0.34,0.65,0.24c0.04-0.02,3.92-1.79,7-0.16c0.24,0.13,0.54,0.05,0.68-0.19
			c0.13-0.24,0.05-0.54-0.19-0.68c-0.01,0-0.01-0.01-0.02-0.01c-1.99-1.07-4.23-0.9-5.81-0.54l0,0c-0.66-0.21-1.09-0.83-1.07-1.52
			c0-0.14-0.06-0.28-0.16-0.38c-0.11-0.1-0.25-0.14-0.4-0.13c-0.13,0.01-0.25,0-0.37-0.03c0.03-0.23,0.11-0.45,0.25-0.64
			c0.08-0.12,0.1-0.26,0.06-0.4c0-0.03-0.74-3.03,0.72-4.9c0.8-1.01,2.1-1.52,3.9-1.52c2.02,0,3.42,0.62,4.16,1.86
			c1.17,1.9,0.46,4.85-0.03,5.76c-0.4,0.8-0.4,1.56-0.4,2.39l0,0c0.1,1.08-0.1,2.17-0.58,3.15c-1.19,2.39-8.72,7.98-14,5.39
			c-1.73-0.85-2.07-2.94-1.49-4.56c0.7-1.7,1.98-3.1,3.62-3.94c0.25-0.1,0.38-0.38,0.28-0.64c-0.1-0.25-0.38-0.38-0.64-0.28
			c-0.01,0-0.02,0.01-0.02,0.01c-0.6,0.28-1.15,0.64-1.64,1.08c-0.89-0.32-1.86-0.29-2.73,0.08c-0.58,0.2-0.74,0.23-0.94,0.04
			c-0.11-0.1-0.16-0.25-0.16-0.4c0-0.91,1.29-2.55,2.13-3.39l0,0c0.09-0.09,0.2-0.14,0.33-0.13c0.09,0,0.4,0.12,0.76,0.89l0,0
			c-0.06,0.33-0.26,0.62-0.55,0.8c-0.26,0.1-0.39,0.38-0.29,0.64c0.07,0.2,0.26,0.32,0.47,0.32c0.06,0,0.12-0.01,0.17-0.03
			c0.59-0.28,1.02-0.82,1.16-1.46c0.63-0.34,2.88-1.38,4.43,0.18c-0.49,0.55-1.33,1.69-1.33,2.87l0,0
			C16.18,21.28,16.42,21.84,16.86,22.23L16.86,22.23z M18.45,33.06c-8.09,0.01-14.66-6.54-14.67-14.63
			c-0.01-6.27,3.97-11.85,9.9-13.88c-0.83,1.18-1.06,2.68-0.63,4.06c0.29,0.95,0.72,1.86,1.27,2.7c0.66,1.08,1.28,2.1,1.54,4.71l0,0
			c-1.03-0.07-2.06,0.14-2.98,0.6c-0.4-0.68-0.84-1.06-1.35-1.14l0,0c-0.45-0.05-0.89,0.11-1.19,0.44
			c-0.25,0.25-2.41,2.45-2.39,4.08c0,0.41,0.16,0.81,0.46,1.1c0.26,0.26,0.6,0.4,0.97,0.4c0.34-0.02,0.67-0.09,0.99-0.22
			c0.49-0.21,1.03-0.29,1.56-0.23c-0.74,0.76-1.31,1.67-1.69,2.66c-0.73,2.03-0.27,4.67,1.99,5.79c1.08,0.52,2.26,0.78,3.45,0.77
			c5.21,0,10.78-4.43,11.88-6.59c0.55-1.13,0.79-2.38,0.68-3.63c0-0.75-0.03-1.34,0.27-1.9c0.51-0.95,1.48-4.33,0.03-6.76
			c-0.93-1.55-2.61-2.34-5.01-2.34c-2.12,0-3.7,0.64-4.68,1.9l0,0c-0.44,0.56-0.75,1.2-0.93,1.89c-0.36-1.32-0.92-2.59-1.65-3.75
			c-0.19-0.3-0.36-0.61-0.5-0.94c-0.8-2.03,1.25-3.94,1.76-4.37c0.31,0,0.62-0.03,0.93-0.03l0,0c8.09,0,14.66,6.56,14.66,14.66
			S26.54,33.05,18.45,33.06L18.45,33.06L18.45,33.06z"/>
	</g>
</g>
<g id="Layer_8">
</g>
<g id="Layer_9">
</g>
<g id="Layer_10">
</g>
<g id="Layer_11">
</g>
<g id="Layer_12">
</g>
<g id="Layer_13">
</g>
<g id="Layer_14">
</g>
<g id="Layer_15">
</g>
<g id="Layer_16">
</g>
<g id="Layer_17">
</g>
<g id="Layer_18">
</g>
<g id="Layer_19">
</g>
</svg>
