<?xml version="1.0" encoding="utf-8"?>
<!-- Generator: Adobe Illustrator 24.0.0, SVG Export Plug-In . SVG Version: 6.00 Build 0)  -->
<svg version="1.1" id="Layer_1" xmlns="http://www.w3.org/2000/svg" xmlns:xlink="http://www.w3.org/1999/xlink" x="0px" y="0px"
	 viewBox="0 0 36.85 36.85" style="enable-background:new 0 0 36.85 36.85;" xml:space="preserve">
<g id="Layer_20">
</g>
<g id="Layer_3">
</g>
<g id="Layer_2">
</g>
<g id="Layer_4">
</g>
<g id="Layer_5">
</g>
<g id="Layer_6">
</g>
<g id="Layer_7">
</g>
<g id="Layer_8">
	<g id="Group_526">
		<path id="Path_3256" d="M30.28,3.61h-4.74c-1.5-0.01-2.9-0.72-3.8-1.91c-1.38-1.83-3.98-2.19-5.81-0.8c-0.3,0.23-0.57,0.5-0.8,0.8
			c-0.9,1.19-2.31,1.9-3.8,1.91H6.57c-0.98,0-1.78,0.8-1.78,1.78c0,0,0,0,0,0v29.63c0,0.98,0.8,1.78,1.78,1.78c0,0,0,0,0,0h23.7
			c0.98,0,1.78-0.8,1.78-1.78l0,0V5.39C32.05,4.41,31.26,3.61,30.28,3.61 M11.91,4.77c1.65-0.18,3.15-1.03,4.16-2.35
			c0.99-1.31,2.84-1.56,4.15-0.58C20.43,2,20.63,2.2,20.79,2.42c1,1.32,2.51,2.17,4.16,2.35v1.81c0,0.33-0.27,0.59-0.59,0.59l0,0
			H12.5c-0.33,0-0.59-0.27-0.59-0.59L11.91,4.77z M12.5,8.35h11.85c0.75,0,1.42-0.48,1.67-1.19h2.48v26.07H8.35V7.17h2.48
			C11.08,7.87,11.75,8.35,12.5,8.35L12.5,8.35z M30.87,35.02c0,0.33-0.27,0.59-0.59,0.59H6.57c-0.33,0-0.59-0.27-0.59-0.59V5.39
			c0-0.33,0.27-0.59,0.59-0.59h4.15v1.19H7.76c-0.33,0-0.59,0.27-0.59,0.59v27.26c0,0.33,0.27,0.59,0.59,0.59h21.33
			c0.33,0,0.59-0.26,0.59-0.59c0,0,0,0,0,0V6.57c0-0.33-0.26-0.59-0.59-0.59c0,0,0,0,0,0h-2.96V4.8h4.15c0.33,0,0.59,0.27,0.59,0.59
			l0,0L30.87,35.02z"/>
		<path id="Path_3257" d="M14.16,21.64c-0.11-0.16-0.28-0.25-0.47-0.25h-3.56c-0.33,0-0.59,0.26-0.59,0.59v3.56
			c0,0.33,0.26,0.59,0.59,0.59c0,0,0,0,0,0h3.56c0.33,0,0.59-0.26,0.59-0.59c0,0,0,0,0,0V23.1l2.16-1.85l-0.77-0.9L14.16,21.64z
			 M13.09,24.94h-2.37v-2.37h2.35l-0.97,0.83l-0.25-0.51l-1.06,0.53l0.59,1.19l0,0c0.08,0.16,0.24,0.28,0.41,0.32
			c0.04,0.01,0.08,0.01,0.11,0.01c0.14,0,0.28-0.05,0.39-0.14l0.8-0.69L13.09,24.94z"/>
		<path id="Path_3258" d="M15.67,26.27l-1.51,1.3c-0.11-0.16-0.28-0.25-0.47-0.25h-3.55c-0.33,0-0.59,0.27-0.59,0.59v3.56
			c0,0.33,0.26,0.59,0.59,0.59c0,0,0,0,0,0h3.56c0.33,0,0.59-0.26,0.59-0.59c0,0,0,0,0,0v-2.44l2.16-1.85L15.67,26.27z M13.09,30.87
			h-2.37V28.5h2.35l-0.97,0.83l-0.25-0.51l-1.06,0.53l0.59,1.19l0,0c0.08,0.16,0.24,0.28,0.41,0.32c0.04,0.01,0.08,0.01,0.11,0.01
			c0.14,0,0.28-0.05,0.39-0.14l0.8-0.69L13.09,30.87z"/>
		<rect id="Rectangle_240" x="9.54" y="9.54" width="7.11" height="1.19"/>
		<rect id="Rectangle_241" x="9.54" y="11.91" width="5.93" height="1.19"/>
		<rect id="Rectangle_242" x="19.61" y="17.83" width="7.11" height="1.19"/>
		<rect id="Rectangle_243" x="21.98" y="20.2" width="4.74" height="1.19"/>
		<rect id="Rectangle_244" x="19.61" y="20.2" width="1.19" height="1.19"/>
		<rect id="Rectangle_245" x="19.61" y="22.57" width="4.74" height="1.19"/>
		<rect id="Rectangle_246" x="25.54" y="22.57" width="1.19" height="1.19"/>
		<path id="Path_3259" d="M22.76,16.49c0.23,0.22,0.58,0.22,0.81,0l2.99-2.81c0.95-0.88,1.01-2.36,0.13-3.31
			c-0.04-0.05-0.09-0.09-0.13-0.13c-0.85-0.79-2.13-0.92-3.12-0.32l-0.27,0.14l-0.23-0.12c-1-0.62-2.29-0.5-3.16,0.3
			c-0.95,0.88-1.01,2.36-0.13,3.31c0.04,0.05,0.09,0.09,0.13,0.13L22.76,16.49z M20.58,11.09c0.26-0.24,0.6-0.37,0.95-0.37
			c0.29,0,0.57,0.08,0.81,0.24l0.55,0.29c0.17,0.09,0.38,0.09,0.55,0l0.59-0.31l0,0c0.54-0.34,1.25-0.27,1.72,0.16
			c0.47,0.43,0.51,1.16,0.08,1.63c-0.03,0.03-0.05,0.06-0.08,0.08l-2.58,2.43l-2.58-2.43c-0.47-0.43-0.51-1.16-0.08-1.63
			C20.53,11.15,20.55,11.12,20.58,11.09L20.58,11.09z"/>
		<path id="Path_3260" d="M11.55,20.08c0.21,0.17,0.51,0.17,0.73,0l1.93-1.5l0,0c0.76-0.58,0.9-1.67,0.32-2.42
			c-0.05-0.07-0.11-0.13-0.17-0.19c-0.67-0.65-1.73-0.68-2.44-0.06c-0.71-0.61-1.76-0.59-2.44,0.06c-0.69,0.66-0.71,1.75-0.04,2.44
			c0.06,0.06,0.12,0.12,0.19,0.17L11.55,20.08z M10.3,16.82L10.3,16.82c0.24-0.23,0.62-0.23,0.85,0l0.34,0.34
			c0.23,0.22,0.6,0.22,0.83,0l0.34-0.34c0.24-0.23,0.61-0.23,0.85,0c0.11,0.11,0.18,0.26,0.17,0.42c-0.01,0.16-0.09,0.31-0.22,0.4
			l-1.57,1.22l-1.56-1.22l0,0c-0.13-0.1-0.21-0.24-0.21-0.4C10.12,17.08,10.18,16.93,10.3,16.82L10.3,16.82z"/>
		<path id="Path_3261" d="M26.13,26.72h-1.19v-1.19c0-0.33-0.27-0.59-0.59-0.59h-2.37c-0.33,0-0.59,0.27-0.59,0.59v1.19H20.2
			c-0.33,0-0.59,0.27-0.59,0.59v2.37c0,0.33,0.26,0.59,0.59,0.59c0,0,0,0,0,0h1.19v1.19c0,0.33,0.26,0.59,0.59,0.59c0,0,0,0,0,0
			h2.37c0.33,0,0.59-0.27,0.59-0.59v-1.19h1.19c0.33,0,0.59-0.26,0.59-0.59c0,0,0,0,0,0v-2.37C26.72,26.99,26.46,26.72,26.13,26.72
			C26.13,26.72,26.13,26.72,26.13,26.72 M25.54,29.09h-1.19c-0.33,0-0.59,0.27-0.59,0.59v1.19h-1.19v-1.19
			c0-0.33-0.27-0.59-0.59-0.59H20.8v-1.19h1.19c0.33,0,0.59-0.27,0.59-0.59v-1.19h1.19v1.19c0,0.33,0.26,0.59,0.59,0.59c0,0,0,0,0,0
			h1.19V29.09z"/>
		<path id="Path_3262" d="M17.83,5.98h1.19V4.8h1.19V3.61h-1.19V2.43h-1.19v1.19h-1.19V4.8h1.19V5.98z"/>
	</g>
</g>
<g id="Layer_9">
</g>
<g id="Layer_10">
</g>
<g id="Layer_11">
</g>
<g id="Layer_12">
</g>
<g id="Layer_13">
</g>
<g id="Layer_14">
</g>
<g id="Layer_15">
</g>
<g id="Layer_16">
</g>
<g id="Layer_17">
</g>
<g id="Layer_18">
</g>
<g id="Layer_19">
</g>
</svg>
