<?xml version="1.0" encoding="utf-8"?>
<!-- Generator: Adobe Illustrator 24.0.0, SVG Export Plug-In . SVG Version: 6.00 Build 0)  -->
<svg version="1.1" id="Layer_1" xmlns="http://www.w3.org/2000/svg" xmlns:xlink="http://www.w3.org/1999/xlink" x="0px" y="0px"
	 viewBox="0 0 36.85 36.85" style="enable-background:new 0 0 36.85 36.85;" xml:space="preserve">
<g id="Layer_20">
</g>
<g id="Layer_3">
</g>
<g id="Layer_2">
</g>
<g id="Layer_4">
</g>
<g id="Layer_5">
	<g id="Group_532">
		<path id="Path_3270" d="M36.21,22.87h-0.64v-0.64c0-2.46-1.99-4.44-4.45-4.45H16.52c-1.56,0-3.01,0.83-3.81,2.17
			c-0.8-1.34-2.25-2.17-3.81-2.17H5.72c-2.46,0-4.44,1.99-4.45,4.45v0.64H0.64C0.28,22.87,0,23.16,0,23.51c0,0,0,0,0,0v3.81
			c0,0.35,0.28,0.63,0.64,0.63h3.81c0.35,0,0.64-0.28,0.64-0.64c0-0.35-0.28-0.64-0.64-0.64H1.27v-2.54h34.31v2.54H8.26
			c-0.35,0-0.64,0.28-0.64,0.64c0,0.35,0.28,0.64,0.64,0.64h5.08v3.81H10.8c-2.46,0-4.44,1.99-4.45,4.45c0,0.35,0.28,0.64,0.64,0.64
			h15.25c0.35,0,0.64-0.28,0.64-0.64c0-0.35-0.28-0.64-0.64-0.64l0,0H7.69c0.3-1.48,1.6-2.54,3.11-2.54h15.25
			c1.51,0,2.81,1.06,3.11,2.54h-3.11c-0.35,0-0.64,0.28-0.64,0.64c0,0.35,0.28,0.64,0.64,0.64h3.81c0.35,0,0.64-0.28,0.64-0.64
			c0-2.46-1.99-4.44-4.45-4.45h-2.54v-3.81h12.71c0.35,0,0.64-0.28,0.64-0.64v-3.81C36.85,23.16,36.57,22.87,36.21,22.87
			L36.21,22.87z M22.24,31.77h-7.62v-3.81h7.62V31.77z M2.54,22.24c0-1.75,1.42-3.17,3.18-3.18h3.18c1.75,0,3.17,1.42,3.18,3.18
			v0.64H2.54V22.24z M13.34,22.87v-0.64c0-1.75,1.42-3.17,3.18-3.18h14.61c1.75,0,3.17,1.42,3.18,3.18v0.64H13.34z"/>
		<path id="Path_3271" d="M11.44,10.17h6.99c0.35,0,0.64-0.28,0.64-0.64c0-0.35-0.28-0.64-0.64-0.64h-6.35V8.26
			c0-1.75,1.42-3.18,3.18-3.18h6.35c1.75,0,3.17,1.42,3.18,3.18v0.64h-2.54c-0.35,0-0.64,0.28-0.64,0.64c0,0.35,0.28,0.64,0.64,0.64
			h3.18c0.35,0,0.64-0.28,0.64-0.64V8.26c0-2.46-1.99-4.44-4.45-4.45V0.64C21.6,0.28,21.32,0,20.97,0h-5.08
			c-0.35,0-0.64,0.28-0.64,0.64v3.18c-2.46,0-4.44,1.99-4.45,4.45v1.27C10.8,9.88,11.09,10.17,11.44,10.17 M16.52,1.27h3.81v2.54
			h-3.81L16.52,1.27z"/>
	</g>
</g>
<g id="Layer_6">
</g>
<g id="Layer_7">
</g>
<g id="Layer_8">
</g>
<g id="Layer_9">
</g>
<g id="Layer_10">
</g>
<g id="Layer_11">
</g>
<g id="Layer_12">
</g>
<g id="Layer_13">
</g>
<g id="Layer_14">
</g>
<g id="Layer_15">
</g>
<g id="Layer_16">
</g>
<g id="Layer_17">
</g>
<g id="Layer_18">
</g>
<g id="Layer_19">
</g>
</svg>
