<?xml version="1.0" encoding="utf-8"?>
<!-- Generator: Adobe Illustrator 24.0.0, SVG Export Plug-In . SVG Version: 6.00 Build 0)  -->
<svg version="1.1" id="Layer_1" xmlns="http://www.w3.org/2000/svg" xmlns:xlink="http://www.w3.org/1999/xlink" x="0px" y="0px"
	 viewBox="0 0 36.85 36.85" style="enable-background:new 0 0 36.85 36.85;" xml:space="preserve">
<g id="Layer_20">
</g>
<g id="Layer_3">
</g>
<g id="Layer_2">
</g>
<g id="Layer_4">
</g>
<g id="Layer_5">
</g>
<g id="Layer_6">
</g>
<g id="Layer_7">
</g>
<g id="Layer_8">
</g>
<g id="Layer_9">
	<g id="Group_524">
		<path id="Path_3249" d="M6.75,8.53c0.27,0.22,0.6,0.34,0.95,0.34c0.05,0,0.1,0,0.15-0.01l0,0c0.82-0.08,1.42-0.82,1.34-1.64
			C9.11,6.4,8.38,5.8,7.55,5.88S6.13,6.69,6.21,7.52C6.25,7.91,6.45,8.28,6.75,8.53L6.75,8.53z M7.36,7.09
			c0.15-0.19,0.43-0.22,0.62-0.06C8.17,7.18,8.2,7.46,8.04,7.65C7.89,7.84,7.61,7.86,7.43,7.71C7.38,7.67,7.34,7.63,7.32,7.58
			C7.23,7.42,7.25,7.23,7.36,7.09L7.36,7.09z"/>
		<path id="Path_3250" d="M16.43,3.12c-0.74-0.61-1.84-0.5-2.45,0.24c-0.61,0.74-0.5,1.84,0.24,2.45c0.74,0.61,1.84,0.5,2.45-0.24
			c0.29-0.36,0.43-0.82,0.39-1.28C17.01,3.84,16.79,3.41,16.43,3.12L16.43,3.12z M15.4,5.15c-0.37,0.04-0.71-0.24-0.74-0.61
			c-0.04-0.37,0.24-0.71,0.61-0.74c0.02,0,0.05,0,0.07,0c0.38,0,0.68,0.31,0.68,0.68C16.01,4.82,15.74,5.11,15.4,5.15L15.4,5.15z"/>
		<path id="Path_3251" d="M30.78,7.01c-0.03-0.29-0.28-0.51-0.58-0.48c-0.25,0.02-0.46,0.22-0.48,0.48
			C29.63,8,28.85,8.78,27.86,8.87c-0.29,0.03-0.51,0.28-0.48,0.58c0.02,0.25,0.22,0.46,0.48,0.48c0.99,0.09,1.77,0.87,1.86,1.86
			c0.03,0.29,0.28,0.51,0.58,0.48c0.25-0.02,0.46-0.22,0.48-0.48c0.09-0.99,0.87-1.77,1.86-1.86c0.29-0.03,0.51-0.28,0.48-0.58
			c-0.02-0.25-0.22-0.46-0.48-0.48C31.65,8.78,30.87,8,30.78,7.01z M30.25,10.22L30.25,10.22c-0.22-0.32-0.5-0.6-0.82-0.82
			c0.32-0.22,0.6-0.5,0.82-0.82c0.22,0.32,0.5,0.6,0.82,0.82C30.75,9.62,30.47,9.9,30.25,10.22z"/>
		<path id="Path_3252" d="M6.87,3.45c0.99,0.09,1.77,0.87,1.86,1.86C8.76,5.6,9.02,5.82,9.31,5.79c0.26-0.02,0.46-0.23,0.48-0.48
			c0.09-0.99,0.87-1.77,1.86-1.86c0.29-0.03,0.51-0.28,0.48-0.58c-0.02-0.25-0.22-0.46-0.48-0.48C10.66,2.3,9.88,1.52,9.79,0.53
			C9.76,0.24,9.5,0.03,9.21,0.05C8.96,0.08,8.76,0.28,8.73,0.53C8.64,1.52,7.86,2.3,6.87,2.39C6.58,2.42,6.37,2.68,6.39,2.97
			C6.42,3.22,6.62,3.43,6.87,3.45L6.87,3.45z M9.26,2.1c0.22,0.32,0.5,0.6,0.82,0.82c-0.32,0.22-0.6,0.5-0.82,0.82
			c-0.22-0.32-0.5-0.6-0.82-0.82C8.76,2.7,9.04,2.42,9.26,2.1"/>
		<path id="Path_3253" d="M24.57,24.4c0.27,0.1,0.58-0.03,0.68-0.31c0,0,0,0,0,0c0.17-0.44,0.35-0.89,0.55-1.33
			c0-0.01,0.01-0.01,0.01-0.02c0.01-0.03,0.02-0.06,0.04-0.08l0,0c0.86-1.89,1.36-3.93,1.49-6c0.01-0.29-0.22-0.54-0.51-0.55
			c-0.28-0.01-0.53,0.2-0.55,0.48c-0.12,1.94-0.59,3.85-1.39,5.63c-0.02,0.04-0.04,0.08-0.05,0.13c-0.2,0.46-0.4,0.92-0.57,1.38l0,0
			C24.16,23.99,24.3,24.3,24.57,24.4L24.57,24.4z"/>
		<path id="Path_3254" d="M23.88,26.76c0.28,0.07,0.57-0.1,0.64-0.38c0,0,0,0,0,0c0.05-0.21,0.11-0.43,0.17-0.64
			c0.08-0.28-0.08-0.58-0.36-0.66c-0.28-0.08-0.58,0.08-0.66,0.36c-0.06,0.22-0.13,0.45-0.18,0.67l0,0
			C23.43,26.4,23.6,26.69,23.88,26.76C23.88,26.76,23.88,26.76,23.88,26.76L23.88,26.76z"/>
		<path id="Path_3255" d="M28.83,17.9c-0.26,0-0.48,0.19-0.52,0.45c-0.25,1.65-0.72,3.26-1.42,4.78c-0.01,0.02-0.02,0.03-0.03,0.05
			c-1.2,2.68-1.79,5.25-1.79,7.85v3.07c0.02,0.89-0.68,1.62-1.57,1.64c-0.01,0-0.03,0-0.04,0c-0.42,0-0.83-0.16-1.14-0.44
			c-1.04-0.88-1.65-2.16-1.67-3.52V30.1c0.01-0.95-0.36-1.85-1.03-2.52c-0.65-0.65-1.53-1.02-2.45-1.02h-0.01
			c-1.94,0.03-3.5,1.62-3.48,3.56v1.67c0,1.35-0.59,2.64-1.61,3.52c-0.32,0.28-0.72,0.44-1.15,0.44c-0.91,0-1.65-0.73-1.65-1.64
			v-3.06c0-1.61-0.2-3.22-0.59-4.79c0.53-0.84,1.42-1.39,2.41-1.49c0.26-0.02,0.46-0.21,0.5-0.47c0.04-0.29-0.17-0.56-0.46-0.59
			c-0.01,0-0.01,0-0.02,0c-1.54-0.14-2.77-1.35-2.92-2.89c-0.02-0.26-0.21-0.46-0.47-0.5c-0.29-0.04-0.56,0.17-0.59,0.46
			c0,0.01,0,0.01,0,0.02c-0.02,0.27-0.08,0.53-0.17,0.79c-0.54-1.57-0.87-3.2-0.97-4.85c-0.18-2.71,1.87-5.06,4.58-5.24
			c0.54-0.04,1.09,0.02,1.62,0.16l2.17,0.59c1.88,0.51,3.87,0.52,5.76,0l2.17-0.59c2.54-0.69,5.16,0.74,5.97,3.24
			c0.07,0.22,0.27,0.36,0.5,0.36l0,0c0.29,0,0.53-0.24,0.53-0.53c0-0.05-0.01-0.11-0.02-0.16c-0.96-3.01-4.1-4.74-7.16-3.96
			c-0.59-2.32-2.95-3.72-5.27-3.13c-0.6,0.15-1.16,0.43-1.64,0.82c-0.83-1.54-2.76-2.11-4.3-1.28c-0.88,0.47-1.48,1.33-1.62,2.32
			c-1.65,0.11-2.93,1.48-2.93,3.13c0,0.03,0,0.05,0,0.08c-1,1.18-1.51,2.71-1.4,4.25c0.12,2.03,0.57,4.03,1.32,5.93
			c-0.53,0.56-1.25,0.91-2.02,0.98c-0.26,0.02-0.46,0.21-0.5,0.47c-0.04,0.29,0.17,0.55,0.46,0.59c0.01,0,0.01,0,0.02,0
			c1.55,0.14,2.77,1.36,2.92,2.91c0.01,0.14,0.08,0.28,0.19,0.37c0.18,0.16,0.45,0.17,0.65,0.03c0.16,0.98,0.24,1.98,0.24,2.98v3.06
			c0,1.49,1.22,2.7,2.71,2.7c0.68,0,1.33-0.25,1.84-0.69c1.26-1.09,1.98-2.66,1.98-4.33v-1.67c-0.02-1.36,1.07-2.48,2.43-2.5h0
			c0.64,0,1.26,0.26,1.71,0.71c0.47,0.47,0.73,1.11,0.72,1.77v1.68c0.02,1.67,0.76,3.25,2.04,4.33l0,0
			c0.51,0.45,1.16,0.69,1.83,0.69c1.48-0.01,2.67-1.22,2.67-2.7v-3.06c0-2.47,0.57-4.91,1.72-7.46c0.01-0.01,0.02-0.03,0.02-0.04
			l0,0c0.72-1.6,1.22-3.29,1.48-5.02c0.04-0.29-0.16-0.56-0.44-0.6C28.89,17.9,28.86,17.9,28.83,17.9L28.83,17.9z M17.58,8.41
			c1.62-0.16,3.11,0.89,3.5,2.46l-1.24,0.34l0,0c-1.69,0.46-3.48,0.46-5.18,0C14.87,9.72,16.08,8.56,17.58,8.41L17.58,8.41z
			 M12.19,7.7c0.98-0.1,1.89,0.49,2.21,1.42c-0.39,0.54-0.66,1.16-0.77,1.82l-1.16-0.32c-0.18-0.05-0.37-0.09-0.56-0.12
			c-0.41-0.51-0.96-0.88-1.59-1.06C10.49,8.51,11.25,7.8,12.19,7.7L12.19,7.7z M9.47,10.38c0.2,0,0.4,0.03,0.59,0.09
			c-0.83,0.12-1.62,0.41-2.33,0.85C8.12,10.73,8.77,10.38,9.47,10.38z M7.66,25.88c-0.39-0.69-0.96-1.26-1.65-1.65
			c0.69-0.39,1.26-0.96,1.65-1.65c0.39,0.69,0.96,1.26,1.65,1.65C8.62,24.62,8.05,25.19,7.66,25.88"/>
	</g>
</g>
<g id="Layer_10">
</g>
<g id="Layer_11">
</g>
<g id="Layer_12">
</g>
<g id="Layer_13">
</g>
<g id="Layer_14">
</g>
<g id="Layer_15">
</g>
<g id="Layer_16">
</g>
<g id="Layer_17">
</g>
<g id="Layer_18">
</g>
<g id="Layer_19">
</g>
</svg>
