<?xml version="1.0" encoding="utf-8"?>
<!-- Generator: Adobe Illustrator 24.0.0, SVG Export Plug-In . SVG Version: 6.00 Build 0)  -->
<svg version="1.1" id="Layer_1" xmlns="http://www.w3.org/2000/svg" xmlns:xlink="http://www.w3.org/1999/xlink" x="0px" y="0px"
	 viewBox="0 0 36.85 36.85" style="enable-background:new 0 0 36.85 36.85;" xml:space="preserve">
<g id="Layer_20">
</g>
<g id="Layer_3">
</g>
<g id="Layer_2">
</g>
<g id="Layer_4">
</g>
<g id="Layer_5">
</g>
<g id="Layer_6">
</g>
<g id="Layer_7">
</g>
<g id="Layer_8">
</g>
<g id="Layer_9">
</g>
<g id="Layer_10">
</g>
<g id="Layer_11">
</g>
<g id="Layer_12">
</g>
<g id="Layer_13">
</g>
<g id="Layer_14">
</g>
<g id="Layer_15">
</g>
<g id="Layer_16">
</g>
<g id="Layer_17">
</g>
<g id="Layer_18">
	<g id="Group_504">
		<path id="Path_3206" d="M36.3,9.76c-0.35-0.35-0.81-0.54-1.3-0.54h-9.21v-4.3c0-1.02-0.82-1.84-1.84-1.84c0,0,0,0,0,0H12.9
			c-1.02,0-1.84,0.82-1.84,1.84c0,0,0,0,0,0v4.3H1.85c-1.02,0-1.84,0.82-1.84,1.84c0,0,0,0,0,0v20.87c0,1.02,0.82,1.84,1.84,1.84
			c0,0,0,0,0,0H35c1.02,0,1.84-0.82,1.84-1.84c0,0,0,0,0,0V11.06C36.84,10.57,36.64,10.1,36.3,9.76 M12.29,4.92
			c0-0.34,0.27-0.61,0.61-0.61h11.05c0.34,0,0.61,0.27,0.61,0.61c0,0,0,0,0,0v0.61H12.29V4.92z M12.29,6.76h12.28v2.45H12.29V6.76z
			 M1.24,11.06c0-0.34,0.27-0.61,0.61-0.61h1.62c-0.37,1.04-1.19,1.86-2.23,2.23L1.24,11.06z M1.85,32.54
			c-0.34,0-0.61-0.27-0.61-0.61v-1.62c1.04,0.37,1.86,1.19,2.23,2.23L1.85,32.54z M4.75,32.54c-0.22-0.84-0.66-1.62-1.28-2.23
			c-0.62-0.62-1.39-1.06-2.23-1.28V13.95c0.84-0.22,1.62-0.66,2.23-1.28c0.62-0.62,1.06-1.39,1.28-2.23H32.1
			c0.45,1.72,1.79,3.06,3.51,3.51v15.08c-1.72,0.44-3.06,1.79-3.51,3.51L4.75,32.54z M35.61,31.93c0,0.34-0.27,0.61-0.61,0.61h-1.62
			c0.37-1.04,1.19-1.86,2.23-2.23L35.61,31.93z M35.61,12.68c-1.04-0.37-1.86-1.19-2.23-2.23H35c0.34,0,0.61,0.27,0.61,0.61
			L35.61,12.68z"/>
		<path id="Path_3207" d="M20.27,19.65v-3.07c0-0.34-0.27-0.61-0.61-0.61H17.2c-0.34,0-0.61,0.27-0.61,0.61v3.07h-3.07
			c-0.34,0-0.61,0.27-0.61,0.61v2.45c0,0.34,0.27,0.61,0.61,0.61h3.07v3.07c0,0.34,0.27,0.61,0.61,0.61h2.45
			c0.34,0,0.61-0.27,0.61-0.61v-3.07h3.07c0.34,0,0.61-0.27,0.61-0.61v-2.45c0-0.34-0.27-0.61-0.61-0.61L20.27,19.65z M22.72,22.11
			h-3.07c-0.34,0-0.61,0.27-0.61,0.61v3.07h-1.23v-3.07c0-0.34-0.27-0.61-0.61-0.61h-3.07v-1.23h3.07c0.34,0,0.61-0.27,0.61-0.61
			V17.2h1.23v3.07c0,0.34,0.27,0.61,0.61,0.61c0,0,0,0,0,0h3.07L22.72,22.11z"/>
		<path id="Path_3208" d="M18.43,12.9c-4.75-0.01-8.61,3.84-8.61,8.59c-0.01,4.75,3.84,8.61,8.59,8.61s8.61-3.84,8.61-8.59
			c0-2.28-0.9-4.48-2.52-6.09C22.89,13.81,20.7,12.9,18.43,12.9 M23.63,26.7c-2.88,2.87-7.54,2.87-10.41-0.01
			c-2.87-2.88-2.87-7.54,0.01-10.41s7.54-2.87,10.41,0.01c1.38,1.38,2.15,3.25,2.15,5.2C25.79,23.45,25.01,25.32,23.63,26.7"/>
	</g>
</g>
<g id="Layer_19">
</g>
</svg>
