<?xml version="1.0" encoding="utf-8"?>
<!-- Generator: Adobe Illustrator 24.0.0, SVG Export Plug-In . SVG Version: 6.00 Build 0)  -->
<svg version="1.1" id="Layer_1" xmlns="http://www.w3.org/2000/svg" xmlns:xlink="http://www.w3.org/1999/xlink" x="0px" y="0px"
	 viewBox="0 0 36.85 36.85" style="enable-background:new 0 0 36.85 36.85;" xml:space="preserve">
<g id="Layer_20">
</g>
<g id="Layer_3">
</g>
<g id="Layer_2">
</g>
<g id="Layer_4">
</g>
<g id="Layer_5">
</g>
<g id="Layer_6">
</g>
<g id="Layer_7">
</g>
<g id="Layer_8">
</g>
<g id="Layer_9">
</g>
<g id="Layer_10">
</g>
<g id="Layer_11">
</g>
<g id="Layer_12">
</g>
<g id="Layer_13">
	<g id="Group_516">
		<path id="Path_3231" d="M15.92,11.74h1.67v1.67c0.01,0.46,0.39,0.83,0.85,0.82c0.45-0.01,0.81-0.37,0.82-0.82v-1.67h1.67
			c0.46-0.01,0.83-0.39,0.82-0.85c-0.01-0.45-0.37-0.81-0.82-0.82h-1.67V8.39c-0.01-0.46-0.39-0.83-0.85-0.82
			c-0.45,0.01-0.81,0.37-0.82,0.82v1.67h-1.67c-0.46,0.01-0.83,0.39-0.82,0.85C15.1,11.36,15.47,11.73,15.92,11.74"/>
		<path id="Path_3232" d="M35.99,9.23h-8.36V5.88c0-0.46-0.37-0.84-0.84-0.84c0,0,0,0,0,0H10.06c-0.46,0-0.84,0.37-0.84,0.84v3.35
			H0.86c-0.46,0-0.84,0.37-0.84,0.84v3.35c0,0.46,0.37,0.84,0.84,0.84h1.67v16.73c0,0.46,0.37,0.84,0.84,0.84h30.11
			c0.46,0,0.84-0.37,0.84-0.84c0,0,0,0,0,0V14.24h1.67c0.46,0,0.84-0.37,0.84-0.84v0v-3.35C36.82,9.6,36.45,9.23,35.99,9.23
			C35.99,9.23,35.99,9.23,35.99,9.23L35.99,9.23z M10.9,6.72h15.05v8.36H10.9V6.72z M1.7,10.9h7.53v1.67H1.7V10.9z M6.72,20.1h6.69
			v10.04H6.72V20.1z M17.59,30.13V20.1h12.54v10.04H17.59z M32.64,30.13h-0.84V19.26c0-0.46-0.37-0.84-0.84-0.84l0,0H16.75
			c-0.46,0-0.84,0.37-0.84,0.84c0,0,0,0,0,0v10.87h-0.84V19.26c0-0.46-0.37-0.84-0.84-0.84c0,0,0,0,0,0H5.88
			c-0.46,0-0.84,0.37-0.84,0.84v10.87H4.21V14.24h5.02v1.67c0,0.46,0.37,0.84,0.84,0.84c0,0,0,0,0,0h16.73
			c0.46,0,0.84-0.37,0.84-0.84c0,0,0,0,0,0v-1.67h5.02L32.64,30.13z M35.15,12.57h-7.53V10.9h7.53V12.57z"/>
		<path id="Path_3233" d="M11.74,23.44c-0.46,0-0.84,0.37-0.84,0.84c0,0,0,0,0,0v1.67c0,0.46,0.37,0.84,0.84,0.84
			c0.46,0,0.84-0.37,0.84-0.84c0,0,0,0,0,0v-1.67C12.57,23.82,12.2,23.44,11.74,23.44C11.74,23.44,11.74,23.44,11.74,23.44
			L11.74,23.44z"/>
		<path id="Path_3234" d="M27.43,22.06c-0.3-0.35-0.83-0.39-1.18-0.09l-5.85,5.02l0,0c-0.35,0.3-0.39,0.83-0.09,1.18
			c0.3,0.35,0.83,0.39,1.18,0.09l0,0l5.85-5.02C27.68,22.94,27.72,22.41,27.43,22.06L27.43,22.06z"/>
		<path id="Path_3235" d="M26.19,25.36l-1.67,1.67l0,0c-0.33,0.32-0.34,0.86-0.01,1.19c0.32,0.33,0.86,0.34,1.19,0.01
			c0,0,0.01-0.01,0.01-0.01l1.67-1.67c0.32-0.33,0.32-0.86-0.01-1.19C27.04,25.04,26.52,25.04,26.19,25.36z"/>
		<path id="Path_3236" d="M20.93,25.12c0.22,0,0.44-0.09,0.59-0.24l1.67-1.67c0.33-0.32,0.34-0.86,0.01-1.19
			c-0.32-0.33-0.86-0.34-1.19-0.01c0,0-0.01,0.01-0.01,0.01l-1.67,1.67l0,0c-0.33,0.33-0.33,0.85,0,1.18
			C20.49,25.03,20.71,25.12,20.93,25.12L20.93,25.12z"/>
	</g>
</g>
<g id="Layer_14">
</g>
<g id="Layer_15">
</g>
<g id="Layer_16">
</g>
<g id="Layer_17">
</g>
<g id="Layer_18">
</g>
<g id="Layer_19">
</g>
</svg>
