<?xml version="1.0" encoding="utf-8"?>
<!-- Generator: Adobe Illustrator 24.0.0, SVG Export Plug-In . SVG Version: 6.00 Build 0)  -->
<svg version="1.1" id="Layer_1" xmlns="http://www.w3.org/2000/svg" xmlns:xlink="http://www.w3.org/1999/xlink" x="0px" y="0px"
	 viewBox="0 0 36.85 36.85" style="enable-background:new 0 0 36.85 36.85;" xml:space="preserve">
<g id="Layer_20">
</g>
<g id="Layer_3">
</g>
<g id="Layer_2">
</g>
<g id="Layer_4">
</g>
<g id="Layer_5">
</g>
<g id="Layer_6">
</g>
<g id="Layer_7">
</g>
<g id="Layer_8">
</g>
<g id="Layer_9">
</g>
<g id="Layer_10">
</g>
<g id="Layer_11">
</g>
<g id="Layer_12">
</g>
<g id="Layer_13">
</g>
<g id="Layer_14">
</g>
<g id="Layer_15">
</g>
<g id="Layer_16">
</g>
<g id="Layer_17">
	<g id="Group_506">
		<path id="Path_3209" d="M5.06,36.83h26.74c0.36,0,0.65-0.28,0.66-0.64V5.75c-0.01-0.35-0.29-0.63-0.64-0.62c0,0-0.01,0-0.01,0
			h-5.93c-0.43-1.26-1.61-2.1-2.94-2.11h-0.93c-0.06-1.69-1.46-3.03-3.16-3h-0.78c-1.77,0-3.21,1.33-3.28,3h-0.81
			c-1.35,0-2.57,0.84-3.05,2.11H5.06C4.71,5.11,4.41,5.39,4.4,5.73c0,0,0,0.01,0,0.01v30.44C4.4,36.55,4.7,36.84,5.06,36.83
			C5.06,36.83,5.06,36.83,5.06,36.83L5.06,36.83z M12.02,6.2c0.02-1.06,0.89-1.9,1.95-1.89h2.1V3.14c0-1.01,0.89-1.82,1.98-1.82
			h0.78c1-0.03,1.83,0.75,1.86,1.74c0,0.03,0,0.05,0,0.08v1.18h2.22c1.02,0,1.84,0.83,1.83,1.85c0,0.01,0,0.03,0,0.04v2.9H12.02
			L12.02,6.2z M26.05,10.4V9.1h1.7v22.62H9.1V9.1h1.62v1.3L26.05,10.4z M5.7,6.43h5.03V7.8H8.43C8.07,7.82,7.79,8.12,7.8,8.48V32.4
			c-0.01,0.33,0.26,0.61,0.59,0.62c0.01,0,0.02,0,0.04,0h19.99c0.33,0.01,0.61-0.25,0.63-0.58c0-0.01,0-0.02,0-0.04V8.48
			c0.01-0.36-0.27-0.66-0.63-0.67h-2.37V6.43h5.11v29.11H5.7L5.7,6.43z"/>
		<path id="Path_3210" d="M15.67,18.75h2.11v2.11c0,0.36,0.29,0.65,0.65,0.65c0.36,0,0.65-0.29,0.65-0.65v-2.11h2.11
			c0.36,0,0.65-0.29,0.65-0.65c0-0.36-0.29-0.65-0.65-0.65c0,0,0,0,0,0h-2.11v-2.11c0-0.36-0.29-0.65-0.65-0.65
			c-0.36,0-0.65,0.29-0.65,0.65v2.11h-2.11c-0.36,0-0.65,0.29-0.65,0.65C15.02,18.46,15.31,18.75,15.67,18.75
			C15.67,18.75,15.67,18.75,15.67,18.75"/>
		<path id="Path_3211" d="M18.43,23.99c3.26,0,5.91-2.64,5.91-5.9c0-3.26-2.64-5.91-5.9-5.91c-3.26,0-5.91,2.64-5.91,5.9
			c0,1.57,0.62,3.07,1.73,4.18C15.36,23.37,16.86,23.99,18.43,23.99 M18.43,13.49L18.43,13.49c2.54,0,4.61,2.06,4.61,4.6
			c0,2.54-2.06,4.61-4.6,4.61c-2.54,0-4.61-2.06-4.61-4.6c0-1.22,0.48-2.4,1.35-3.26C16.04,13.98,17.21,13.49,18.43,13.49z"/>
		<path id="Path_3212" d="M13.3,25.8c-0.36,0-0.65,0.29-0.65,0.65c0,0.36,0.29,0.65,0.65,0.65h10.26c0.36,0,0.65-0.29,0.65-0.65
			c0-0.36-0.29-0.65-0.65-0.65c0,0,0,0,0,0H13.3z"/>
		<path id="Path_3213" d="M11.67,29.53h13.5c0.36,0,0.65-0.29,0.65-0.65c0-0.36-0.29-0.65-0.65-0.65h-13.5
			c-0.36,0-0.65,0.29-0.65,0.65C11.03,29.24,11.32,29.53,11.67,29.53"/>
	</g>
</g>
<g id="Layer_18">
</g>
<g id="Layer_19">
</g>
</svg>
