<?xml version="1.0" encoding="utf-8"?>
<!-- Generator: Adobe Illustrator 24.0.0, SVG Export Plug-In . SVG Version: 6.00 Build 0)  -->
<svg version="1.1" id="Layer_1" xmlns="http://www.w3.org/2000/svg" xmlns:xlink="http://www.w3.org/1999/xlink" x="0px" y="0px"
	 viewBox="0 0 36.85 36.85" style="enable-background:new 0 0 36.85 36.85;" xml:space="preserve">
<g id="Layer_20">
</g>
<g id="Layer_3">
</g>
<g id="Layer_2">
</g>
<g id="Layer_4">
</g>
<g id="Layer_5">
</g>
<g id="Layer_6">
</g>
<g id="Layer_7">
</g>
<g id="Layer_8">
</g>
<g id="Layer_9">
</g>
<g id="Layer_10">
</g>
<g id="Layer_11">
</g>
<g id="Layer_12">
</g>
<g id="Layer_13">
</g>
<g id="Layer_14">
</g>
<g id="Layer_15">
</g>
<g id="Layer_16">
</g>
<g id="Layer_17">
</g>
<g id="Layer_18">
</g>
<g id="Layer_19">
	<g id="Group_514_1_">
		<path id="Path_3227_1_" d="M12.6,14.14c0.5,0,0.96-0.26,1.2-0.7l0.89-1.59l2.98,5.34c0.38,0.66,1.22,0.89,1.89,0.51
			c0.21-0.12,0.39-0.3,0.51-0.51l1.7-3.02h2.4c0.77,0,1.39-0.62,1.39-1.39c0-0.77-0.62-1.39-1.39-1.39h-3.21
			c-0.5,0-0.96,0.26-1.2,0.7l-0.89,1.59l-2.98-5.34c-0.5-0.89-1.94-0.89-2.4,0l-1.7,3.02H8.92l-0.08-0.08
			c-1.7-2.13-1.63-5.27,0.27-7.05c2.06-1.98,5.32-1.91,7.3,0.14c0.1,0.1,0.2,0.21,0.29,0.32l0.89,1.12
			c0.63,0.77,1.77,0.88,2.54,0.25c0.09-0.07,0.17-0.16,0.25-0.25l0.74-0.89c1.74-2.17,4.8-2.75,6.97-1.32
			c2.37,1.52,3.06,4.68,1.54,7.05c-0.09,0.15-0.2,0.29-0.3,0.42L19.8,22.93c-0.2,0.25-0.5,0.39-0.81,0.39
			c-0.32,0.01-0.62-0.14-0.81-0.39l-5.03-6.31H9.62l6.43,8.05c0.72,0.91,1.82,1.44,2.98,1.43c1.16-0.01,2.25-0.53,2.98-1.43
			l9.45-11.85c2.71-3.38,2.17-8.32-1.21-11.03c-0.21-0.17-0.42-0.32-0.65-0.47c-3.33-2.17-7.98-1.36-10.57,1.86l-0.15-0.19
			c-2.75-3.41-7.74-3.96-11.16-1.21C7.53,1.93,7.35,2.08,7.18,2.25c-2.44,2.36-2.94,6.08-1.47,9.14H4.47c-0.77,0-1.39,0.61-1.4,1.38
			c0,0,0,0.01,0,0.01c0,0.74,0.59,1.35,1.34,1.35c0.01,0,0.01,0,0.02,0L12.6,14.14z"/>
		<path id="Path_3228_1_" d="M5.63,25.48c-0.77,0-1.39,0.62-1.39,1.38c0,0,0,0.01,0,0.01v6.74c0,0.77,0.62,1.39,1.39,1.39
			s1.39-0.62,1.39-1.39l0,0v-6.78C7.01,26.08,6.39,25.47,5.63,25.48L5.63,25.48z"/>
		<path id="Path_3229_1_" d="M32.38,25.48c-0.77,0-1.39,0.62-1.39,1.38c0,0,0,0.01,0,0.01v6.74c0,0.77,0.62,1.39,1.39,1.39
			c0.77,0,1.39-0.62,1.39-1.39v-6.78C33.74,26.09,33.13,25.5,32.38,25.48L32.38,25.48z"/>
		<path id="Path_3230_1_" d="M27.54,23.66c-0.77,0-1.39,0.62-1.39,1.38c0,0,0,0.01,0,0.01v3.79H11.82v-3.79
			c0-0.77-0.62-1.39-1.39-1.39c-0.77,0-1.39,0.62-1.39,1.39l0,0v10.38c0,0.77,0.62,1.39,1.39,1.39c0.77,0,1.39-0.62,1.39-1.39l0,0
			v-3.79h14.33v3.79c0,0.77,0.62,1.39,1.39,1.39s1.39-0.62,1.39-1.39V25.05c0-0.77-0.62-1.39-1.38-1.39
			C27.55,23.66,27.55,23.66,27.54,23.66"/>
	</g>
</g>
</svg>
