<?xml version="1.0" encoding="utf-8"?>
<!-- Generator: Adobe Illustrator 24.0.0, SVG Export Plug-In . SVG Version: 6.00 Build 0)  -->
<svg version="1.1" id="Layer_1" xmlns="http://www.w3.org/2000/svg" xmlns:xlink="http://www.w3.org/1999/xlink" x="0px" y="0px"
	 viewBox="0 0 36.85 36.85" style="enable-background:new 0 0 36.85 36.85;" xml:space="preserve">
<g id="Layer_20">
</g>
<g id="Layer_3">
</g>
<g id="Layer_2">
</g>
<g id="Layer_4">
</g>
<g id="Layer_5">
</g>
<g id="Layer_6">
</g>
<g id="Layer_7">
</g>
<g id="Layer_8">
</g>
<g id="Layer_9">
</g>
<g id="Layer_10">
</g>
<g id="Layer_11">
</g>
<g id="Layer_12">
</g>
<g id="Layer_13">
</g>
<g id="Layer_14">
</g>
<g id="Layer_15">
	<g id="Group_510">
		<path id="Path_3221" d="M32.57,28.37L32.57,28.37c-1.51-0.15-2.46,1.07-2.91,1.85l0,0c-0.49-0.26-1.01-0.47-1.54-0.63l-0.32-2.45
			l0,0c-0.17-1.37-0.46-2.73-0.88-4.05c-0.52-1.59-1.21-3.11-2.05-4.56l4.09-4.09c0.67-0.68,1.75-0.69,2.43-0.02
			c0.68,0.67,0.69,1.75,0.02,2.43c-0.01,0.01-0.01,0.01-0.02,0.02l-4.02,4.02l0,0c-0.22,0.22-0.22,0.59,0,0.81
			c0.22,0.22,0.59,0.22,0.81,0l4.02-4.02c1.11-1.13,1.1-2.94-0.02-4.05c-1.12-1.1-2.91-1.1-4.03,0l-4.4,4.4
			c-0.01,0.01-0.01,0.02-0.02,0.03l0,0c-0.02,0.03-0.05,0.06-0.06,0.1c-0.02,0.03-0.03,0.06-0.05,0.09
			c-0.01,0.04-0.02,0.07-0.02,0.11c-0.01,0.04-0.01,0.07-0.01,0.11c0,0.04,0.01,0.07,0.02,0.1c0.01,0.04,0.02,0.08,0.04,0.11
			c0.01,0.01,0.01,0.02,0.01,0.04c0.89,1.49,1.62,3.08,2.16,4.73c0.39,1.25,0.67,2.54,0.83,3.85l0.37,2.82
			c0.03,0.23,0.19,0.42,0.42,0.48c0.75,0.18,1.46,0.49,2.1,0.91c0.25,0.19,0.61,0.14,0.8-0.11c0.03-0.04,0.06-0.09,0.08-0.14
			c0.01-0.02,0.78-1.86,2.02-1.74c0.33,0.03,1.32,0.14,1.24,1.74c-0.1,1.96-1.75,4.38-2.99,4.38c-1.52-0.13-2.99-0.56-4.34-1.26
			c-1.53-0.69-3.2-1.04-4.88-1.04h-6.09c-1.68-0.01-3.35,0.34-4.88,1.04c-1.35,0.7-2.83,1.12-4.34,1.26c-1.24,0-2.89-2.41-2.99-4.38
			c-0.08-1.6,0.91-1.7,1.24-1.74c1.26-0.14,2.02,1.72,2.02,1.74c0.11,0.29,0.45,0.44,0.74,0.33c0.05-0.02,0.09-0.04,0.14-0.08
			c0.64-0.42,1.35-0.73,2.1-0.91c0.22-0.06,0.39-0.25,0.42-0.48l0.37-2.82c0.16-1.3,0.44-2.59,0.83-3.85
			c0.55-1.65,1.28-3.23,2.16-4.72c0-0.01,0.01-0.02,0.01-0.04c0.02-0.04,0.03-0.08,0.04-0.11c0.01-0.03,0.02-0.07,0.02-0.1
			c0-0.04,0-0.07-0.01-0.11c0-0.04-0.01-0.07-0.02-0.11c-0.03-0.07-0.07-0.13-0.11-0.19c-0.01-0.01-0.01-0.02-0.02-0.03l-4.4-4.4
			c-1.1-1.14-2.91-1.17-4.05-0.07c-1.14,1.1-1.17,2.91-0.07,4.05c0.02,0.02,0.05,0.05,0.07,0.07l4.02,4.02l0,0
			c0.22,0.23,0.58,0.23,0.81,0.01c0.23-0.22,0.23-0.58,0.01-0.81c0,0,0,0-0.01-0.01l-4.02-4.02c-0.67-0.67-0.67-1.76,0-2.43
			c0.68-0.65,1.75-0.65,2.43,0l4.09,4.09c-0.84,1.45-1.52,2.97-2.05,4.56c-0.42,1.32-0.71,2.67-0.88,4.05l-0.32,2.45l0,0
			c-0.53,0.16-1.05,0.37-1.54,0.63c-0.45-0.78-1.4-2-2.91-1.85c-1.51,0.15-2.35,1.25-2.26,2.94c0.13,2.41,2.1,5.47,4.14,5.47
			c1.2,0,2.83-0.46,4.81-1.36c1.38-0.62,2.89-0.94,4.41-0.93h6.09c1.52-0.01,3.02,0.31,4.41,0.93c1.99,0.9,3.61,1.36,4.81,1.36
			c2.04,0,4.01-3.06,4.14-5.47C34.91,29.62,34.07,28.52,32.57,28.37"/>
		<path id="Path_3222" d="M17.97,21.05c-1.01-1.05-2.69-1.08-3.74-0.06s-1.08,2.69-0.06,3.74c0.02,0.02,0.04,0.04,0.06,0.06
			l3.78,3.78c0.22,0.22,0.59,0.22,0.81,0l3.78-3.78c1.03-1.03,1.03-2.71,0-3.74c-1.03-1.03-2.71-1.03-3.74,0l0,0l-0.45,0.45
			L17.97,21.05z M18.83,22.72l0.85-0.86c0.59-0.59,1.53-0.59,2.12,0c0,0,0,0,0,0l0,0c0.58,0.58,0.58,1.53,0,2.11l-3.38,3.38
			l-3.38-3.38c-0.58-0.59-0.58-1.54,0.01-2.12c0.58-0.58,1.53-0.58,2.11,0l0.86,0.86C18.25,22.94,18.61,22.94,18.83,22.72"/>
		<path id="Path_3223" d="M20.15,12.12c0,0.95-0.77,1.72-1.72,1.72c-0.95,0-1.72-0.77-1.72-1.72c0-0.32-0.26-0.57-0.57-0.57
			c-0.32,0-0.57,0.26-0.57,0.57c0,0,0,0,0,0c0,1.58,1.28,2.87,2.87,2.86c1.58,0,2.86-1.28,2.86-2.86c0-0.32-0.26-0.57-0.57-0.57
			C20.4,11.55,20.15,11.8,20.15,12.12"/>
		<path id="Path_3224" d="M13.93,5.45L13.93,5.45c0.3,0.24,0.67,0.37,1.05,0.37c0.14,0,0.28-0.02,0.42-0.05
			c0.31-0.08,0.49-0.39,0.42-0.7c-0.08-0.31-0.39-0.49-0.7-0.42l0,0c-0.31,0.08-0.62-0.11-0.7-0.42c-0.01-0.05-0.02-0.09-0.02-0.14
			V1.8c0-0.32,0.26-0.57,0.57-0.57c0.03,0,0.06,0,0.08,0.01l1.81,0.97c-0.11,0.23-0.18,0.49-0.18,0.75c0,0.95,0.76,1.72,1.71,1.72
			c0.23,0,0.45-0.04,0.66-0.13c0.05,0.02,0.11,0.04,0.16,0.06l2.08,1.11l0,0c0.04,0.02,0.08,0.04,0.13,0.05
			c0.92,0.23,1.85-0.33,2.09-1.25c0.03-0.14,0.05-0.28,0.05-0.42V1.8c0-0.95-0.77-1.72-1.72-1.72c-0.14,0-0.28,0.02-0.42,0.05
			c-0.05,0.01-0.09,0.03-0.13,0.05L19.23,1.3c-0.05,0.02-0.11,0.05-0.16,0.06c-0.41-0.17-0.88-0.17-1.29,0
			c-0.05-0.02-0.11-0.04-0.16-0.06l-2.08-1.11c-0.04-0.02-0.08-0.04-0.13-0.05c-0.92-0.23-1.85,0.33-2.09,1.25
			c-0.03,0.14-0.05,0.28-0.05,0.42V4.1C13.27,4.63,13.51,5.13,13.93,5.45 M19.97,2.21l1.81-0.97c0.31-0.05,0.6,0.17,0.65,0.48
			c0,0.03,0.01,0.06,0.01,0.08V4.1c0,0.32-0.26,0.57-0.57,0.57c-0.03,0-0.06,0-0.08-0.01L19.97,3.7
			C20.21,3.23,20.21,2.67,19.97,2.21 M17.9,2.73c0.12-0.29,0.46-0.43,0.75-0.31c0.29,0.12,0.43,0.46,0.31,0.75
			c-0.12,0.29-0.46,0.43-0.75,0.31c-0.07-0.03-0.13-0.07-0.19-0.12C17.86,3.19,17.81,2.94,17.9,2.73"/>
		<path id="Path_3225" d="M10.48,11.47L10.48,11.47c0.58,4.39,4.62,7.47,9,6.89c3.58-0.48,6.4-3.3,6.88-6.88
			c0.91-0.27,1.42-1.23,1.15-2.14c-0.17-0.55-0.6-0.99-1.15-1.15c-0.13-0.99-0.45-1.94-0.94-2.81c-0.15-0.28-0.5-0.38-0.78-0.22
			c-0.28,0.15-0.38,0.5-0.22,0.78l0,0c0.48,0.86,0.77,1.81,0.84,2.8c0.04,0.3,0.3,0.53,0.6,0.53c0.32,0,0.57,0.26,0.57,0.57
			c0,0,0,0,0,0c0,0.32-0.27,0.58-0.59,0.57c0,0-0.01,0-0.01,0c-0.3,0-0.55,0.23-0.57,0.53c-0.3,3.78-3.61,6.61-7.39,6.31
			c-3.37-0.27-6.04-2.94-6.31-6.31c-0.04-0.3-0.3-0.53-0.6-0.53c-0.32,0-0.57-0.26-0.57-0.57c0-0.32,0.27-0.58,0.59-0.57
			c0,0,0.01,0,0.01,0c0.3,0,0.55-0.23,0.57-0.53c0.08-0.98,0.36-1.94,0.84-2.8c0.15-0.28,0.05-0.63-0.22-0.78
			c-0.28-0.15-0.63-0.05-0.78,0.22c-0.48,0.87-0.8,1.82-0.94,2.81c-0.91,0.27-1.42,1.23-1.15,2.14C9.49,10.87,9.93,11.3,10.48,11.47
			"/>
	</g>
</g>
<g id="Layer_16">
</g>
<g id="Layer_17">
</g>
<g id="Layer_18">
</g>
<g id="Layer_19">
</g>
</svg>
