<?xml version="1.0" encoding="utf-8"?>
<!-- Generator: Adobe Illustrator 24.0.0, SVG Export Plug-In . SVG Version: 6.00 Build 0)  -->
<svg version="1.1" id="Layer_1" xmlns="http://www.w3.org/2000/svg" xmlns:xlink="http://www.w3.org/1999/xlink" x="0px" y="0px"
	 viewBox="0 0 36.85 36.85" style="enable-background:new 0 0 36.85 36.85;" xml:space="preserve">
<g id="Layer_20">
</g>
<g id="Layer_3">
</g>
<g id="Layer_2">
</g>
<g id="Layer_4">
</g>
<g id="Layer_5">
</g>
<g id="Layer_6">
</g>
<g id="Layer_7">
</g>
<g id="Layer_8">
</g>
<g id="Layer_9">
</g>
<g id="Layer_10">
</g>
<g id="Layer_11">
	<g id="Group_520">
		<path id="Path_3242" d="M28.38,24.55h-0.77c-0.33-0.01-0.6,0.25-0.61,0.58s0.25,0.6,0.58,0.61c0.01,0,0.02,0,0.02,0h0.77
			c0.33-0.01,0.59-0.28,0.58-0.61C28.96,24.81,28.7,24.55,28.38,24.55"/>
		<path id="Path_3243" d="M36.22,28.93h-0.74V22.5c0-0.77-0.28-1.51-0.79-2.09l-3.56-4.06l0,0c-0.6-0.68-1.46-1.07-2.37-1.08H25.6
			v-2.67c0-0.33-0.27-0.59-0.59-0.59c0,0,0,0,0,0h-1.18v-1.11c-0.05-1.26-1.12-2.24-2.37-2.19c-1.19,0.05-2.14,1-2.19,2.19v1.11
			H1.96c-0.33,0-0.59,0.27-0.59,0.59c0,0,0,0,0,0v16.32H0.63c-0.33,0.01-0.59,0.28-0.58,0.61c0.01,0.32,0.26,0.57,0.58,0.58h4.79
			c0.33,1.44,1.76,2.34,3.2,2.01c1-0.23,1.78-1.01,2.01-2.01h16.7c0.33,1.44,1.76,2.34,3.2,2.01c1-0.23,1.78-1.01,2.01-2.01h3.68
			c0.33-0.01,0.59-0.28,0.58-0.61C36.8,29.19,36.54,28.94,36.22,28.93L36.22,28.93z M28.75,16.46c0.57,0,1.11,0.24,1.49,0.67
			l3.56,4.05c0.18,0.22,0.32,0.47,0.4,0.74h-8.62v-5.47L28.75,16.46z M20.45,10.93L20.45,10.93c0.04-0.6,0.56-1.06,1.16-1.03
			c0.55,0.03,1,0.47,1.03,1.03v1.09h-2.18L20.45,10.93z M2.55,13.2h21.84v15.73H10.63c-0.33-1.44-1.76-2.34-3.2-2.01
			c-1,0.23-1.78,1.01-2.01,2.01H2.55L2.55,13.2z M8.03,31L8.03,31c0-0.25,0.2-0.44,0.45-0.44c0.25,0,0.44,0.2,0.44,0.45
			c0,0.25-0.2,0.44-0.45,0.44c-0.24,0-0.43-0.2-0.44-0.44V31z M29.94,31L29.94,31c0-0.25,0.2-0.44,0.45-0.44
			c0.25,0,0.44,0.2,0.44,0.45c0,0.25-0.2,0.44-0.45,0.44c-0.24,0-0.43-0.2-0.44-0.44V31z M32.54,28.92L32.54,28.92
			c-0.33-1.44-1.76-2.34-3.2-2.01c-1,0.23-1.78,1.01-2.01,2.01h-1.75v-5.8h8.7v5.81L32.54,28.92z"/>
		<path id="Path_3244" d="M9.79,21.66h3.1v3.09c0,0.33,0.27,0.59,0.59,0.59c0.33,0,0.59-0.27,0.59-0.59v-3.09h3.09
			c0.33-0.01,0.59-0.28,0.58-0.61c-0.01-0.32-0.26-0.57-0.58-0.58h-3.09v-3.09c0-0.33-0.27-0.59-0.59-0.59
			c-0.33,0-0.59,0.27-0.59,0.59l0,0v3.09h-3.1c-0.33,0.01-0.59,0.28-0.58,0.61C9.21,21.4,9.47,21.65,9.79,21.66"/>
		<path id="Path_3245" d="M24,8.02c0.09,0.06,0.2,0.09,0.31,0.09c0.2,0,0.39-0.1,0.5-0.28l0.79-1.26c0.17-0.28,0.09-0.64-0.19-0.82
			c-0.28-0.17-0.64-0.09-0.82,0.19l0,0L23.81,7.2C23.64,7.48,23.72,7.85,24,8.02C24,8.02,24,8.02,24,8.02L24,8.02z"/>
		<path id="Path_3246" d="M18.32,7.84c0.17,0.28,0.54,0.36,0.82,0.19c0.28-0.17,0.36-0.54,0.19-0.82l-0.79-1.26
			c-0.17-0.28-0.54-0.36-0.82-0.19c-0.28,0.17-0.36,0.54-0.19,0.82L18.32,7.84z"/>
		<path id="Path_3247" d="M21.54,7.48c0.33,0,0.59-0.27,0.59-0.59V5.24c-0.01-0.33-0.28-0.59-0.61-0.58
			c-0.32,0.01-0.57,0.26-0.58,0.58v1.65C20.95,7.22,21.22,7.48,21.54,7.48"/>
	</g>
</g>
<g id="Layer_12">
</g>
<g id="Layer_13">
</g>
<g id="Layer_14">
</g>
<g id="Layer_15">
</g>
<g id="Layer_16">
</g>
<g id="Layer_17">
</g>
<g id="Layer_18">
</g>
<g id="Layer_19">
</g>
</svg>
