<?xml version="1.0" encoding="utf-8"?>
<!-- Generator: Adobe Illustrator 24.0.0, SVG Export Plug-In . SVG Version: 6.00 Build 0)  -->
<svg version="1.1" id="Layer_1" xmlns="http://www.w3.org/2000/svg" xmlns:xlink="http://www.w3.org/1999/xlink" x="0px" y="0px"
	 viewBox="0 0 36.85 36.85" style="enable-background:new 0 0 36.85 36.85;" xml:space="preserve">
<g id="Layer_20">
</g>
<g id="Layer_3">
</g>
<g id="Layer_2">
</g>
<g id="Layer_4">
</g>
<g id="Layer_5">
</g>
<g id="Layer_6">
</g>
<g id="Layer_7">
</g>
<g id="Layer_8">
</g>
<g id="Layer_9">
</g>
<g id="Layer_10">
	<g id="Group_522">
		<path id="Path_3248" d="M36.55,24.88C33.56,6.11,24.84,6.24,23.95,6.32l0,0c-0.99,0.01-1.92,0.46-2.54,1.23
			c-0.99,1.24-1.13,3.15-1.07,4.57l-0.66-0.49V2.04h-2.53v9.59l-0.64,0.48c0.06-1.42-0.09-3.32-1.07-4.56l0,0
			c-0.61-0.77-1.53-1.24-2.52-1.26C12.03,6.23,3.3,6.09,0.32,24.86c-0.33,2.4-0.87,8.13,1.34,9.56l0,0
			c0.36,0.24,0.79,0.36,1.22,0.36c0.57-0.02,1.12-0.2,1.6-0.52c0.05,0,4.56-2.76,8.06-3.9c1.41-0.4,3.99-2.14,3.79-5.87
			c0-0.03,0-0.06,0-0.09c-0.3-2.97-0.34-5.96-0.14-8.94l2.24-1.61l2.26,1.66l0,0c0.2,2.98,0.16,5.96-0.14,8.93c0,0.03,0,0.06,0,0.09
			c-0.2,3.73,2.38,5.47,3.79,5.87c3.5,1.15,8.02,3.88,8.06,3.9c0.47,0.32,1.03,0.5,1.6,0.52c0.43,0,0.85-0.12,1.22-0.36
			C37.39,33.01,36.86,27.28,36.55,24.88L36.55,24.88z M3.16,32.13L3.16,32.13c-0.05,0.04-0.11,0.07-0.17,0.09
			c-0.47-0.77-0.56-3.8-0.19-6.73c2.31,0.45,4.33,1.85,5.57,3.86c-2.73,1.28-5.09,2.71-5.24,2.79L3.16,32.13z M11.84,27.96h-0.05
			c-0.65,0.22-1.33,0.48-2,0.76l0,0c-1.45-2.48-3.91-4.2-6.73-4.73c1.46-8.03,3.98-11.76,5.89-13.46c2.05-1.83,3.73-1.73,3.79-1.73
			h0.09c0.26-0.01,0.5,0.1,0.66,0.31c0.66,0.83,0.61,3.06,0.36,4.38l0,0c-0.01,0.03-0.01,0.07,0,0.1c-0.14,1.38-0.22,2.71-0.26,3.95
			c-2.22-0.02-4.43-0.22-6.62-0.62l-0.33,1.52c2.27,0.42,4.58,0.64,6.89,0.65c-0.01,1.88,0.08,3.76,0.28,5.62
			c0.11,2.56-1.78,3.21-1.98,3.27L11.84,27.96z M25.05,27.96c-0.22-0.07-2.1-0.71-1.99-3.28l0,0c0.19-1.87,0.28-3.75,0.27-5.62
			c2.31-0.03,4.61-0.25,6.88-0.68l-0.3-1.49l0,0c-2.18,0.41-4.39,0.63-6.6,0.65c-0.04-1.23-0.11-2.59-0.26-3.95c0-0.03,0-0.07,0-0.1
			c-0.25-1.32-0.3-3.55,0.36-4.38c0.16-0.2,0.41-0.32,0.66-0.31h0.04c0.07,0,1.76-0.1,3.81,1.73c1.91,1.71,4.43,5.42,5.89,13.46
			c-2.87,0.48-5.37,2.2-6.86,4.7c-0.63-0.26-1.26-0.52-1.87-0.7L25.05,27.96z M33.89,32.22l-0.18-0.1
			c-0.14-0.08-2.59-1.55-5.33-2.83l0,0c1.26-2.03,3.34-3.43,5.7-3.83c0.35,2.95,0.27,6-0.21,6.76L33.89,32.22z"/>
	</g>
</g>
<g id="Layer_11">
</g>
<g id="Layer_12">
</g>
<g id="Layer_13">
</g>
<g id="Layer_14">
</g>
<g id="Layer_15">
</g>
<g id="Layer_16">
</g>
<g id="Layer_17">
</g>
<g id="Layer_18">
</g>
<g id="Layer_19">
</g>
</svg>
