<?xml version="1.0" encoding="utf-8"?>
<!-- Generator: Adobe Illustrator 24.0.0, SVG Export Plug-In . SVG Version: 6.00 Build 0)  -->
<svg version="1.1" id="Layer_1" xmlns="http://www.w3.org/2000/svg" xmlns:xlink="http://www.w3.org/1999/xlink" x="0px" y="0px"
	 viewBox="0 0 36.85 36.85" style="enable-background:new 0 0 36.85 36.85;" xml:space="preserve">
<g id="Layer_20">
</g>
<g id="Layer_3">
</g>
<g id="Layer_2">
</g>
<g id="Layer_4">
	<g id="Group_534">
		<path id="Path_3272" d="M11.77,36.77c-5.91,0-10.71-4.79-10.71-10.71c0-4.77,3.16-8.97,7.74-10.29V8.91h5.92v6.86
			c5.68,1.64,8.96,7.57,7.33,13.25C20.74,33.61,16.55,36.77,11.77,36.77L11.77,36.77z M9.99,10.09v6.6l-0.45,0.11
			c-5.11,1.23-8.26,6.38-7.03,11.49S8.89,36.55,14,35.32c5.11-1.23,8.26-6.38,7.03-11.49c-0.84-3.47-3.55-6.19-7.03-7.03l-0.45-0.11
			v-6.6H9.99z"/>
		<path id="Path_3273" d="M5.16,24.22L4.02,23.9c0.61-2.19,2.12-4.03,4.16-5.04l0.53,1.06C6.97,20.79,5.68,22.35,5.16,24.22z"/>
		<path id="Path_3274" d="M3.69,26.06c0,4.46,3.62,8.08,8.08,8.08s8.08-3.62,8.08-8.08H3.69z M11.77,32.96
			c-3.35,0-6.22-2.41-6.8-5.71h13.59C17.99,30.55,15.12,32.96,11.77,32.96L11.77,32.96z"/>
		<path id="Path_3275" d="M14.72,10.09h-5.9c-0.98,0-1.78-0.8-1.78-1.78s0.8-1.78,1.78-1.78c0,0,0,0,0,0h5.9
			c0.98,0,1.78,0.8,1.78,1.78S15.7,10.09,14.72,10.09 M8.83,7.72c-0.33,0-0.59,0.27-0.59,0.59c0,0.33,0.27,0.59,0.59,0.59
			c0,0,0,0,0,0h5.9c0.33,0,0.59-0.27,0.59-0.59c0-0.33-0.27-0.59-0.59-0.59H8.83z"/>
		<rect id="Rectangle_251" x="27.76" y="22.13" width="4.33" height="1.18"/>
		<path id="Path_3276" d="M29.92,34.24c-1.52,0-2.76-1.23-2.76-2.75c0,0,0,0,0-0.01V18.16h1.18v13.32c0,0.87,0.7,1.57,1.57,1.57
			c0.87,0,1.57-0.7,1.57-1.57V18.16h1.18v13.32C32.68,33,31.45,34.24,29.92,34.24C29.93,34.24,29.92,34.24,29.92,34.24L29.92,34.24z
			"/>
		<rect id="Rectangle_252" x="26.49" y="17.57" width="6.86" height="1.18"/>
		<rect id="Rectangle_253" x="24.06" y="25.84" width="11.73" height="1.18"/>
		<rect id="Rectangle_254" x="33.75" y="24.99" width="1.18" height="11.85"/>
		<rect id="Rectangle_255" x="24.91" y="24.99" width="1.18" height="11.85"/>
		<path id="Path_3277" d="M30.51,20.7h-1.18V2.45c0-0.68-0.55-1.22-1.22-1.22s-1.22,0.55-1.22,1.22v1.11
			c0.01,1.33-1.06,2.42-2.39,2.43c-1.33,0.01-2.42-1.06-2.43-2.39c0-0.01,0-0.03,0-0.04V2.45c0-0.67-0.55-1.22-1.22-1.22
			c-0.67,0-1.22,0.55-1.22,1.22v1.11c0,1.33-1.08,2.41-2.41,2.41c-1.33,0-2.41-1.08-2.41-2.41V2.45c0-0.68-0.55-1.22-1.22-1.22
			s-1.22,0.55-1.22,1.22V20.7h-1.18V2.45c0.01-1.33,1.1-2.4,2.43-2.39c1.31,0.01,2.37,1.07,2.39,2.39v1.11
			c0,0.68,0.55,1.22,1.22,1.22c0.68,0,1.22-0.55,1.22-1.22V2.45c-0.01-1.33,1.06-2.42,2.39-2.43c1.33-0.01,2.42,1.06,2.43,2.39
			c0,0.01,0,0.03,0,0.04v1.1c0,0.68,0.55,1.22,1.22,1.22s1.22-0.55,1.22-1.22V2.45c-0.01-1.33,1.06-2.42,2.39-2.43
			s2.42,1.06,2.43,2.39c0,0.01,0,0.03,0,0.04L30.51,20.7z"/>
	</g>
</g>
<g id="Layer_5">
</g>
<g id="Layer_6">
</g>
<g id="Layer_7">
</g>
<g id="Layer_8">
</g>
<g id="Layer_9">
</g>
<g id="Layer_10">
</g>
<g id="Layer_11">
</g>
<g id="Layer_12">
</g>
<g id="Layer_13">
</g>
<g id="Layer_14">
</g>
<g id="Layer_15">
</g>
<g id="Layer_16">
</g>
<g id="Layer_17">
</g>
<g id="Layer_18">
</g>
<g id="Layer_19">
</g>
</svg>
