<?xml version="1.0" encoding="utf-8"?>
<!-- Generator: Adobe Illustrator 24.0.0, SVG Export Plug-In . SVG Version: 6.00 Build 0)  -->
<svg version="1.1" id="Layer_1" xmlns="http://www.w3.org/2000/svg" xmlns:xlink="http://www.w3.org/1999/xlink" x="0px" y="0px"
	 viewBox="0 0 36.85 36.85" style="enable-background:new 0 0 36.85 36.85;" xml:space="preserve">
<g id="Layer_20">
</g>
<g id="Layer_3">
</g>
<g id="Layer_2">
</g>
<g id="Layer_4">
</g>
<g id="Layer_5">
</g>
<g id="Layer_6">
	<g id="Group_530" transform="translate(333 -80.526)">
		<path id="Path_3266" d="M-310.5,101.69l-1.75,0.54c-0.47,2.68-1.47,5.12-3.73,6.25c-1.01,0.49-2.15,0.67-3.26,0.5
			c0.23,0.31,0.5,0.66,0.74,1.01c1.67,2.56,4.39,2.76,5.86,2.64c3.14-0.19,7.76-2.41,10.25-7.88c0.4-0.86,0.73-1.74,1.01-2.64
			l-1.05-0.35c-0.53-0.16-1.1-0.15-1.63,0.04l-1.67,0.62c-0.65,0.23-1.36,0.19-1.98-0.12l-0.97-0.47
			C-309.23,101.54-309.89,101.49-310.5,101.69L-310.5,101.69z"/>
		<path id="Path_3267" d="M-297.88,91.44c-1.79-3.03-4.89-4.93-8.77-5.28c-2.64-0.23-4.73,0.43-6.29,1.98
			c-0.34,0.36-0.84,0.52-1.32,0.43c-0.43-0.06-0.79-0.34-0.97-0.74c-0.62-1.36-0.93-3.49-0.93-6.29c0-0.56-0.45-1.01-1.01-1.01
			c-0.56,0-1.01,0.45-1.01,1.01c0,3.1,0.39,5.51,1.13,7.14c0.45,1.02,1.39,1.75,2.48,1.94c1.15,0.19,2.32-0.18,3.14-1.01
			c1.09-1.13,2.6-1.59,4.62-1.4c3.18,0.31,5.74,1.82,7.14,4.27c1.94,3.38,1.71,8.07-0.66,13.2c-2.41,5.24-7.18,8.85-12.19,9.24
			c-3.38,0.23-6.25-1.09-7.96-3.69c-0.5-0.78-2.02-3.14-4-2.64c-2.56,0.66-3.18,6.02-3.34,7.65c-0.03,0.56,0.37,1.05,0.93,1.13h0.08
			c0.53,0,0.97-0.41,1.01-0.93c0.23-2.83,1.09-5.63,1.79-5.82c0.16-0.04,0.78,0.23,1.79,1.79c2.13,3.22,5.71,4.89,9.86,4.58
			c5.74-0.43,11.22-4.5,13.89-10.44C-295.83,100.75-295.63,95.4-297.88,91.44L-297.88,91.44z"/>
		<path id="Path_3268" d="M-303.51,94.7c0.49,0.92,0.73,1.95,0.7,2.99c0,0.56,0.44,1.01,1,1.02c0.56,0,1.01-0.44,1.02-1
			c0-0.02,0-0.04,0-0.05c0.02-1.39-0.31-2.77-0.97-4c-1.32-2.29-3.65-2.95-5.36-3.1c-0.57-0.06-1.07,0.36-1.13,0.92
			c-0.06,0.57,0.36,1.07,0.92,1.13c0,0,0.01,0,0.01,0C-306.04,92.68-304.37,93.15-303.51,94.7L-303.51,94.7z"/>
		<path id="Path_3269" d="M-325.75,104.6c1.16-0.54,2.56-0.23,4.19,0.93c1.75,1.24,3.26,1.55,4.54,0.93
			c2.45-1.24,2.79-5.59,2.83-8.77c0.06-1.48-0.8-2.85-2.17-3.42c-5.16-2.21-5.04-12.23-5.04-12.34c0.02-0.56-0.42-1.03-0.97-1.05
			c-0.01,0-0.02,0-0.03,0c-0.57-0.01-1.03,0.44-1.05,1.01c0,0.47-0.16,11.53,6.29,14.28c0.58,0.28,0.94,0.87,0.93,1.51
			c-0.08,5.36-1.13,6.68-1.71,6.99c-0.66,0.31-1.67-0.23-2.41-0.74c-2.25-1.63-4.35-2.02-6.21-1.17c-4.97,2.17-6.13,12.3-6.25,13.47
			c-0.06,0.56,0.34,1.06,0.9,1.12c0.01,0,0.02,0,0.03,0h0.12c0.53,0,0.97-0.41,1.01-0.93C-330.49,113.64-329.01,106.07-325.75,104.6
			L-325.75,104.6z"/>
	</g>
</g>
<g id="Layer_7">
</g>
<g id="Layer_8">
</g>
<g id="Layer_9">
</g>
<g id="Layer_10">
</g>
<g id="Layer_11">
</g>
<g id="Layer_12">
</g>
<g id="Layer_13">
</g>
<g id="Layer_14">
</g>
<g id="Layer_15">
</g>
<g id="Layer_16">
</g>
<g id="Layer_17">
</g>
<g id="Layer_18">
</g>
<g id="Layer_19">
</g>
</svg>
