<?xml version="1.0" encoding="utf-8"?>
<!-- Generator: Adobe Illustrator 24.0.0, SVG Export Plug-In . SVG Version: 6.00 Build 0)  -->
<svg version="1.1" id="Layer_1" xmlns="http://www.w3.org/2000/svg" xmlns:xlink="http://www.w3.org/1999/xlink" x="0px" y="0px"
	 viewBox="0 0 36.85 36.85" style="enable-background:new 0 0 36.85 36.85;" xml:space="preserve">
<g id="Layer_20">
</g>
<g id="Layer_3">
</g>
<g id="Layer_2">
	<g id="Group_536">
		<path id="Path_3279" d="M31.89,18.67l4.44-5.92c0.32-0.44,0.49-0.97,0.49-1.51c0.01-0.67-0.25-1.31-0.71-1.79l-0.01-0.01
			l-0.02-0.02l0.02,0.02c-0.88-0.88-2.3-0.94-3.25-0.13l0,0l-3.88,3.35c-0.3,0.26-0.62,0.49-0.96,0.7
			c-0.12,0.07-0.25,0.14-0.38,0.19c-0.04,0.01-0.07,0.03-0.11,0.04l-0.01,0H24.7c-0.06-0.02-0.12-0.05-0.18-0.08
			c-0.43-0.25-0.83-0.56-1.17-0.92l-3.36-3.44c-0.86-0.88-2.27-0.9-3.15-0.04c-0.01,0.01-0.03,0.03-0.04,0.04l-3.38,3.45
			c-0.27,0.28-0.57,0.53-0.89,0.75c-0.11,0.08-0.23,0.15-0.35,0.2c-0.03,0.01-0.06,0.03-0.09,0.04H9.21
			c-0.06-0.02-0.12-0.04-0.18-0.07c-0.44-0.24-0.85-0.53-1.23-0.86L3.97,9.28C3.02,8.46,1.6,8.53,0.73,9.42L0.72,9.44
			c-0.45,0.49-0.7,1.14-0.69,1.8c0,0.54,0.16,1.07,0.47,1.51l3.98,5.47c0.24,0.33,0.45,0.67,0.63,1.03c0.07,0.13,0.13,0.27,0.18,0.4
			c0.01,0.04,0.03,0.08,0.04,0.12l0,0.02c0,0.36,0.02,1.35,0.05,2.25l0.31,9.9c0.01,0.57,0.22,1.11,0.59,1.55
			c0.36,0.43,0.89,0.69,1.45,0.7h5.95c0.56-0.01,1.08-0.27,1.43-0.7c0.36-0.44,0.56-0.98,0.57-1.54l0.31-9.92
			c0.03-0.91,0.05-1.93,0.05-2.29c0.01-0.08,0.03-0.16,0.05-0.23c0.17-0.54,0.39-1.06,0.66-1.55l0.51-0.95
			c0.21-0.39,0.45-0.79,0.66-1.12c0.11-0.17,0.21-0.32,0.29-0.43c0.07-0.1,0.13-0.17,0.16-0.21c0.03,0.04,0.06,0.08,0.1,0.13
			c0.24,0.34,0.63,0.95,0.96,1.52l0.86,1.5c0.16,0.28,0.29,0.58,0.39,0.88c0.08,0.21,0.12,0.43,0.14,0.65l0,0.05
			c-0.07,0.2-0.19,0.53-0.32,0.93c-0.13,0.41-0.28,0.88-0.42,1.32l-1.05,3.42c-0.1,0.33-0.18,0.63-0.24,0.9
			c-0.05,0.23-0.09,0.46-0.09,0.7c0,0.11,0.01,0.21,0.04,0.31c0.03,0.1,0.09,0.19,0.16,0.27c0.06,0.06,0.13,0.11,0.2,0.14
			c0.08,0.04,0.17,0.06,0.26,0.06h2.27c0.08,0.34,0.11,0.68,0.11,1.03v2.89c-0.01,0.53,0.13,1.04,0.4,1.5
			c0.13,0.21,0.3,0.39,0.51,0.54c0.22,0.15,0.48,0.23,0.75,0.24h5.02c0.27,0,0.54-0.08,0.78-0.21c0.34-0.21,0.6-0.5,0.77-0.86
			c0.18-0.37,0.27-0.78,0.27-1.19v-2.89c0-0.34,0.03-0.69,0.1-1.02c0,0,0-0.01,0-0.01h2.17c0.09,0,0.18-0.02,0.27-0.06
			c0.12-0.05,0.22-0.14,0.29-0.26c0.05-0.09,0.09-0.18,0.1-0.28c0.01-0.06,0.01-0.12,0.01-0.18c-0.01-0.24-0.04-0.47-0.09-0.7
			c-0.06-0.27-0.13-0.58-0.23-0.9l-1.4-4.62c-0.06-0.21-0.08-0.42-0.08-0.63c0-0.32,0.05-0.64,0.14-0.95
			C31.61,19.15,31.73,18.9,31.89,18.67L31.89,18.67z M20.83,19.95L20.83,19.95C20.83,19.95,20.83,19.95,20.83,19.95 M30.9,17.92
			c-0.25,0.35-0.44,0.74-0.56,1.16c-0.12,0.42-0.19,0.86-0.19,1.3c0,0.33,0.04,0.67,0.13,0.99l1.4,4.62
			c0.09,0.29,0.16,0.56,0.2,0.78h-1.86c-0.18,0-0.35,0.07-0.49,0.19c-0.07,0.07-0.14,0.14-0.19,0.23c-0.07,0.12-0.12,0.25-0.16,0.39
			c-0.12,0.48-0.18,0.97-0.17,1.47v2.89c0.01,0.28-0.07,0.56-0.23,0.8c-0.05,0.07-0.12,0.14-0.19,0.18
			c-0.05,0.03-0.1,0.04-0.15,0.04h-1.87V27.6c0-0.34-0.28-0.62-0.62-0.62c-0.34,0-0.62,0.28-0.62,0.62v5.36h-1.92
			c-0.02,0-0.04-0.01-0.06-0.03c-0.11-0.09-0.19-0.2-0.24-0.33c-0.09-0.21-0.13-0.44-0.13-0.68v-2.89c0.01-0.44-0.04-0.88-0.14-1.31
			c-0.04-0.18-0.11-0.35-0.2-0.52c-0.06-0.1-0.13-0.19-0.22-0.26c-0.13-0.11-0.3-0.17-0.48-0.18h-1.95
			c0.05-0.22,0.12-0.49,0.21-0.78l1.05-3.42c0.13-0.43,0.28-0.9,0.41-1.3s0.25-0.74,0.31-0.9v0c0.05-0.15,0.08-0.3,0.07-0.46
			c-0.01-0.35-0.08-0.71-0.2-1.04c-0.13-0.39-0.29-0.76-0.5-1.11l-0.86-1.5c-0.23-0.4-0.48-0.82-0.71-1.16
			c-0.11-0.17-0.22-0.33-0.31-0.46c-0.08-0.12-0.17-0.23-0.26-0.33c-0.21-0.23-0.51-0.36-0.82-0.36c-0.35,0-0.68,0.15-0.91,0.41
			c-0.1,0.11-0.2,0.23-0.29,0.36c-0.37,0.54-0.72,1.11-1.03,1.69l-0.51,0.95c-0.22,0.41-0.42,0.84-0.59,1.28
			c-0.07,0.19-0.13,0.38-0.19,0.57c-0.05,0.17-0.08,0.34-0.08,0.52c0,0.32-0.02,1.35-0.05,2.25l-0.31,9.92
			c0,0.29-0.1,0.56-0.28,0.79c-0.12,0.16-0.29,0.25-0.49,0.26h-2.37V27.6c0-0.34-0.28-0.62-0.62-0.62c-0.34,0-0.62,0.28-0.62,0.62
			v5.36H7.74c-0.2-0.01-0.39-0.11-0.51-0.27c-0.18-0.22-0.28-0.49-0.29-0.78l-0.31-9.9c-0.03-0.9-0.05-1.92-0.05-2.23
			c0-0.1-0.01-0.19-0.04-0.29c-0.09-0.33-0.22-0.65-0.39-0.95c-0.2-0.37-0.42-0.72-0.66-1.06L1.5,12.03
			c-0.16-0.23-0.24-0.5-0.24-0.78c-0.01-0.35,0.12-0.69,0.35-0.95l0.01-0.01c0.41-0.42,1.08-0.45,1.52-0.07L7,13.58
			c0.35,0.31,0.72,0.59,1.12,0.83c0.17,0.1,0.34,0.19,0.51,0.27c0.08,0.04,0.17,0.07,0.25,0.09c0.1,0.03,0.2,0.04,0.3,0.04h2.93
			c0.11,0,0.21-0.02,0.32-0.05c0.16-0.05,0.31-0.12,0.46-0.2c0.52-0.31,0.99-0.68,1.41-1.11l3.38-3.45c0.38-0.39,1.01-0.4,1.4-0.02
			C19.09,10,19.09,10,19.1,10.01l3.36,3.44c0.33,0.34,0.7,0.65,1.1,0.92c0.17,0.11,0.35,0.22,0.53,0.3c0.09,0.04,0.18,0.07,0.27,0.1
			c0.1,0.03,0.21,0.05,0.32,0.05h2.86c0.1,0,0.2-0.02,0.3-0.04c0.33-0.1,0.65-0.25,0.94-0.44c0.35-0.22,0.69-0.47,1.01-0.74
			l3.88-3.35l0,0c0.21-0.18,0.47-0.27,0.74-0.27c0.31,0,0.6,0.12,0.82,0.33l0.01,0.02c0.23,0.25,0.36,0.58,0.35,0.92
			c0,0.28-0.08,0.55-0.24,0.77L30.9,17.92z"/>
		<path id="Path_3280" d="M10.7,12.14c2.62,0,4.74-2.12,4.74-4.74s-2.12-4.74-4.74-4.74c-2.62,0-4.74,2.12-4.74,4.74c0,0,0,0,0,0
			C5.96,10.01,8.08,12.14,10.7,12.14C10.7,12.14,10.7,12.14,10.7,12.14 M10.7,3.89c1.94,0,3.51,1.57,3.51,3.51
			c0,1.94-1.57,3.51-3.51,3.51S7.19,9.33,7.19,7.4C7.19,5.46,8.76,3.89,10.7,3.89"/>
		<path id="Path_3281" d="M11.29,18.79c0,0.34-0.28,0.62-0.62,0.62c-0.34,0-0.62-0.28-0.62-0.62c0-0.34,0.28-0.62,0.62-0.62h0
			C11.01,18.18,11.29,18.45,11.29,18.79"/>
		<path id="Path_3282" d="M11.29,21.68c0,0.34-0.28,0.62-0.62,0.62s-0.62-0.28-0.62-0.62c0-0.34,0.28-0.62,0.62-0.62c0,0,0,0,0,0
			C11.01,21.06,11.29,21.34,11.29,21.68"/>
		<path id="Path_3283" d="M26.54,18.79c0,0.34-0.28,0.62-0.62,0.62c-0.34,0-0.62-0.28-0.62-0.62c0-0.34,0.28-0.62,0.62-0.62
			C26.27,18.18,26.54,18.45,26.54,18.79L26.54,18.79"/>
		<path id="Path_3284" d="M26.54,21.68c0,0.34-0.28,0.62-0.62,0.62c-0.34,0-0.62-0.28-0.62-0.62c0-0.34,0.28-0.62,0.62-0.62
			c0,0,0,0,0,0C26.27,21.06,26.54,21.34,26.54,21.68L26.54,21.68"/>
		<path id="Path_3285" d="M17.47,6.72c0.7,0.38,1.48,0.58,2.28,0.59c0.43,0,0.86-0.07,1.26-0.21c0.07-0.03,0.13-0.06,0.2-0.09
			c-0.01,0.13-0.02,0.25-0.02,0.38c0,2.62,2.12,4.74,4.74,4.74c2.62,0,4.74-2.12,4.74-4.74c0-0.14-0.01-0.27-0.02-0.4
			c0.08,0.04,0.16,0.08,0.25,0.11c0.4,0.14,0.83,0.21,1.26,0.21c0.8-0.01,1.58-0.21,2.28-0.59c0.2-0.13,0.29-0.37,0.21-0.6
			c0,0-0.7-1.88-2.51-2.52c-0.4-0.14-0.83-0.21-1.26-0.21c-0.65,0.01-1.28,0.14-1.88,0.4c-1.76-1.51-4.36-1.52-6.14-0.02
			c-0.58-0.24-1.21-0.37-1.84-0.38c-0.43,0-0.85,0.07-1.26,0.21c-1.81,0.64-2.51,2.52-2.51,2.52C17.18,6.35,17.27,6.6,17.47,6.72
			L17.47,6.72z M30.88,4.63c0.29,0,0.57,0.04,0.85,0.14C32.31,5,32.8,5.4,33.14,5.92c-0.32,0.1-0.65,0.15-0.98,0.15
			c-0.29,0-0.57-0.04-0.85-0.14c-0.58-0.23-1.07-0.63-1.41-1.16C30.22,4.68,30.55,4.63,30.88,4.63z M25.93,3.89
			c1.94,0,3.51,1.57,3.51,3.51c0,1.94-1.57,3.51-3.51,3.51c-1.94,0-3.51-1.57-3.51-3.51c0,0,0,0,0,0
			C22.43,5.46,23.99,3.89,25.93,3.89 M20.18,4.77c0.27-0.09,0.56-0.14,0.85-0.14c0.32,0,0.64,0.05,0.95,0.14
			c-0.05,0.07-0.09,0.14-0.13,0.21c-0.32,0.43-0.76,0.76-1.25,0.95c-0.27,0.09-0.56,0.14-0.85,0.14c-0.33,0-0.66-0.05-0.98-0.15
			C19.11,5.4,19.6,5,20.18,4.77L20.18,4.77z"/>
	</g>
</g>
<g id="Layer_4">
</g>
<g id="Layer_5">
</g>
<g id="Layer_6">
</g>
<g id="Layer_7">
</g>
<g id="Layer_8">
</g>
<g id="Layer_9">
</g>
<g id="Layer_10">
</g>
<g id="Layer_11">
</g>
<g id="Layer_12">
</g>
<g id="Layer_13">
</g>
<g id="Layer_14">
</g>
<g id="Layer_15">
</g>
<g id="Layer_16">
</g>
<g id="Layer_17">
</g>
<g id="Layer_18">
</g>
<g id="Layer_19">
</g>
</svg>
