<?xml version="1.0" encoding="utf-8"?>
<!-- Generator: Adobe Illustrator 24.0.0, SVG Export Plug-In . SVG Version: 6.00 Build 0)  -->
<svg version="1.1" id="Layer_1" xmlns="http://www.w3.org/2000/svg" xmlns:xlink="http://www.w3.org/1999/xlink" x="0px" y="0px"
	 viewBox="0 0 36.85 36.85" style="enable-background:new 0 0 36.85 36.85;" xml:space="preserve">
<g id="Layer_20">
</g>
<g id="Layer_3">
</g>
<g id="Layer_2">
</g>
<g id="Layer_4">
</g>
<g id="Layer_5">
</g>
<g id="Layer_6">
</g>
<g id="Layer_7">
</g>
<g id="Layer_8">
</g>
<g id="Layer_9">
</g>
<g id="Layer_10">
</g>
<g id="Layer_11">
</g>
<g id="Layer_12">
</g>
<g id="Layer_13">
</g>
<g id="Layer_14">
</g>
<g id="Layer_15">
</g>
<g id="Layer_16">
	<g id="Group_508">
		<path id="Path_3214" d="M12.74,23.65c-1.36,0-2.68-0.48-3.71-1.37c-0.04-0.04-0.08-0.08-0.13-0.11c-1.02-0.94-1.66-2.22-1.79-3.6
			c-0.03-0.35-0.34-0.6-0.69-0.56c-0.35,0.03-0.6,0.34-0.56,0.69c0.12,1.22,0.56,2.38,1.27,3.37c-0.87,0.15-1.68,0.57-2.3,1.19
			c-0.25,0.24-0.26,0.64-0.02,0.89c0.24,0.25,0.64,0.26,0.89,0.02c0,0,0.01-0.01,0.01-0.01c0.67-0.67,1.61-0.99,2.55-0.86
			c1.25,1.06,2.84,1.63,4.48,1.63l0,0c0.35,0.01,0.63-0.27,0.64-0.62c0.01-0.35-0.27-0.63-0.62-0.64
			C12.76,23.65,12.75,23.65,12.74,23.65"/>
		<path id="Path_3215" d="M13.68,27.97c-0.28,0.2-0.35,0.59-0.15,0.87c0.68,0.97,1.05,2.13,1.06,3.32
			c-0.01,0.35,0.27,0.63,0.62,0.64c0.35,0.01,0.63-0.27,0.64-0.62c0-0.01,0-0.02,0-0.03c0-1.45-0.45-2.86-1.29-4.05
			C14.35,27.84,13.96,27.77,13.68,27.97C13.68,27.97,13.68,27.97,13.68,27.97"/>
		<path id="Path_3216" d="M12.61,12.28c-0.42,1.12-0.55,2.34-0.36,3.53c0.05,0.31,0.31,0.53,0.62,0.53l0,0c0.03,0,0.06,0,0.1-0.01
			c0.34-0.05,0.58-0.37,0.52-0.72c-0.13-0.82-0.07-1.66,0.15-2.45c0.35,0.24,0.72,0.45,1.1,0.63c0.08,0.04,0.17,0.06,0.26,0.06l0,0
			c0.35,0,0.63-0.28,0.63-0.63c0-0.25-0.14-0.47-0.37-0.57c-1.66-0.76-2.86-2.26-3.22-4.05c-0.07-0.34-0.4-0.56-0.74-0.49
			c-0.34,0.07-0.56,0.4-0.49,0.74C11.07,10.14,11.69,11.33,12.61,12.28"/>
		<path id="Path_3217" d="M36.77,23.88c0.01-1.38-0.58-2.71-1.62-3.62c0.37-0.7,0.56-1.47,0.55-2.26c0.01-1.54-0.73-2.99-1.98-3.9
			c0.18-0.52,0.28-1.07,0.28-1.63c0-2.15-1.36-3.99-3.25-4.52c0-0.06,0-0.13,0-0.19c0-2.57-1.95-4.67-4.33-4.67
			c-0.09,0-0.17,0-0.26,0.01c-0.66-2.23-3-3.51-5.23-2.85c-1.09,0.32-2,1.06-2.53,2.07c-0.73-1.36-2.14-2.21-3.69-2.24
			c-1.86,0.03-3.5,1.25-4.06,3.02c-0.08,0-0.17-0.01-0.25-0.01c-2.39,0-4.33,2.1-4.33,4.67c0,0.06,0,0.12,0,0.19
			c-1.89,0.52-3.25,2.37-3.25,4.52c0,0.55,0.1,1.1,0.28,1.63C1.87,15,1.14,16.45,1.14,18c0,0.79,0.18,1.56,0.54,2.26
			c-1.99,1.81-2.15,4.89-0.36,6.9c-0.02,0.18-0.03,0.36-0.03,0.53c0,2.49,1.81,4.52,4.07,4.66c0.57,1.91,2.22,3.25,4.11,3.25
			c0.68,0,1.34-0.17,1.93-0.49c0.79,1.03,2.02,1.65,3.32,1.66l0,0c1.55-0.02,2.96-0.88,3.69-2.25c0.74,1.36,2.15,2.22,3.7,2.25l0,0
			c1.3-0.02,2.52-0.63,3.32-1.66c0.59,0.31,1.25,0.48,1.91,0.48c1.9,0,3.57-1.34,4.14-3.25c2.27-0.14,4.07-2.17,4.07-4.66
			c0-0.18-0.01-0.36-0.03-0.54C36.33,26.25,36.78,25.09,36.77,23.88 M14.73,35.52c-1.08-0.02-2.07-0.62-2.59-1.57
			c-0.17-0.3-0.56-0.41-0.86-0.23c-0.02,0.01-0.04,0.02-0.06,0.04c-0.5,0.38-1.12,0.59-1.75,0.59c-1.27,0-2.4-0.88-2.85-2.17
			c1.97-0.63,3.21-2.58,2.93-4.64c-0.04-0.34-0.36-0.59-0.7-0.55c-0.34,0.04-0.59,0.36-0.55,0.7c0,0.01,0,0.01,0,0.02
			c0.11,0.79-0.1,1.58-0.58,2.21c-0.47,0.63-1.18,1.05-1.96,1.16c-0.02,0-0.04,0.01-0.07,0.01c-0.02,0-0.03,0-0.05,0
			c-1.71,0.02-3.11-1.51-3.11-3.41c0-0.22,0.02-0.44,0.05-0.65c0.03-0.21-0.04-0.42-0.19-0.56c-0.71-0.68-1.1-1.62-1.08-2.6
			c-0.02-1.17,0.54-2.27,1.51-2.92c0.29-0.19,0.38-0.57,0.19-0.87c0,0-0.01-0.01-0.01-0.01C2.61,19.46,2.39,18.74,2.4,18
			c-0.02-1.28,0.67-2.46,1.78-3.08c0.02-0.01,0.04-0.02,0.06-0.03c1.39-0.88,3.24-0.48,4.14,0.9c0.18,0.29,0.57,0.38,0.87,0.2
			c0.29-0.18,0.38-0.57,0.2-0.87c0-0.01-0.01-0.01-0.01-0.02c-1.12-1.71-3.3-2.39-5.2-1.62c-0.1-0.33-0.15-0.67-0.15-1.01
			c0-1.74,1.18-3.2,2.74-3.4c0.34-0.04,0.58-0.34,0.55-0.68C7.36,8.18,7.34,7.97,7.34,7.76c0-1.88,1.38-3.41,3.08-3.41
			c0.18,0,0.37,0.02,0.55,0.06c0.01,0,0.03,0.01,0.04,0.01l0.01,0c0.85,0.17,1.59,0.69,2.02,1.44c0.17,0.3,0.56,0.4,0.86,0.23
			c0.3-0.17,0.4-0.56,0.23-0.86c-0.5-0.86-1.28-1.52-2.21-1.86c0.43-1.2,1.55-2.01,2.82-2.03c1.68,0,3.05,1.51,3.05,3.37
			c0,0.01,0,0.01,0,0.02c0,0.01,0,0.02,0,0.02v13.47c-0.73-0.64-1.65-1.01-2.62-1.04c-0.34,0.01-0.62,0.27-0.65,0.61
			c-0.01,0.35,0.26,0.64,0.61,0.64c1.19,0.05,2.23,0.8,2.65,1.91V32.1c0,0,0,0.01,0,0.01s0,0,0,0
			C17.78,33.99,16.41,35.52,14.73,35.52 M34.43,26.49c-0.15,0.14-0.22,0.35-0.18,0.55c0.04,0.21,0.05,0.43,0.05,0.65
			c0,1.88-1.37,3.41-3.06,3.41c-0.03,0-0.06,0-0.1,0c-0.02-0.01-0.05-0.01-0.07-0.01c-0.78-0.1-1.48-0.52-1.96-1.15
			c-0.48-0.64-0.69-1.44-0.58-2.23c0.05-0.34-0.19-0.66-0.54-0.71c-0.34-0.04-0.66,0.2-0.71,0.54c-0.16,1.12,0.14,2.26,0.83,3.16
			c0.53,0.7,1.26,1.22,2.1,1.48c-0.46,1.29-1.59,2.17-2.87,2.17c-0.62-0.01-1.22-0.21-1.72-0.59c-0.28-0.21-0.67-0.15-0.88,0.12
			c-0.02,0.02-0.03,0.04-0.04,0.07c-0.52,0.95-1.51,1.55-2.6,1.57c-1.69,0-3.07-1.53-3.08-3.4c0,0,0-0.01,0-0.01v-6.86
			c0.44-1.11,1.49-1.87,2.69-1.92c0.35-0.01,0.62-0.31,0.6-0.65c-0.02-0.34-0.31-0.61-0.65-0.6c-0.97,0.04-1.9,0.41-2.63,1.05V4.72
			c0,0,0-0.01,0-0.01s0,0,0-0.01c0.01-1.86,1.39-3.37,3.08-3.37c1.27,0.03,2.39,0.84,2.82,2.04c-0.93,0.34-1.71,1-2.21,1.86
			c-0.17,0.3-0.07,0.68,0.23,0.86c0.1,0.06,0.2,0.08,0.31,0.08l0,0c0.22,0,0.43-0.12,0.54-0.31c0.44-0.75,1.17-1.27,2.02-1.44
			c0.01,0,0.02-0.01,0.04-0.01l0.01,0c0.18-0.04,0.36-0.07,0.55-0.06c1.7,0,3.08,1.53,3.08,3.41c0,0.19-0.02,0.39-0.05,0.58
			c-0.06,0.34,0.17,0.67,0.51,0.73c0.01,0,0.02,0,0.03,0.01c1.57,0.19,2.76,1.65,2.76,3.4c0,0.34-0.05,0.68-0.15,1.01
			c-1.9-0.79-4.09-0.11-5.2,1.62c-0.19,0.29-0.11,0.68,0.18,0.87c0.1,0.07,0.22,0.1,0.34,0.1l0,0c0.21,0,0.41-0.11,0.53-0.29
			c0.9-1.39,2.75-1.79,4.14-0.9c0,0,0,0,0,0l0.01,0.01c0.01,0.01,0.02,0.01,0.03,0.02c1.12,0.62,1.81,1.8,1.8,3.08
			c0,0.74-0.23,1.47-0.65,2.08c-0.19,0.29-0.12,0.68,0.17,0.87c0,0,0.01,0.01,0.01,0.01c0.97,0.65,1.55,1.75,1.53,2.92
			C35.52,24.86,35.13,25.8,34.43,26.49"/>
		<path id="Path_3218" d="M29.72,22.05c0.72-0.99,1.15-2.15,1.27-3.37c0.03-0.35-0.22-0.65-0.56-0.69
			c-0.35-0.03-0.65,0.22-0.69,0.56c-0.13,1.38-0.77,2.66-1.79,3.6c-0.05,0.03-0.1,0.07-0.14,0.12c-1.03,0.89-2.35,1.37-3.71,1.37
			c-0.35-0.01-0.63,0.27-0.64,0.62c-0.01,0.35,0.27,0.63,0.62,0.64c0.01,0,0.02,0,0.03,0l0,0c1.64,0,3.23-0.57,4.48-1.63
			c0.93-0.12,1.86,0.19,2.52,0.86c0.25,0.24,0.65,0.24,0.89-0.01c0.24-0.24,0.24-0.62,0.01-0.87C31.39,22.62,30.59,22.2,29.72,22.05
			"/>
		<path id="Path_3219" d="M23.17,27.97c-0.28-0.2-0.67-0.14-0.87,0.14c0,0,0,0,0,0.01c-0.83,1.19-1.28,2.6-1.29,4.05
			c-0.01,0.35,0.27,0.63,0.62,0.64s0.63-0.27,0.64-0.62c0-0.01,0-0.02,0-0.03c0-1.19,0.37-2.35,1.06-3.32
			C23.52,28.56,23.46,28.17,23.17,27.97C23.17,27.97,23.17,27.97,23.17,27.97"/>
		<path id="Path_3220" d="M27.14,10.98c0.25-0.24,0.26-0.64,0.02-0.89c-0.24-0.25-0.64-0.26-0.89-0.02c-0.6,0.57-1.32,1-2.1,1.26
			c0-0.43-0.04-0.86-0.12-1.28c-0.06-0.34-0.39-0.57-0.73-0.5c-0.34,0.06-0.57,0.39-0.5,0.73c0.11,0.56,0.12,1.14,0.05,1.7
			c-0.02,0.06-0.02,0.11-0.02,0.17c-0.18,1.17-0.72,2.25-1.54,3.1c-0.24,0.25-0.24,0.65,0.01,0.89c0.12,0.11,0.27,0.18,0.44,0.18
			l0,0c0.17,0,0.33-0.07,0.45-0.19c0.93-0.95,1.56-2.15,1.82-3.46C25.2,12.39,26.27,11.8,27.14,10.98"/>
	</g>
</g>
<g id="Layer_17">
</g>
<g id="Layer_18">
</g>
<g id="Layer_19">
</g>
</svg>
