<?xml version="1.0" encoding="utf-8"?>
<!-- Generator: Adobe Illustrator 24.0.0, SVG Export Plug-In . SVG Version: 6.00 Build 0)  -->
<svg version="1.1" id="Layer_1" xmlns="http://www.w3.org/2000/svg" xmlns:xlink="http://www.w3.org/1999/xlink" x="0px" y="0px"
	 viewBox="0 0 36.85 36.85" style="enable-background:new 0 0 36.85 36.85;" xml:space="preserve">
<g id="Layer_20">
</g>
<g id="Layer_3">
</g>
<g id="Layer_2">
</g>
<g id="Layer_4">
</g>
<g id="Layer_5">
</g>
<g id="Layer_6">
</g>
<g id="Layer_7">
</g>
<g id="Layer_8">
</g>
<g id="Layer_9">
</g>
<g id="Layer_10">
</g>
<g id="Layer_11">
</g>
<g id="Layer_12">
	<g id="Group_518">
		<path id="Path_3237" d="M2.33,14.24L2.28,31.99c0,0.14,0.07,0.26,0.19,0.33l7.68,4.44c0.06,0.03,0.12,0.05,0.19,0.05
			c0.07,0,0.13-0.02,0.19-0.05l0,0l0,0l23.79-13.82c0.12-0.07,0.19-0.19,0.19-0.33l0.05-17.75v0c0-0.14-0.07-0.26-0.19-0.33
			l-7.68-4.44c-0.12-0.07-0.27-0.07-0.38,0l-3.36,1.95c-0.18,0.11-0.25,0.34-0.14,0.52s0.34,0.25,0.52,0.14c0,0,0,0,0,0l3.17-1.84
			l6.92,3.99L10.4,18.24l-6.92-3.99l15.7-9.13c0.18-0.11,0.24-0.34,0.14-0.52c-0.11-0.18-0.34-0.24-0.52-0.14
			C1.79,14.46,2.34,13.79,2.33,14.24L2.33,14.24z M3.1,14.91l6.92,3.99L9.97,35.77l-6.92-3.99L3.1,14.91z M10.73,35.76l0.05-16.86
			L33.8,5.52l-0.05,16.86L10.73,35.76z"/>
		<path id="Path_3238" d="M32.03,7.91L12.39,19.33c-0.08,0.07-0.42,0.15-0.42,0.46l-0.04,13.24c0,0.21,0.17,0.38,0.38,0.38
			c0.07,0,0.14-0.02,0.19-0.05l19.88-11.55c0.12-0.07,0.19-0.19,0.19-0.33l0.04-13.24c0-0.21-0.17-0.38-0.38-0.38
			C32.16,7.86,32.09,7.88,32.03,7.91L32.03,7.91z M12.73,20.02l1.64-0.96l0.02,10.18l-1.7,0.98L12.73,20.02z M15.16,28.79
			l-0.02-10.17l12.41-7.22l0.02,10.18L15.16,28.79z M28.34,21.14l-0.02-10.18l1.69-0.99l-0.03,10.21L28.34,21.14z M31.8,21.26
			L12.69,32.37l0-1.26l17.86-10.37c0.12-0.07,0.19-0.19,0.19-0.33l0.03-10.88l1.06-0.62L31.8,21.26z"/>
		<path id="Path_3239" d="M21.62,2.81l-1.46,0.85C19.98,3.77,19.92,4,20.03,4.18c0.11,0.18,0.34,0.24,0.52,0.14l1.46-0.85
			c0.18-0.11,0.25-0.34,0.14-0.52C22.05,2.77,21.81,2.7,21.62,2.81C21.63,2.81,21.62,2.81,21.62,2.81"/>
		<path id="Path_3240" d="M11.88,12.77c-0.84-0.43-1.83-0.43-2.67,0c-0.38,0.19-0.63,0.56-0.66,0.97c0,0.21-0.01,1.89-0.01,1.81
			c0.02,0.43,0.28,0.81,0.67,1c0.84,0.43,1.83,0.43,2.67,0c0.38-0.19,0.64-0.57,0.66-0.99l0-1.8l0,0l0,0c0,0,0,0,0,0
			C12.52,13.34,12.26,12.96,11.88,12.77L11.88,12.77z M9.59,13.44c0.6-0.3,1.3-0.3,1.9,0c0.18,0.1,0.28,0.23,0.28,0.33c0,0,0,0,0,0
			c0,0.14-0.19,0.28-0.28,0.33c-0.6,0.3-1.3,0.3-1.9,0c-0.12-0.07-0.28-0.2-0.28-0.33C9.32,13.66,9.42,13.54,9.59,13.44z
			 M11.77,15.56c0,0.1-0.11,0.23-0.28,0.33c-0.6,0.3-1.3,0.3-1.9,0c-0.18-0.1-0.28-0.23-0.28-0.33l0-0.75
			c0.79,0.34,1.68,0.34,2.46,0L11.77,15.56z"/>
		<path id="Path_3241" d="M24.03,15.46c-0.44-1.15-1.78-0.18-1.41-0.4c-0.37,0.23-0.67,0.57-0.86,0.96
			c-0.27,0.54-0.32,1.03-0.16,1.42c0.01,0.03,0.05,0.14-0.1,0.4c-0.67,1.16-1.35,2.33-2.02,3.5c-0.06,0.13-0.17,0.23-0.3,0.28
			c-0.16,0.02-0.32,0.08-0.46,0.16c-0.49,0.31-0.86,0.8-1.02,1.36c-0.31,1.07,0.26,1.71,0.97,1.58c0.19,0.51,0.78,0.76,1.43,0.39
			c0.27-0.16,0.5-0.39,0.67-0.65c0.41-0.61,0.53-1.29,0.32-1.81c0.01-0.1,0.04-0.21,0.1-0.29c0.68-1.19,1.37-2.37,2.05-3.56
			c0.16-0.28,0.24-0.24,0.39-0.28c0.54-0.13,1-0.65,1.24-1.17c0.14-0.28,0.21-0.6,0.22-0.91C25.08,15.84,24.65,15.34,24.03,15.46
			L24.03,15.46z M24.18,17.05c-0.38,0.81-0.82,0.7-1.12,0.87c-0.2,0.12-0.37,0.3-0.48,0.51c-0.69,1.19-1.37,2.37-2.05,3.56
			c-0.13,0.21-0.2,0.45-0.2,0.7c0,0.11,0.03,0.22,0.07,0.33c0.08,0.19,0.03,0.59-0.27,1.04c-0.11,0.17-0.25,0.31-0.42,0.41
			c-0.28,0.16-0.35,0.07-0.35-0.22c0.01-0.14-0.07-0.28-0.19-0.35c-0.13-0.08-0.29-0.07-0.42,0c-0.4,0.23-0.44-0.09-0.31-0.53
			c0.04-0.12,0.09-0.24,0.15-0.35c0.15-0.32,0.44-0.56,0.78-0.64c0.09-0.02,0.18-0.06,0.27-0.1c0.21-0.13,0.39-0.32,0.5-0.54
			c0.67-1.17,1.34-2.33,2.02-3.5c0.21-0.31,0.27-0.71,0.15-1.07c-0.08-0.19-0.03-0.47,0.14-0.81c0.13-0.27,0.33-0.49,0.58-0.65
			c0.22-0.12,0.32-0.07,0.31,0.2c-0.02,0.13,0.03,0.27,0.13,0.36c0.14,0.12,0.36,0.13,0.51,0.01c0.21-0.12,0.35-0.15,0.36,0.18
			C24.32,16.67,24.27,16.87,24.18,17.05L24.18,17.05z"/>
	</g>
</g>
<g id="Layer_13">
</g>
<g id="Layer_14">
</g>
<g id="Layer_15">
</g>
<g id="Layer_16">
</g>
<g id="Layer_17">
</g>
<g id="Layer_18">
</g>
<g id="Layer_19">
</g>
</svg>
