<?xml version="1.0" encoding="utf-8"?>
<!-- Generator: Adobe Illustrator 24.0.0, SVG Export Plug-In . SVG Version: 6.00 Build 0)  -->
<svg version="1.1" id="Layer_1" xmlns="http://www.w3.org/2000/svg" xmlns:xlink="http://www.w3.org/1999/xlink" x="0px" y="0px"
	 viewBox="0 0 36.85 36.85" style="enable-background:new 0 0 36.85 36.85;" xml:space="preserve">
<g id="Layer_20">
</g>
<g id="Layer_3">
	<g id="Group_502">
		<path id="Path_3183" d="M13.04,11.39c-0.45,0-0.81,0.36-0.81,0.81c0,0.45,0.36,0.81,0.81,0.81c0.45,0,0.81-0.36,0.81-0.81
			c0,0,0,0,0,0C13.85,11.76,13.48,11.39,13.04,11.39L13.04,11.39"/>
		<path id="Path_3184" d="M7.78,11.39c-0.45,0-0.81,0.36-0.81,0.81c0,0.45,0.36,0.81,0.81,0.81c0.45,0,0.81-0.36,0.81-0.81
			c0,0,0,0,0,0C8.59,11.76,8.23,11.39,7.78,11.39C7.78,11.39,7.78,11.39,7.78,11.39"/>
		<path id="Path_3185" d="M11.66,15.41c-0.21-0.09-0.45,0.01-0.54,0.21c-0.11,0.27-0.39,0.44-0.69,0.42
			c-0.28,0.03-0.55-0.13-0.67-0.39c-0.07-0.21-0.3-0.33-0.52-0.26c-0.21,0.07-0.33,0.3-0.26,0.52l0,0c0.23,0.59,0.81,0.97,1.45,0.94
			c0.62,0.02,1.19-0.34,1.43-0.91C11.96,15.74,11.86,15.5,11.66,15.41"/>
		<path id="Path_3186" d="M10.02,14.6h1.06c0.22,0,0.41-0.18,0.41-0.41c0-0.22-0.18-0.41-0.41-0.41c0,0,0,0,0,0h-0.64
			c0.03-0.51,0.15-1.02,0.35-1.49c0.1-0.2,0.02-0.45-0.18-0.55c-0.2-0.1-0.45-0.02-0.55,0.18c-0.31,0.71-0.47,1.49-0.45,2.26
			C9.61,14.42,9.79,14.6,10.02,14.6L10.02,14.6"/>
		<path id="Path_3187" d="M32.42,15.63c0.7-0.77,1.2-1.7,1.45-2.71h0.3c0.85,0,1.54-0.69,1.54-1.54V9.7c0-0.22-0.18-0.41-0.41-0.41
			c-0.22,0-0.41,0.18-0.41,0.41c0,0,0,0,0,0v1.68c0,0.4-0.33,0.73-0.73,0.73h-0.15c0.02-0.21,0.04-0.42,0.04-0.64
			c0-0.02,0-0.03,0-0.05c-0.01-0.4,0.07-1.55,0.51-2c0.1-0.11,0.24-0.17,0.38-0.16c0.01,0,0.02,0,0.03,0c0.21,0,0.4-0.09,0.54-0.24
			c0.17-0.2,0.26-0.47,0.25-0.73c-0.02-4.59-3.77-8.3-8.36-8.28c-4.56,0.02-8.25,3.72-8.28,8.28c-0.02,0.3,0.08,0.59,0.27,0.82
			c0.16,0.16,0.38,0.25,0.6,0.24c0.13,0,0.27,0.05,0.36,0.15c0.41,0.41,0.51,1.49,0.51,1.83v0c0,0.26,0.02,0.52,0.05,0.77h-0.29
			c-0.4,0-0.73-0.33-0.73-0.73V9.7c0-0.22-0.18-0.41-0.41-0.41S19.1,9.47,19.1,9.7v1.68c0,0.85,0.69,1.54,1.54,1.55h0.43
			c0.25,0.99,0.73,1.9,1.4,2.66c-1.52,0.7-2.53,2.09-3.15,3.73c-0.2-0.02-0.39-0.11-0.53-0.26c-0.38-0.39-0.45-1.12-0.45-1.37v-7.35
			c0-4.35-3.52-7.87-7.87-7.87S2.6,5.99,2.6,10.34v7.34l0,0.05c0,0.01,0.08,0.74-0.33,1.2c-0.24,0.27-0.61,0.4-1.11,0.4
			c-0.22,0-0.41,0.18-0.41,0.41c0,0.22,0.18,0.41,0.41,0.41c0.74,0,1.32-0.23,1.72-0.68c0.6-0.68,0.54-1.63,0.53-1.81v-7.32
			c0-3.9,3.16-7.06,7.06-7.06s7.06,3.16,7.06,7.06v7.34c0,0.1,0,1.26,0.68,1.95c0.23,0.24,0.53,0.4,0.85,0.47
			c-0.1,0.34-0.18,0.69-0.25,1.04c-0.66-1.8-1.89-3.34-3.38-4.14c0.99-1.18,1.53-2.67,1.53-4.2v-2.76c0-0.22-0.18-0.41-0.41-0.41
			c0,0,0,0,0,0h-5.24c-3.36,0-3.93-2.55-3.95-2.66C7.32,6.74,7.11,6.6,6.89,6.64c-0.02,0-0.04,0.01-0.06,0.02
			C6.27,6.89,5.77,7.22,5.34,7.64c-0.97,0.95-1.5,2.26-1.46,3.62v1.53c0,1.57,0.57,3.09,1.6,4.27c-2.26,1.6-3.6,4.2-3.6,6.97v7.85
			c0,0.22,0.18,0.41,0.41,0.41c0.22,0,0.41-0.18,0.41-0.41v-7.85c-0.01-2.55,1.25-4.95,3.36-6.39c2.5,2.25,6.31,2.23,8.79-0.05
			c2.08,0.99,3.68,3.75,3.68,6.42c0,0.01,0,0.01,0,0.02c0,0.21,0.16,0.38,0.37,0.41h0.01c0.01,0,0.02,0,0.03,0h0
			c0.22,0,0.41-0.18,0.41-0.41c0,0,0,0,0,0c0-0.01,0-0.01,0-0.02c0.01-3.14,1.01-6.8,3.77-7.81c2.52,2.09,6.18,2.09,8.71,0.01
			c2.17,1.43,3.47,3.87,3.45,6.46l0,9.21c0,0.22,0.18,0.41,0.41,0.41l0,0c0.22,0,0.41-0.18,0.41-0.41l0-9.21
			C36.1,19.87,34.73,17.23,32.42,15.63 M4.7,12.79v-1.53C4.7,9.04,6.04,8,6.72,7.61c0.17,0.43,0.4,0.83,0.7,1.18
			c0.62,0.75,1.8,1.64,3.9,1.64h4.84v2.35c0.02,3.16-2.53,5.74-5.69,5.76s-5.74-2.53-5.76-5.69C4.7,12.83,4.7,12.81,4.7,12.79
			 M21.69,11.34L21.69,11.34c0-0.18-0.02-1.69-0.75-2.41C20.69,8.67,20.35,8.53,20,8.54c0,0-0.01,0-0.01,0
			c-0.03-0.07-0.04-0.14-0.04-0.22c0-0.01,0-0.02,0-0.02c0-4.15,3.36-7.51,7.5-7.51s7.51,3.36,7.51,7.5c0,0,0,0,0,0
			c0,0.01,0,0.01,0,0.02c0,0.04-0.01,0.09-0.02,0.13c0,0,0,0-0.01,0c-0.36,0-0.7,0.15-0.94,0.41c-0.68,0.69-0.74,2.06-0.75,2.48
			c0,0,0,0,0,0.01c0,3.15-2.54,5.63-5.78,5.63S21.69,14.49,21.69,11.34"/>
		<path id="Path_3188" d="M30.14,9.44c-0.45,0-0.81,0.36-0.81,0.81c0,0.45,0.36,0.81,0.81,0.81c0.45,0,0.81-0.36,0.81-0.81
			C30.95,9.8,30.59,9.44,30.14,9.44C30.14,9.44,30.14,9.44,30.14,9.44"/>
		<path id="Path_3189" d="M24.88,9.44c-0.45,0-0.81,0.36-0.81,0.81c0,0.45,0.36,0.81,0.81,0.81c0.45,0,0.81-0.36,0.81-0.81
			C25.7,9.8,25.33,9.44,24.88,9.44C24.88,9.44,24.88,9.44,24.88,9.44"/>
		<path id="Path_3190" d="M28.96,13.7c-0.21-0.09-0.45,0.01-0.53,0.21c0,0,0,0,0,0c-0.15,0.36-0.52,0.59-0.91,0.56
			c-0.5,0-0.81-0.27-0.9-0.53c-0.07-0.21-0.3-0.33-0.51-0.26c-0.21,0.07-0.33,0.3-0.26,0.51c0,0,0,0,0,0.01
			c0.27,0.69,0.94,1.12,1.68,1.09c0.72,0.02,1.38-0.39,1.66-1.05C29.26,14.03,29.17,13.79,28.96,13.7
			C28.96,13.7,28.96,13.7,28.96,13.7"/>
		<path id="Path_3191" d="M27.92,9.94c-0.19-0.12-0.44-0.06-0.56,0.13c0,0,0,0,0,0c-0.45,0.82-0.67,1.73-0.65,2.66
			c0,0.22,0.18,0.41,0.41,0.41l0,0h1.06c0.22,0,0.41-0.18,0.41-0.41c0-0.22-0.18-0.41-0.41-0.41c0,0,0,0,0,0h-0.64
			c0.04-0.64,0.21-1.26,0.51-1.82C28.16,10.31,28.11,10.06,27.92,9.94"/>
		<path id="Path_3192" d="M32.38,8.72v1.67c0,0.22,0.18,0.41,0.41,0.41c0.22,0,0.41-0.18,0.41-0.41V8.33c0-0.22-0.18-0.41-0.41-0.41
			c-0.01,0-0.03,0-0.04,0c-0.84,0.09-2.16-1.12-2.56-1.55c-0.08-0.08-0.18-0.13-0.29-0.13c-0.11,0-0.22,0.04-0.3,0.12
			c-2.08,2.11-7.3,1.52-7.35,1.51C22.02,7.84,21.82,8,21.8,8.23c0,0.02,0,0.03,0,0.05v2.11c0,0.22,0.18,0.41,0.41,0.41
			c0.22,0,0.41-0.18,0.41-0.41l0,0V8.72c1.33,0.1,5.18,0.22,7.26-1.51C30.36,7.69,31.39,8.57,32.38,8.72"/>
		<path id="Path_3193" d="M27.64,26.76c0-0.34-0.27-0.61-0.61-0.61c-0.34,0-0.61,0.27-0.61,0.61c0,0.34,0.27,0.61,0.61,0.61
			C27.37,27.36,27.64,27.09,27.64,26.76L27.64,26.76"/>
		<path id="Path_3194" d="M23.63,26.76c0,0.34,0.27,0.61,0.61,0.61c0.34,0,0.61-0.27,0.61-0.61c0-0.34-0.27-0.61-0.61-0.61
			C23.91,26.15,23.63,26.42,23.63,26.76L23.63,26.76"/>
		<path id="Path_3195" d="M26.06,28.69c-0.07,0.17-0.24,0.27-0.42,0.25c-0.17,0.02-0.33-0.07-0.41-0.22
			c-0.07-0.21-0.3-0.33-0.51-0.26c-0.21,0.07-0.33,0.3-0.26,0.51c0,0,0,0,0,0.01c0.18,0.49,0.66,0.8,1.18,0.78
			c0.51,0.02,0.97-0.28,1.17-0.74c0.09-0.21-0.01-0.45-0.21-0.54C26.39,28.39,26.15,28.49,26.06,28.69"/>
		<path id="Path_3196" d="M32.58,28.45h-1.2v-2.52c0-3.17-2.57-5.74-5.74-5.74c-3.17,0-5.74,2.57-5.74,5.74c0,0,0,0,0,0v2.52h-1.1
			c-0.22,0-0.41,0.18-0.41,0.41c0,0.22,0.18,0.41,0.41,0.41h1.5c0.22,0,0.41-0.18,0.41-0.41l0,0v-2.93c0-2.72,2.21-4.93,4.93-4.93
			s4.93,2.21,4.93,4.93v2.93c0,0.22,0.18,0.41,0.41,0.41l0,0h1.6c0.22,0,0.41-0.18,0.41-0.41C32.99,28.63,32.81,28.45,32.58,28.45"
			/>
		<path id="Path_3197" d="M24.71,23.48c-0.22,0-0.41,0.18-0.41,0.41l0,0c0,0.68,0.41,1.97,1.97,1.97c0.22,0,0.41-0.18,0.41-0.41
			s-0.18-0.41-0.41-0.41c-1.08,0-1.15-0.96-1.15-1.16C25.12,23.66,24.94,23.48,24.71,23.48"/>
		<path id="Path_3198" d="M31.03,29.7c-0.14-0.16-0.37-0.19-0.54-0.06l0,0c0,0,0.01-0.01,0.01-0.01c0,0-0.31,0.17-1.03,0.08
			c0.61-0.82,0.93-1.82,0.93-2.84v-0.71c0-0.22-0.18-0.41-0.41-0.41s-0.41,0.18-0.41,0.41v0.71c0,2.2-1.78,3.97-3.97,3.97
			s-3.97-1.78-3.97-3.97v-0.75c0-0.22-0.18-0.41-0.41-0.41c-0.22,0-0.41,0.18-0.41,0.41v0.74c0,1.05,0.35,2.07,0.98,2.9
			c-0.75,0.1-1.07-0.07-1.07-0.07c0,0,0.01,0.01,0.01,0.01l0,0c-0.17-0.12-0.4-0.09-0.54,0.06l-0.88,1.01
			c-0.15,0.17-0.13,0.43,0.04,0.57c0.17,0.15,0.43,0.13,0.57-0.04l0,0l0.69-0.79c0.15,0.04,0.31,0.07,0.47,0.08
			c-1.1,1.16-1.72,2.7-1.71,4.29v1.52c0,0.22,0.18,0.41,0.41,0.41c0.22,0,0.41-0.18,0.41-0.41v-1.52c0-1.75,0.85-3.4,2.28-4.41
			c1.8,1.56,4.47,1.56,6.27-0.01c1.44,1.01,2.29,2.66,2.29,4.42v1.52c0,0.22,0.18,0.41,0.41,0.41c0.22,0,0.41-0.18,0.41-0.41v-1.52
			c0-1.63-0.64-3.2-1.78-4.36c0.18-0.01,0.36-0.04,0.53-0.09l0.69,0.79c0.15,0.17,0.4,0.19,0.57,0.04s0.19-0.4,0.04-0.57L31.03,29.7
			z"/>
		<path id="Path_3199" d="M32.32,29.6L32,29.45c-0.2-0.09-0.45,0-0.54,0.2c-0.09,0.2,0,0.45,0.2,0.54l0,0l0.32,0.15
			c0.2,0.09,0.45,0,0.54-0.2C32.61,29.93,32.52,29.69,32.32,29.6"/>
		<path id="Path_3200" d="M19.57,30.27c0.2-0.09,0.29-0.34,0.2-0.54c-0.09-0.2-0.34-0.29-0.54-0.2l0,0l-0.32,0.15
			c-0.2,0.09-0.29,0.34-0.2,0.54c0.09,0.2,0.34,0.29,0.54,0.2L19.57,30.27z"/>
		<path id="Path_3201" d="M15.86,29.9c0.29-0.35,0.52-0.74,0.7-1.15c0.36-0.01,0.7-0.15,0.97-0.39c0.36-0.33,0.53-0.82,0.52-1.46
			c0-0.22-0.19-0.4-0.41-0.4c-0.05,0-0.1,0.01-0.15,0.03l0.32-0.31c0.08-0.08,0.13-0.18,0.13-0.29c0-3.17-2.57-5.74-5.74-5.74
			s-5.74,2.57-5.74,5.74c0,0.11,0.04,0.21,0.11,0.28l0.31,0.32c-0.21-0.09-0.45,0.01-0.53,0.21c-0.02,0.05-0.03,0.1-0.03,0.15
			c-0.01,0.64,0.16,1.13,0.52,1.46c0.25,0.23,0.58,0.36,0.92,0.38c0.18,0.42,0.42,0.81,0.71,1.16c-1.59,1.17-2.52,3.03-2.52,5v1.52
			c0,0.22,0.18,0.41,0.41,0.41c0.22,0,0.41-0.18,0.41-0.41v-1.52c0-1.75,0.84-3.4,2.28-4.41c1.8,1.56,4.47,1.56,6.27-0.01
			c1.44,1.01,2.29,2.66,2.29,4.42v1.52c0,0.22,0.18,0.41,0.41,0.41c0.22,0,0.41-0.18,0.41-0.41v-1.52
			C18.4,32.93,17.46,31.07,15.86,29.9 M17.23,26.91c0.01,0.39-0.08,0.68-0.25,0.84c-0.04,0.04-0.09,0.07-0.14,0.1
			c0.05-0.26,0.09-0.53,0.1-0.8l0.33-0.32C17.24,26.79,17.23,26.85,17.23,26.91 M7.37,27.76c-0.18-0.16-0.26-0.45-0.26-0.85
			c0-0.05-0.01-0.11-0.03-0.16l0.28,0.29c0.01,0.26,0.04,0.52,0.09,0.78C7.42,27.8,7.4,27.78,7.37,27.76 M8.17,26.87
			c0-0.02,0-0.04-0.01-0.07c0,0,0-0.01,0-0.01c0-0.02-0.01-0.05-0.02-0.07c0,0,0-0.01,0-0.01c-0.01-0.02-0.02-0.04-0.03-0.06l0-0.01
			c-0.01-0.02-0.03-0.04-0.05-0.06l0,0l-0.8-0.83c0.09-2.72,2.36-4.85,5.08-4.76c2.59,0.08,4.68,2.16,4.76,4.76l-0.86,0.82l0,0
			c-0.02,0.02-0.04,0.04-0.05,0.06l0,0c-0.04,0.06-0.07,0.14-0.07,0.22c0,0,0,0,0,0c0,0,0,0,0,0.01c0,2.2-1.78,3.97-3.97,3.97
			C9.95,30.85,8.17,29.07,8.17,26.87"/>
		<path id="Path_3202" d="M13.57,26.15c-0.34,0-0.61,0.27-0.61,0.61c0,0.34,0.27,0.61,0.61,0.61c0.34,0,0.61-0.27,0.61-0.61
			c0,0,0,0,0,0C14.18,26.42,13.9,26.15,13.57,26.15"/>
		<path id="Path_3203" d="M11.39,26.76c0-0.34-0.27-0.61-0.61-0.61c-0.34,0-0.61,0.27-0.61,0.61c0,0.34,0.27,0.61,0.61,0.61
			C11.11,27.37,11.39,27.09,11.39,26.76C11.39,26.76,11.39,26.76,11.39,26.76"/>
		<path id="Path_3204" d="M13.13,28.48c-0.21-0.09-0.45,0.01-0.53,0.21c0,0,0,0,0,0c-0.07,0.17-0.24,0.27-0.42,0.25
			c-0.17,0.02-0.33-0.07-0.41-0.22c-0.07-0.21-0.3-0.33-0.51-0.26c-0.21,0.07-0.33,0.3-0.26,0.51c0,0,0,0,0,0.01
			c0.18,0.49,0.66,0.8,1.18,0.78c0.51,0.02,0.97-0.28,1.17-0.75C13.43,28.81,13.34,28.57,13.13,28.48
			C13.13,28.48,13.13,28.48,13.13,28.48"/>
		<path id="Path_3205" d="M12.81,25.86c0.22,0,0.41-0.18,0.41-0.41s-0.18-0.41-0.41-0.41c-1.09,0-1.15-0.96-1.15-1.16
			c0-0.22-0.18-0.41-0.41-0.41c-0.22,0-0.41,0.18-0.41,0.41l0,0C10.84,24.57,11.25,25.86,12.81,25.86"/>
	</g>
</g>
<g id="Layer_2">
</g>
<g id="Layer_4">
</g>
<g id="Layer_5">
</g>
<g id="Layer_6">
</g>
<g id="Layer_7">
</g>
<g id="Layer_8">
</g>
<g id="Layer_9">
</g>
<g id="Layer_10">
</g>
<g id="Layer_11">
</g>
<g id="Layer_12">
</g>
<g id="Layer_13">
</g>
<g id="Layer_14">
</g>
<g id="Layer_15">
</g>
<g id="Layer_16">
</g>
<g id="Layer_17">
</g>
<g id="Layer_18">
</g>
<g id="Layer_19">
</g>
</svg>
