<svg id="Layer_1" data-name="Layer 1" xmlns="http://www.w3.org/2000/svg" viewBox="0 0 36.85 36.85"><title>cardiology</title><g id="Layer_19" data-name="Layer 19"><path d="M19.51,17.89a.55.55,0,0,1-.47-.27l-4.17-6.93L13,13.81a.56.56,0,0,1-.47.26H2.44a.54.54,0,0,1-.54-.55A.55.55,0,0,1,2.44,13h9.77l2.2-3.63a.55.55,0,0,1,.47-.26.54.54,0,0,1,.47.26l4.16,6.93,1.84-3.06a.56.56,0,0,1,.47-.26h4.69a.55.55,0,1,1,0,1.09H22.13L20,17.62a.52.52,0,0,1-.47.27Z"/><path d="M19.73,28.1a.51.51,0,0,1-.41-.2L9.82,16.82a.55.55,0,1,1,.83-.72l9.08,10.6L32.3,12A6.59,6.59,0,0,0,28,1.14,6.53,6.53,0,0,0,23,2.66l-2.94,2.5a.56.56,0,0,1-.71,0L16.58,2.77a6.6,6.6,0,0,0-9.53.93l0,.06H7A6.59,6.59,0,0,0,7.2,12L8,13a.55.55,0,0,1-.06.78.54.54,0,0,1-.77-.06l-.8-.94a7.68,7.68,0,0,1-.2-9.69A.1.1,0,0,1,6.2,3h0A7.68,7.68,0,0,1,17.29,1.94L19.71,4l2.58-2.19A7.57,7.57,0,0,1,28.06,0a7.69,7.69,0,0,1,5.07,12.63l-13,15.23a.56.56,0,0,1-.42.2Z"/><path d="M29.17,31.42H10.07a.55.55,0,0,1-.55-.55.55.55,0,0,1,.55-.55h19.1a.54.54,0,0,1,.55.55A.55.55,0,0,1,29.17,31.42Z"/><path d="M29.17,36.85a.55.55,0,0,1-.54-.55V25.43a.55.55,0,1,1,1.09,0V36.3A.55.55,0,0,1,29.17,36.85Z"/><path d="M10.07,36.85a.55.55,0,0,1-.55-.55V25.43a.55.55,0,0,1,.55-.55.55.55,0,0,1,.55.55V36.3A.55.55,0,0,1,10.07,36.85Z"/><path d="M6.83,34.71a.55.55,0,0,1-.54-.55V27.55a.55.55,0,1,1,1.09,0v6.61A.55.55,0,0,1,6.83,34.71Z"/><path d="M32.52,34.71a.55.55,0,0,1-.55-.55V27.55a.55.55,0,0,1,.55-.55.54.54,0,0,1,.55.55v6.61A.55.55,0,0,1,32.52,34.71Z"/></g></svg>