<?xml version="1.0" encoding="utf-8"?>
<!-- Generator: Adobe Illustrator 24.0.0, SVG Export Plug-In . SVG Version: 6.00 Build 0)  -->
<svg version="1.1" xmlns="http://www.w3.org/2000/svg" xmlns:xlink="http://www.w3.org/1999/xlink" x="0px" y="0px"
	 viewBox="0 0 36.85 36.85" style="enable-background:new 0 0 36.85 36.85;" xml:space="preserve">
<g id="Layer_1">
	<g>
		<path id="Path_214" d="M6.59,24.12c-0.82,0.76-1.48,1.67-1.96,2.68l-0.25,0.53l-4.13,5.21c-0.18,0.24-0.13,0.58,0.1,0.76
			c0.23,0.17,0.56,0.14,0.74-0.09l4.16-5.26c0.03-0.03,0.05-0.07,0.06-0.1l0.28-0.59c0.42-0.89,1-1.68,1.72-2.35
			c0.22-0.2,0.23-0.54,0.03-0.76C7.15,23.93,6.8,23.92,6.59,24.12L6.59,24.12z"/>
		<path id="Path_215" d="M35.05,20.47c-0.74-0.87-2.05-0.98-2.92-0.24l-0.28,0.24c-0.22-1.12-1.31-1.86-2.43-1.64
			c-0.35,0.07-0.67,0.22-0.95,0.45l-0.25,0.21c-0.24-1.12-1.34-1.84-2.46-1.6c-0.33,0.07-0.65,0.22-0.91,0.44l-4.15,3.51
			c-0.22-0.06-0.44-0.09-0.67-0.09H12.6c-1.39,0-2.76,0.33-4,0.96c-0.27,0.12-0.39,0.44-0.27,0.71c0.12,0.27,0.44,0.39,0.71,0.27
			c0.02-0.01,0.03-0.01,0.05-0.02c1.09-0.55,2.29-0.84,3.51-0.84h7.45c0.76,0,1.38,0.62,1.38,1.38c0,0.76-0.62,1.38-1.38,1.38
			c-0.01,0-0.02,0-0.03,0H15.2c-0.3,0.01-0.53,0.25-0.53,0.55c0.01,0.29,0.24,0.52,0.53,0.53H20h0.05c0.64,0,1.26-0.25,1.72-0.7
			c0.07-0.07,0.13-0.14,0.19-0.21h4.56c0.49,0,0.96-0.17,1.33-0.49l4.99-4.23c0.42-0.36,1.04-0.31,1.4,0.1s0.31,1.04-0.1,1.4
			c0,0-0.01,0.01-0.01,0.01l-7.87,6.67c-0.73,0.62-1.63,1.01-2.59,1.13l-0.97,0.12c-0.3,0.04-0.51,0.31-0.47,0.6
			c0.03,0.27,0.26,0.47,0.53,0.47c0.02,0,0.04,0,0.06,0l0.97-0.12c1.16-0.14,2.26-0.62,3.15-1.38l7.87-6.67
			C35.68,22.65,35.79,21.34,35.05,20.47z M25.56,19.16c0.42-0.36,1.04-0.31,1.4,0.1c0.33,0.38,0.32,0.96-0.03,1.33l-4.43,3.75
			c0-0.04,0-0.09,0-0.13c0-0.68-0.29-1.34-0.79-1.8L25.56,19.16z M23.77,24.69l5.41-4.58c0.42-0.35,1.05-0.29,1.4,0.13
			c0.35,0.42,0.3,1.04-0.11,1.39l-3.32,2.83c-0.18,0.15-0.4,0.23-0.63,0.23L23.77,24.69z"/>
		<path id="Path_216" d="M20.39,30.76l-5.53,0.67c-0.14,0.02-0.26,0.08-0.35,0.19l-3.61,4.32c-0.19,0.23-0.15,0.57,0.08,0.76
			c0.23,0.18,0.56,0.15,0.75-0.07l3.47-4.16l5.32-0.64c0.3-0.03,0.51-0.29,0.49-0.59c-0.03-0.3-0.29-0.51-0.59-0.49
			C20.41,30.76,20.4,30.76,20.39,30.76L20.39,30.76z"/>
		<path id="Path_217" d="M16.11,15.55c0,0-3.15-4.91-3.16-4.91C12.42,9.88,12.07,9,11.93,8.08c-0.05-0.29-0.33-0.49-0.62-0.44
			c-0.29,0.05-0.48,0.31-0.44,0.6c0.16,1.08,0.58,2.11,1.2,3.01L15.12,16v0.79c0,0.22,0.08,0.43,0.21,0.6v1.85
			c0,0.87,0.7,1.57,1.57,1.57h1.9c0.87,0,1.57-0.7,1.57-1.57v-1.85c0.14-0.17,0.21-0.38,0.21-0.6V16l3.05-4.75
			c2.24-3.2,1.47-7.61-1.73-9.85c-0.02-0.02-0.05-0.03-0.07-0.05c-2-1.35-4.55-1.61-6.78-0.69c-1.7,0.66-3.04,2-3.71,3.69
			c-0.18,0.46-0.32,0.93-0.42,1.41c-0.05,0.29,0.14,0.57,0.43,0.63c0.29,0.05,0.56-0.13,0.62-0.42c0.08-0.42,0.2-0.82,0.36-1.22
			c0.56-1.41,1.69-2.53,3.11-3.08c1.9-0.79,4.07-0.57,5.78,0.57c2.73,1.87,3.44,5.6,1.57,8.33c-0.02,0.02-0.03,0.05-0.05,0.07
			c0,0.01-3.16,4.91-3.16,4.91c-0.06,0.09-0.09,0.19-0.09,0.29v0.82h-0.13l0.31-5.21h0.51c0.83,0,1.5-0.67,1.5-1.5V9.89
			c0-0.83-0.67-1.5-1.5-1.5c-0.79,0-1.45,0.62-1.5,1.41l-0.03,0.57h-1.63L17.01,9.8c-0.05-0.83-0.75-1.46-1.58-1.42
			c-0.8,0.04-1.42,0.71-1.42,1.5v0.06c0,0.83,0.67,1.5,1.5,1.5h0.51l0.31,5.21h-0.14v-0.82C16.19,15.74,16.16,15.64,16.11,15.55
			L16.11,15.55z M19.78,9.86C19.8,9.63,20,9.46,20.23,9.47c0.22,0.01,0.39,0.2,0.39,0.42v0.06c0,0.23-0.19,0.42-0.42,0.42h-0.45
			L19.78,9.86z M15.51,10.37c-0.23,0-0.42-0.19-0.42-0.42V9.89c0-0.23,0.19-0.42,0.43-0.42c0.22,0,0.4,0.17,0.42,0.39l0.03,0.51
			H15.51L15.51,10.37z M19.3,19.24c0,0.27-0.22,0.49-0.49,0.49h-1.9c-0.27,0-0.49-0.22-0.49-0.49v-1.5h2.89V19.24z M17.11,11.45h1.5
			l-0.31,5.21h-0.89L17.11,11.45z"/>
		<path id="Path_218" d="M27.2,7.77c0,0.3,0.24,0.54,0.54,0.54c0,0,0,0,0,0h1.27c0.3-0.01,0.53-0.25,0.53-0.55
			c-0.01-0.29-0.24-0.52-0.53-0.53h-1.27C27.44,7.23,27.2,7.48,27.2,7.77z"/>
		<path id="Path_219" d="M26.88,4.92c0.06,0,0.13-0.01,0.19-0.03l1.19-0.44c0.28-0.11,0.41-0.42,0.3-0.7
			c-0.11-0.27-0.4-0.4-0.68-0.31l-1.19,0.44c-0.28,0.1-0.42,0.41-0.32,0.69C26.45,4.78,26.66,4.92,26.88,4.92z"/>
		<path id="Path_220" d="M26.69,11.67l1.19,0.44c0.28,0.1,0.59-0.05,0.69-0.33c0.09-0.27-0.04-0.57-0.31-0.68l-1.19-0.44
			c-0.28-0.11-0.59,0.02-0.7,0.3c-0.11,0.28,0.02,0.59,0.3,0.7C26.68,11.67,26.69,11.67,26.69,11.67z"/>
		<path id="Path_221" d="M6.7,8.31h1.27c0.3-0.01,0.53-0.25,0.53-0.55C8.49,7.47,8.26,7.24,7.98,7.23H6.7
			c-0.3,0.01-0.53,0.25-0.53,0.55C6.19,8.07,6.42,8.31,6.7,8.31z"/>
		<path id="Path_222" d="M7.45,4.45l1.19,0.44c0.28,0.1,0.59-0.05,0.69-0.33c0.09-0.27-0.04-0.57-0.31-0.68L7.82,3.44
			c-0.28-0.11-0.59,0.02-0.7,0.3c-0.11,0.28,0.02,0.59,0.3,0.7C7.43,4.44,7.44,4.44,7.45,4.45z"/>
		<path id="Path_223" d="M9.33,10.98c-0.1-0.28-0.41-0.42-0.69-0.32c0,0,0,0,0,0L7.45,11.1c-0.28,0.1-0.43,0.4-0.33,0.69
			c0.1,0.28,0.4,0.43,0.69,0.33c0.01,0,0.02-0.01,0.02-0.01l1.19-0.44C9.3,11.57,9.44,11.26,9.33,10.98z"/>
	</g>
</g>
<g id="Layer_2">
</g>
</svg>
