<?xml version="1.0" encoding="utf-8"?>
<!-- Generator: Adobe Illustrator 24.0.0, SVG Export Plug-In . SVG Version: 6.00 Build 0)  -->
<svg version="1.1" id="Layer_1" xmlns="http://www.w3.org/2000/svg" xmlns:xlink="http://www.w3.org/1999/xlink" x="0px" y="0px"
	 viewBox="0 0 36.85 36.85" style="enable-background:new 0 0 36.85 36.85;" xml:space="preserve">
<path d="M18.4,17.87c-2.6,0-4.73-0.83-6.38-2.48S9.54,11.6,9.54,9s0.83-4.73,2.48-6.38c1.65-1.65,3.78-2.48,6.38-2.48
	c2.6,0,4.74,0.83,6.41,2.48S27.31,6.4,27.31,9c0,2.6-0.84,4.73-2.51,6.38C23.14,17.04,21,17.87,18.4,17.87z M0.93,36.71v-6.13
	c0-1.49,0.39-2.79,1.16-3.93c0.78-1.13,1.77-1.98,2.99-2.56c2.33-1.05,4.58-1.83,6.76-2.36c2.18-0.52,4.36-0.79,6.56-0.79
	c2.23,0,4.42,0.27,6.58,0.81s4.39,1.32,6.69,2.33c1.28,0.54,2.31,1.38,3.09,2.51c0.78,1.13,1.16,2.46,1.16,3.98v6.13L0.93,36.71z"/>
</svg>
