<?xml version="1.0" encoding="utf-8"?>
<!-- Generator: Adobe Illustrator 24.0.0, SVG Export Plug-In . SVG Version: 6.00 Build 0)  -->
<svg version="1.1" id="Layer_1" xmlns="http://www.w3.org/2000/svg" xmlns:xlink="http://www.w3.org/1999/xlink" x="0px" y="0px"
	 viewBox="0 0 32 32" style="enable-background:new 0 0 32 32;" xml:space="preserve">
<g id="Layer_2">
</g>
<g id="Layer_3">
</g>
<g id="Layer_4">
	<g id="Group_62_1_" transform="translate(143)">
		<path id="Path_104_1_" d="M-111.18,11.54l-3.61-9.35c-0.71-1.77-2.69-2.62-4.39-1.98l0,0h-0.07l-17.91,7.43
			c-1.7,0.71-2.55,2.62-1.91,4.32l0.5,1.35h-1.13c-1.84,0-3.33,1.49-3.33,3.33v12.04c0,1.84,1.49,3.33,3.33,3.33h22.66
			c1.84,0,3.33-1.49,3.33-3.33V16.64c0-0.21,0-0.35-0.07-0.57l0.64-0.28C-111.39,15.22-110.54,13.31-111.18,11.54z M-139.71,14.44
			h22.66c1.2,0,2.19,0.92,2.27,2.12h-27.19C-141.9,15.36-140.91,14.44-139.71,14.44z M-134.33,11.26l3.54-1.77l0.71,1.84l-3.54,1.77
			L-134.33,11.26z M-114.72,28.74c0,1.27-0.99,2.27-2.27,2.27h-22.73c-1.27,0-2.27-0.99-2.27-2.27v-6.8h27.26V28.74z M-114.72,20.88
			h-27.26V17.7h27.26V20.88z M-113.51,14.94l-0.57,0.21c-0.57-1.06-1.7-1.77-2.97-1.77h-14.8l2.76-1.35
			c0.28-0.14,0.35-0.42,0.28-0.71l-1.13-2.83c-0.14-0.28-0.42-0.42-0.71-0.28h-0.07l-4.53,2.27c-0.28,0.14-0.35,0.42-0.28,0.71
			l0.85,2.19h-2.83l-0.64-1.7c-0.42-1.2,0.14-2.48,1.27-2.97l17.91-7.43c1.2-0.5,2.55,0.07,3.04,1.27v0.07l3.61,9.35
			C-111.74,13.1-112.31,14.44-113.51,14.94L-113.51,14.94z"/>
		<path id="Path_105_1_" d="M-123.85,29.52c0.99,0.57,2.19,0.57,3.19,0c1.56,0.92,3.47,0.35,4.39-1.13
			c0.92-1.56,0.35-3.47-1.13-4.39c-0.99-0.57-2.19-0.57-3.19,0c-1.56-0.92-3.47-0.42-4.39,1.13
			C-125.9,26.69-125.41,28.6-123.85,29.52L-123.85,29.52z M-119.74,24.71c1.13-0.42,2.34,0.14,2.76,1.27
			c0.42,1.13-0.14,2.34-1.27,2.76c-0.5,0.14-0.99,0.14-1.49,0C-118.75,27.54-118.75,25.91-119.74,24.71L-119.74,24.71z
			 M-120.59,25.34c0.71,0.78,0.71,1.98,0,2.76C-121.3,27.33-121.3,26.12-120.59,25.34L-120.59,25.34z M-122.22,24.64
			c0.21,0,0.5,0.07,0.71,0.14c-0.92,1.2-0.92,2.83,0,4.04c-1.13,0.42-2.34-0.21-2.69-1.27c-0.35-1.06,0.21-2.34,1.27-2.69
			C-122.72,24.64-122.43,24.64-122.22,24.64z"/>
		
			<rect id="Rectangle_43_1_" x="-120.52" y="9.9" transform="matrix(0.9138 -0.4062 0.4062 0.9138 -14.3852 -46.9187)" width="5.59" height="1.06"/>
		
			<rect id="Rectangle_44_1_" x="-124.05" y="8.21" transform="matrix(0.908 -0.419 0.419 0.908 -14.7075 -49.4825)" width="8.07" height="1.06"/>
	</g>
</g>
</svg>
