<svg id="Layer_1" data-name="Layer 1" xmlns="http://www.w3.org/2000/svg" viewBox="0 0 36.85 36.85"><title>pharmacy</title><g id="Layer_13" data-name="Layer 13"><path d="M26.9,16H9.57a.47.47,0,0,1-.48-.48V5.55a.48.48,0,0,1,.48-.48H26.9a.49.49,0,0,1,.48.48v9.93A.48.48,0,0,1,26.9,16ZM10.05,15H26.42V6H10.05Z"/><path d="M13.87,31.78H5.43A.49.49,0,0,1,5,31.3V19.11a.48.48,0,0,1,.48-.48h8.44a.47.47,0,0,1,.48.48V31.3A.48.48,0,0,1,13.87,31.78Zm-8-1h7.48V19.59H5.91Z"/><path d="M31.13,31.78H16.49A.48.48,0,0,1,16,31.3V19.11a.47.47,0,0,1,.48-.48H31.13a.48.48,0,0,1,.48.48V31.3A.49.49,0,0,1,31.13,31.78ZM17,30.82H30.65V19.59H17Z"/><path d="M9.57,13.51H.48A.49.49,0,0,1,0,13V9.71a.49.49,0,0,1,.48-.48H9.57a.49.49,0,0,1,.48.48V13A.49.49,0,0,1,9.57,13.51ZM1,12.55H9.09V10.19H1Z"/><path d="M36.37,13.51H26.9a.48.48,0,0,1-.48-.48V9.71a.48.48,0,0,1,.48-.48h9.47a.49.49,0,0,1,.48.48V13A.49.49,0,0,1,36.37,13.51Zm-9-1h8.51V10.19H27.38Z"/><path d="M33.75,31.78H2.55a.48.48,0,0,1-.48-.48V13a.47.47,0,0,1,.48-.48h7a.48.48,0,0,1,.48.48v2H26.42V13a.47.47,0,0,1,.48-.48h6.85a.48.48,0,0,1,.48.48V31.3A.49.49,0,0,1,33.75,31.78ZM3,30.82H33.27V13.51H27.38v2a.48.48,0,0,1-.48.48H9.57a.47.47,0,0,1-.48-.48v-2H3Z"/><path d="M18.25,13.82a.48.48,0,0,1-.49-.48V7.79a.49.49,0,0,1,1,0v5.55A.48.48,0,0,1,18.25,13.82Z"/><path d="M12.28,27.35a.48.48,0,0,1-.48-.48V23.53a.49.49,0,0,1,.48-.48.48.48,0,0,1,.48.48v3.34A.47.47,0,0,1,12.28,27.35Z"/><path d="M20.36,28.6a.45.45,0,0,1-.36-.16.48.48,0,0,1,.05-.68l6.94-6a.48.48,0,0,1,.68.05.49.49,0,0,1-.05.68l-6.95,6A.45.45,0,0,1,20.36,28.6Z"/><path d="M20.14,25.67a.48.48,0,0,1-.36-.17.49.49,0,0,1,0-.68l3.82-3.24a.48.48,0,0,1,.63.73l-3.83,3.25A.51.51,0,0,1,20.14,25.67Z"/><path d="M23.63,28.94a.5.5,0,0,1-.37-.17.48.48,0,0,1,.06-.68l3.82-3.26a.48.48,0,0,1,.68.05.49.49,0,0,1-.06.68l-3.82,3.27A.51.51,0,0,1,23.63,28.94Z"/><path d="M21,11H15.46a.47.47,0,0,1-.48-.48.48.48,0,0,1,.48-.48H21a.49.49,0,0,1,.48.48A.48.48,0,0,1,21,11Z"/></g></svg>