<?xml version="1.0" encoding="utf-8"?>
<!-- Generator: Adobe Illustrator 24.0.0, SVG Export Plug-In . SVG Version: 6.00 Build 0)  -->
<svg version="1.1" id="Layer_1" xmlns="http://www.w3.org/2000/svg" xmlns:xlink="http://www.w3.org/1999/xlink" x="0px" y="0px"
	 viewBox="0 0 32 32" style="enable-background:new 0 0 32 32;" xml:space="preserve">
<g id="Layer_2">
	<g>
		<g id="Group_41_1_" transform="translate(174)">
			<g id="Group_40_1_">
				<path id="Path_80_1_" d="M-145.15,2.79h-2.97V1.9c0-1.01-0.83-1.9-1.9-1.9c-1.01,0-1.9,0.83-1.9,1.9v0.89h-10.51V1.9
					c0-1.01-0.83-1.9-1.9-1.9c-1.01,0-1.9,0.83-1.9,1.9v0.89c-0.06,0-0.12,0-0.18,0h-2.49c-1.72,0-3.15,1.42-3.15,3.15v10.63
					c0,0.36,0.3,0.65,0.65,0.65s0.65-0.3,0.65-0.65V9.2h22.56c0.36,0,0.65-0.3,0.65-0.65s-0.3-0.65-0.65-0.65l0,0h-22.56V5.82
					c0-1.01,0.83-1.9,1.9-1.9h2.49c0.06,0,0.12,0,0.18,0v0.83c0,1.01,0.83,1.9,1.9,1.9c1.01,0,1.9-0.83,1.9-1.9V3.98h10.51v0.77
					c0,1.01,0.83,1.9,1.9,1.9c1.01,0,1.9-0.83,1.9-1.9V3.98h2.97c1.01,0,1.9,0.83,1.9,1.9v23.75c-0.06,0.59-0.59,1.07-1.19,1.07
					c-0.53-0.06-1.01-0.47-1.07-1.07v-1.6c0-0.36-0.3-0.65-0.65-0.65l0,0h-7.3c-0.36,0-0.65,0.3-0.65,0.65
					c0,0.36,0.3,0.65,0.65,0.65l0,0h6.65v1.01c0,0.42,0.12,0.77,0.3,1.13h-25.17c-0.59,0-1.13-0.53-1.13-1.13l0,0v-1.01h14.01
					c0.36,0,0.65-0.3,0.65-0.65c0-0.36-0.3-0.65-0.65-0.65l0,0h-6.23c2.14-1.84,2.37-5.11,0.53-7.24c-1.84-2.14-5.11-2.37-7.24-0.53
					c-2.14,1.84-2.37,5.11-0.53,7.24c0.18,0.18,0.36,0.36,0.53,0.53h-1.66c-0.36,0-0.65,0.3-0.65,0.65l0,0v1.6
					c0,1.31,1.07,2.37,2.37,2.37h27.25c1.31,0,2.37-1.07,2.37-2.37V5.88C-142,4.22-143.42,2.79-145.15,2.79z M-163.61,4.81
					c0,0.36-0.3,0.65-0.65,0.65s-0.65-0.3-0.65-0.65V1.9c0-0.36,0.3-0.65,0.65-0.65s0.65,0.3,0.65,0.65V4.81z M-149.36,4.81
					c0,0.36-0.3,0.65-0.65,0.65s-0.65-0.3-0.65-0.65l0,0V1.9c0-0.36,0.3-0.65,0.65-0.65s0.65,0.3,0.65,0.65l0,0V4.81z
					 M-172.22,23.57c0-2.14,1.72-3.86,3.86-3.86c2.14,0,3.86,1.72,3.86,3.86s-1.72,3.86-3.86,3.86S-172.22,25.71-172.22,23.57z"/>
			</g>
		</g>
		<g id="Group_43_1_" transform="translate(221.507 13.371)">
			<g id="Group_42_1_">
				<path id="Path_81_1_" d="M-192.23-5.2c-0.24-0.24-0.65-0.24-0.89,0c-0.24,0.24-0.24,0.65,0,0.89s0.65,0.24,0.89,0
					c0.12-0.12,0.18-0.3,0.18-0.42C-192.06-4.96-192.12-5.08-192.23-5.2z"/>
			</g>
		</g>
		<g id="Group_45_1_" transform="translate(203.645 46.127)">
			<g id="Group_44_1_">
				<path id="Path_82_1_" d="M-184.98-18.5c-0.24-0.24-0.65-0.24-0.89,0c-0.24,0.24-0.24,0.65,0,0.89c0.24,0.24,0.65,0.24,0.89,0
					c0.12-0.12,0.18-0.3,0.18-0.42C-184.8-18.27-184.86-18.39-184.98-18.5z"/>
			</g>
		</g>
		<g id="Group_47_1_" transform="translate(193.819 32.005)">
			<g id="Group_46_1_">
				<path id="Path_83_1_" d="M-179.68-12.94c-1.31,0-2.37,1.07-2.37,2.37s1.07,2.37,2.37,2.37c1.31,0,2.37-1.07,2.37-2.37
					C-177.3-11.88-178.37-12.94-179.68-12.94z M-179.68-9.44c-0.59,0-1.13-0.53-1.13-1.13c0-0.59,0.53-1.13,1.13-1.13
					c0.59,0,1.13,0.53,1.13,1.13l0,0C-178.55-9.98-179.02-9.44-179.68-9.44z"/>
			</g>
		</g>
		<g id="Group_49_1_" transform="translate(203.645 32.005)">
			<g id="Group_48_1_">
				<path id="Path_84_1_" d="M-183.67-12.94c-1.31,0-2.37,1.07-2.37,2.37s1.07,2.37,2.37,2.37c1.31,0,2.37-1.07,2.37-2.37
					C-181.3-11.88-182.36-12.94-183.67-12.94z M-183.67-9.44c-0.59,0-1.13-0.53-1.13-1.13c0-0.59,0.53-1.13,1.13-1.13
					c0.59,0,1.13,0.53,1.13,1.13l0,0C-182.54-9.98-183.02-9.44-183.67-9.44z"/>
			</g>
		</g>
		<g id="Group_51_1_" transform="translate(213.471 32.005)">
			<g id="Group_50_1_">
				<path id="Path_85_1_" d="M-187.66-12.94c-1.31,0-2.37,1.07-2.37,2.37s1.07,2.37,2.37,2.37c1.31,0,2.37-1.07,2.37-2.37
					C-185.29-11.88-186.36-12.94-187.66-12.94z M-187.66-9.44c-0.59,0-1.13-0.53-1.13-1.13c0-0.59,0.53-1.13,1.13-1.13
					c0.59,0,1.13,0.53,1.13,1.13l0,0C-186.53-9.98-187.01-9.44-187.66-9.44z"/>
			</g>
		</g>
		<g id="Group_53_1_" transform="translate(183.992 21.056)">
			<g id="Group_52_1_">
				<path id="Path_86_1_" d="M-175.69-8.5c-1.31,0-2.37,1.07-2.37,2.37s1.07,2.37,2.37,2.37c1.31,0,2.37-1.07,2.37-2.37
					C-173.31-7.43-174.38-8.5-175.69-8.5z M-175.69-4.99c-0.59,0-1.13-0.53-1.13-1.13s0.53-1.13,1.13-1.13
					c0.59,0,1.13,0.53,1.13,1.13l0,0C-174.56-5.53-175.03-4.99-175.69-4.99z"/>
			</g>
		</g>
		<g id="Group_55_1_" transform="translate(203.645 21.056)">
			<g id="Group_54_1_">
				<path id="Path_87_1_" d="M-183.67-8.5c-1.31,0-2.37,1.07-2.37,2.37s1.07,2.37,2.37,2.37c1.31,0,2.37-1.07,2.37-2.37
					C-181.3-7.43-182.36-8.5-183.67-8.5z M-183.67-4.99c-0.59,0-1.13-0.53-1.13-1.13s0.53-1.13,1.13-1.13
					c0.59,0,1.13,0.53,1.13,1.13l0,0C-182.54-5.53-183.02-4.99-183.67-4.99z"/>
			</g>
		</g>
		<g id="Group_57_1_" transform="translate(213.471 21.056)">
			<g id="Group_56_1_">
				<path id="Path_88_1_" d="M-187.66-8.5c-1.31,0-2.37,1.07-2.37,2.37s1.07,2.37,2.37,2.37c1.31,0,2.37-1.07,2.37-2.37
					C-185.29-7.43-186.36-8.5-187.66-8.5z M-187.66-4.99c-0.59,0-1.13-0.53-1.13-1.13s0.53-1.13,1.13-1.13
					c0.59,0,1.13,0.53,1.13,1.13l0,0C-186.53-5.53-187.01-4.99-187.66-4.99z"/>
			</g>
		</g>
		<g id="Group_59_1_" transform="translate(193.819 21.056)">
			<g id="Group_58_1_">
				<path id="Path_89_1_" d="M-179.68-8.5c-1.31,0-2.37,1.07-2.37,2.37s1.07,2.37,2.37,2.37c1.31,0,2.37-1.07,2.37-2.37
					C-177.3-7.43-178.37-8.5-179.68-8.5z M-179.68-4.99c-0.59,0-1.13-0.53-1.13-1.13s0.53-1.13,1.13-1.13
					c0.59,0,1.13,0.53,1.13,1.13l0,0C-178.55-5.53-179.02-4.99-179.68-4.99z"/>
			</g>
		</g>
		<g id="Group_61_1_" transform="translate(179.39 36.711)">
			<g id="Group_60_1_">
				<path id="Path_90_1_" d="M-171.5-14.68c-0.24-0.24-0.65-0.24-0.89,0l-2.02,2.02l-0.71-0.71c-0.24-0.24-0.65-0.24-0.89,0
					s-0.24,0.65,0,0.89l0,0l1.13,1.13c0.24,0.24,0.65,0.24,0.89,0l2.49-2.49C-171.26-14.03-171.26-14.44-171.5-14.68z"/>
			</g>
		</g>
	</g>
</g>
<g id="Layer_3">
</g>
<g id="Layer_4">
</g>
</svg>
