<svg id="Layer_1" data-name="Layer 1" xmlns="http://www.w3.org/2000/svg" viewBox="0 0 36.85 36.85"><title>orthopedics</title><g id="Layer_14" data-name="Layer 14"><path d="M31.23,36.63a.39.39,0,0,1-.4-.39c0-.16-.46-16.11-1.91-21.6S17.7.79,17.61.7a.4.4,0,1,1,.52-.6C18.54.45,28.2,8.79,29.7,14.44s1.91,21.12,1.93,21.78a.41.41,0,0,1-.39.41Z"/><path d="M17.41,36.63a.38.38,0,0,1-.36-.23,26.87,26.87,0,0,1-1.94-9.6,35.9,35.9,0,0,1,.3-8.26L5.43,13a.41.41,0,0,1-.16-.54.42.42,0,0,1,.55-.16L16.06,18a.39.39,0,0,1,.19.45s-.63,2.4-.34,8.32a26.7,26.7,0,0,0,1.86,9.3.4.4,0,0,1-.19.53A.38.38,0,0,1,17.41,36.63Z"/><path d="M17.73,14.24a2.6,2.6,0,0,0,.4,1.26,4,4,0,0,0-.24,1.2,3.32,3.32,0,0,0,6.23,1.62l.16,0a2.76,2.76,0,0,0,0-5.52,2.57,2.57,0,0,0-1.32.36,6.71,6.71,0,0,0-.7-1.14,93.2,93.2,0,0,0-8.15-7.91L10.66,7.59c3,2.68,5.69,5.17,7.07,6.65Z"/><path d="M25.9,20.65a2.63,2.63,0,0,0-2.1,1h-.12a3.2,3.2,0,1,0-1.74,5.89l.26,0c0,.18.1.36.14.52.26,1,.46,2.12.66,3.22.32,1.82.56,3.69.78,5.55h3.77c-.06-2-.14-4.05-.32-6.11-.1-1.18-.22-2.36-.42-3.56-.08-.44-.16-.86-.24-1.31a2.66,2.66,0,0,0,1.88-3.26,2.62,2.62,0,0,0-2.55-2Z"/></g></svg>