<svg id="Layer_1" data-name="Layer 1" xmlns="http://www.w3.org/2000/svg" viewBox="0 0 36.85 36.85"><title>icon_package1</title><g id="Layer_21" data-name="Layer 21"><path d="M34.21,0H2.64A2.49,2.49,0,0,0,.8.8,2.49,2.49,0,0,0,0,2.64V34.21a2.49,2.49,0,0,0,.8,1.84,2.49,2.49,0,0,0,1.84.8H34.21a2.74,2.74,0,0,0,2.64-2.64V2.64A2.49,2.49,0,0,0,36.05.8,2.49,2.49,0,0,0,34.21,0ZM12.65,2.13H24.2V15.68l-5.77-2.89-5.78,2.89ZM34.72,34.72H2.13V2.13h8.39v17l7.91-4,7.9,4v-17h8.39Z"/><rect x="8.42" y="25.25" width="9.49" height="3.18"/></g></svg>