<?xml version="1.0" encoding="utf-8"?>
<!-- Generator: Adobe Illustrator 24.0.0, SVG Export Plug-In . SVG Version: 6.00 Build 0)  -->
<svg version="1.1" xmlns="http://www.w3.org/2000/svg" xmlns:xlink="http://www.w3.org/1999/xlink" x="0px" y="0px"
	 viewBox="0 0 30.83 36.85" style="enable-background:new 0 0 30.83 36.85;" xml:space="preserve">
<g id="Layer_1">
	<g>
		<path id="Path_185" d="M15.45,20.56c-4.72-0.15-5.86-4.2-6.1-5.5c-0.45-0.11-0.86-0.36-1.15-0.73c-0.33-0.45-0.48-1.01-0.43-1.57
			c-0.08-0.61,0.11-1.22,0.51-1.68c0.11-0.11,0.24-0.21,0.38-0.29C7.79,9.37,7.35,7.72,7.42,6.05c0.55-3.91,3.7-4.29,4.68-4.31
			c0.45-0.53,1.02-0.95,1.66-1.22c1.2-0.48,2.52-0.56,3.76-0.21c2.44,0.64,4.07,1.86,4.84,3.63c1.1,2.52,0.14,5.42-0.42,6.73
			c0.21,0.07,0.41,0.18,0.57,0.33c0.46,0.46,0.67,1.11,0.58,1.76c0.05,0.56-0.1,1.12-0.43,1.57c-0.29,0.37-0.69,0.62-1.15,0.73
			C21.29,16.36,20.16,20.41,15.45,20.56z M9.54,11.62c-0.19-0.01-0.37,0.06-0.51,0.18c-0.19,0.27-0.27,0.61-0.21,0.94
			c0,0.04,0,0.07,0,0.1c-0.03,0.3,0.05,0.6,0.22,0.85c0.21,0.24,0.52,0.38,0.84,0.4c0.25,0.03,0.44,0.23,0.46,0.48
			c0.02,0.19,0.48,4.8,5.12,4.95c4.61-0.15,5.08-4.75,5.09-4.95c0.02-0.25,0.21-0.45,0.46-0.47c0.32-0.01,0.62-0.16,0.84-0.4
			c0.17-0.25,0.25-0.55,0.22-0.86c0-0.03-0.01-0.07,0-0.1c0.06-0.34-0.03-0.69-0.24-0.96c-0.16-0.12-0.37-0.17-0.57-0.15
			c-0.28,0.05-0.56-0.14-0.61-0.42c-0.02-0.12,0-0.24,0.06-0.34c0.02-0.04,1.94-3.68,0.7-6.51c-0.64-1.46-2.03-2.48-4.14-3.03
			c-1.01-0.29-2.1-0.23-3.08,0.16c-0.56,0.24-1.04,0.62-1.41,1.1c-0.11,0.15-0.28,0.23-0.46,0.21c-0.14-0.01-3.34-0.22-3.85,3.37
			l0,0c0,0-0.15,2.85,1.51,4.58c0.15,0.15,0.19,0.38,0.1,0.58c-0.08,0.2-0.28,0.33-0.5,0.31L9.54,11.62z"/>
		<path id="Path_186" d="M21.16,11.63c-0.28,0-0.51-0.22-0.52-0.5c-0.01-0.14-0.17-3.3-2.53-3.6c-2.18,0.28-4.39-0.36-6.08-1.76
			c-0.67,0.5-2.21,2.03-1.91,5.29c0.01,0.29-0.22,0.53-0.51,0.54c-0.26,0.01-0.49-0.18-0.53-0.44c-0.43-4.78,2.63-6.44,2.76-6.5
			c0.2-0.1,0.44-0.07,0.61,0.09c1.51,1.37,3.54,2.01,5.57,1.76c0.05-0.01,0.1-0.01,0.15-0.01c2.66,0.28,3.47,3.14,3.53,4.61
			c0.01,0.29-0.21,0.53-0.5,0.54L21.16,11.63z"/>
		<path id="Path_187" d="M30.18,36.76H0.75c-0.29,0-0.52-0.23-0.52-0.52v-5.84c0.01-3.84,3.12-6.95,6.97-6.96H8.2
			c0.29,0,0.52,0.23,0.52,0.52c0,0.29-0.23,0.52-0.52,0.52c0,0,0,0,0,0H7.19c-3.26,0-5.91,2.64-5.92,5.91v5.32h28.38v-5.32
			c0-3.26-2.65-5.91-5.91-5.91h-1.08c-0.29,0-0.52-0.23-0.52-0.52c0-0.29,0.23-0.52,0.52-0.52c0,0,0,0,0,0h1.08
			c3.84,0.01,6.95,3.12,6.96,6.96v5.84C30.7,36.52,30.47,36.76,30.18,36.76z"/>
		<path id="Path_188" d="M17.21,36.76c-0.29,0-0.52-0.23-0.52-0.52c0-0.03,0-0.05,0.01-0.08l2.12-14.03
			c0.04-0.29,0.31-0.48,0.6-0.44c0.02,0,0.05,0.01,0.07,0.02l3.66,1.1c0.28,0.08,0.43,0.38,0.35,0.65
			c-0.01,0.03-0.02,0.05-0.03,0.08l-1.45,2.92l0.84,0.95c0.15,0.17,0.17,0.43,0.05,0.62l-5.24,8.48
			C17.56,36.66,17.4,36.76,17.21,36.76z M19.76,22.88l-1.65,10.9l3.7-5.97l-0.82-0.92c-0.14-0.16-0.17-0.39-0.08-0.58l1.33-2.68
			L19.76,22.88z"/>
		<path id="Path_189" d="M13.65,36.76c-0.18,0-0.35-0.09-0.45-0.25l-5.24-8.48c-0.12-0.2-0.1-0.45,0.05-0.62l0.84-0.95L7.4,23.54
			c-0.13-0.26-0.02-0.57,0.24-0.7c0.03-0.01,0.05-0.02,0.08-0.03l3.66-1.1c0.28-0.08,0.57,0.07,0.65,0.35
			c0.01,0.02,0.01,0.05,0.02,0.07l2.12,14.03c0.04,0.29-0.16,0.55-0.44,0.59C13.7,36.76,13.68,36.76,13.65,36.76L13.65,36.76z
			 M9.06,27.81l3.69,5.97l-1.65-10.9l-2.48,0.75l1.33,2.68c0.1,0.19,0.06,0.42-0.08,0.58L9.06,27.81z"/>
		<path id="Path_190" d="M15.47,26.99c-1.13,0-2.26-0.07-3.39-0.21c-0.29-0.03-0.5-0.28-0.48-0.57c0.03-0.29,0.28-0.5,0.57-0.48
			c0.01,0,0.02,0,0.03,0c2.14,0.26,4.31,0.26,6.45,0c0.29-0.04,0.55,0.16,0.59,0.45c0.04,0.29-0.16,0.55-0.45,0.59
			c0,0-0.01,0-0.01,0C17.69,26.92,16.58,26.99,15.47,26.99L15.47,26.99z"/>
		<path id="Path_191" d="M19.34,22.73c-0.17,0-0.32-0.08-0.42-0.21c-0.78-1.05-0.92-3.14-0.93-3.37c-0.02-0.29,0.2-0.54,0.49-0.55
			c0.29-0.01,0.53,0.21,0.55,0.49c0.03,0.55,0.23,2.13,0.73,2.81c0.17,0.23,0.12,0.56-0.11,0.73
			C19.56,22.69,19.45,22.73,19.34,22.73L19.34,22.73z"/>
		<path id="Path_192" d="M11.53,22.73c-0.29,0-0.52-0.24-0.52-0.53c0-0.11,0.04-0.22,0.1-0.31c0.5-0.68,0.7-2.26,0.73-2.81
			c0.02-0.29,0.27-0.51,0.56-0.48c0.28,0.02,0.5,0.26,0.49,0.55c-0.01,0.23-0.16,2.32-0.93,3.37C11.86,22.65,11.7,22.73,11.53,22.73
			L11.53,22.73z"/>
		<path id="Path_193" d="M26.02,29.42c-0.28,0-0.52-0.23-0.52-0.51c-0.1-3.41-1.39-4.48-1.41-4.5c-0.23-0.18-0.27-0.5-0.09-0.73
			c0.17-0.23,0.5-0.27,0.73-0.1c0.07,0.05,1.71,1.32,1.82,5.3c0.01,0.29-0.22,0.53-0.51,0.54L26.02,29.42z"/>
		<path id="Path_194" d="M26.02,32.51c-1.14,0-2.07-0.93-2.07-2.07c0-1.14,0.93-2.07,2.07-2.07c1.14,0,2.07,0.93,2.07,2.07
			C28.09,31.58,27.17,32.51,26.02,32.51C26.02,32.51,26.02,32.51,26.02,32.51z M26.02,29.42c-0.57,0-1.02,0.46-1.02,1.02
			c0,0.57,0.46,1.02,1.02,1.02c0.57,0,1.02-0.46,1.02-1.02c0,0,0,0,0,0C27.05,29.87,26.59,29.42,26.02,29.42L26.02,29.42
			L26.02,29.42z"/>
		<path id="Path_195" d="M4.51,29.42c-0.28,0-0.5-0.21-0.52-0.49c-0.29-4.02,1.93-5.3,2.02-5.36c0.25-0.14,0.57-0.05,0.71,0.2
			c0.14,0.25,0.05,0.57-0.2,0.71c-0.08,0.05-1.73,1.06-1.49,4.37c0.02,0.29-0.2,0.54-0.49,0.56c0,0,0,0,0,0L4.51,29.42z"/>
		<path id="Path_196" d="M3.45,33.61c-0.16,0-0.32-0.08-0.42-0.21c-0.26-0.34-0.44-0.72-0.55-1.13c-0.51-1.65,0.41-3.4,2.06-3.92
			c0.76-0.21,1.57-0.11,2.25,0.28c1.21,0.7,1.86,2.08,1.63,3.46c-0.05,0.29-0.32,0.48-0.6,0.43s-0.48-0.32-0.43-0.6
			c0.16-0.95-0.29-1.89-1.11-2.38c-0.44-0.25-0.96-0.32-1.46-0.18C3.73,29.73,3.13,30.9,3.48,32c0.08,0.28,0.2,0.54,0.38,0.77
			c0.18,0.23,0.13,0.56-0.1,0.73C3.67,33.57,3.56,33.61,3.45,33.61L3.45,33.61z"/>
		<path id="Path_197" d="M7.91,32.54c-0.02,0-0.04,0-0.06,0l-0.59-0.07c-0.29-0.04-0.49-0.3-0.46-0.58
			c0.04-0.29,0.29-0.49,0.58-0.46l0.59,0.07c0.29,0.03,0.49,0.3,0.46,0.58C8.4,32.34,8.17,32.54,7.91,32.54L7.91,32.54z"/>
		<path id="Path_198" d="M3.45,33.62c-0.29,0-0.52-0.23-0.52-0.52c0-0.22,0.14-0.42,0.34-0.49l0.63-0.23
			c0.27-0.1,0.57,0.04,0.67,0.31c0.1,0.27-0.04,0.57-0.31,0.67l-0.63,0.23C3.57,33.6,3.51,33.62,3.45,33.62z"/>
	</g>
</g>
<g id="Layer_2">
</g>
</svg>
