<?xml version="1.0" encoding="utf-8"?>
<!-- Generator: Adobe Illustrator 24.0.0, SVG Export Plug-In . SVG Version: 6.00 Build 0)  -->
<svg version="1.1" id="Layer_1" xmlns="http://www.w3.org/2000/svg" xmlns:xlink="http://www.w3.org/1999/xlink" x="0px" y="0px"
	 viewBox="0 0 36.85 36.85" style="enable-background:new 0 0 36.85 36.85;" xml:space="preserve">
<g id="Layer_2">
</g>
<g id="Layer_3">
	<g id="Group_177" transform="translate(-0.002 0)">
		<rect id="Rectangle_99" x="30.78" y="28.24" style="fill:#ED66B2;" width="4.28" height="4.28"/>
		<rect id="Rectangle_100" x="30.78" y="18.41" style="fill:#ED66B2;" width="4.28" height="4.28"/>
		<rect id="Rectangle_101" x="21.84" y="13.8" style="fill:#ED66B2;" width="4.28" height="4.27"/>
		<rect id="Rectangle_102" x="21.84" y="5.86" style="fill:#ED66B2;" width="4.28" height="4.28"/>
		<rect id="Rectangle_103" x="12.22" y="13.8" style="fill:#ED66B2;" width="4.28" height="4.27"/>
		<rect id="Rectangle_104" x="12.22" y="5.86" style="fill:#ED66B2;" width="4.28" height="4.28"/>
		<rect id="Rectangle_105" x="3.29" y="28.24" style="fill:#ED66B2;" width="4.28" height="4.28"/>
		<rect id="Rectangle_106" x="3.29" y="18.41" style="fill:#ED66B2;" width="4.28" height="4.28"/>
		<g id="Group_176" transform="translate(0 0)">
			<g>
				<defs>
					<rect id="SVGID_1_" x="0.06" y="3.09" width="36.74" height="30.66"/>
				</defs>
				<clipPath id="SVGID_2_">
					<use xlink:href="#SVGID_1_"  style="overflow:visible;"/>
				</clipPath>
				<g id="Group_175" style="clip-path:url(#SVGID_2_);">
					<path id="Path_158" d="M34.61,22.54h-4.87c-0.16,0-0.3-0.13-0.3-0.3v-4.87c0-0.16,0.13-0.3,0.3-0.3h4.87
						c0.16,0,0.3,0.13,0.3,0.3v4.87C34.91,22.4,34.78,22.54,34.61,22.54 M34.32,17.66h-4.28v4.28h4.28V17.66z"/>
					<path id="Path_159" d="M34.31,27.49h-4.28v4.28h4.28V27.49z M34.91,27.2v4.87c0,0.16-0.13,0.3-0.3,0.3h-4.87
						c-0.16,0-0.3-0.13-0.3-0.3V27.2c0-0.16,0.13-0.3,0.3-0.3h4.87C34.78,26.9,34.91,27.04,34.91,27.2"/>
					<path id="Path_160" d="M27.11,17.63v-0.27c0-0.17,0.14-0.3,0.31-0.29c0.16,0,0.29,0.13,0.29,0.29v8.61c0,0.17-0.13,0.3-0.3,0.3
						c-0.17,0-0.3-0.13-0.3-0.3l0,0V17.63z"/>
					<path id="Path_161" d="M27.11,27.2c0-0.17,0.13-0.3,0.3-0.3c0.17,0,0.3,0.13,0.3,0.3v4.87c0,0.17-0.13,0.3-0.3,0.3
						c-0.17,0-0.3-0.13-0.3-0.3V27.2z"/>
					<path id="Path_162" d="M23.91,27.87c0.16,0,0.3,0.13,0.3,0.3v4.99h-0.59v-4.99C23.62,28,23.75,27.87,23.91,27.87
						C23.91,27.87,23.91,27.87,23.91,27.87"/>
					<path id="Path_163" d="M22.16,28.17c0-0.16,0.13-0.3,0.29-0.3c0,0,0,0,0,0c0.17,0,0.3,0.13,0.3,0.3v4.99h-0.59V28.17z"/>
					<path id="Path_164" d="M22.75,33.16h1.47v0.3c0,0.16-0.13,0.29-0.3,0.29c0,0,0,0,0,0h-1.47c-0.16,0-0.29-0.12-0.29-0.28
						c0,0,0-0.01,0-0.01v-0.3H22.75z"/>
					<path id="Path_165" d="M22.45,33.75h-8.04c0.16,0,0.29-0.12,0.29-0.28c0,0,0-0.01,0-0.01v-0.3h7.46v0.3
						C22.15,33.62,22.28,33.75,22.45,33.75C22.44,33.75,22.44,33.75,22.45,33.75"/>
					<path id="Path_166" d="M21.09,9.39h4.28V5.11h-4.28V9.39z M20.5,9.69V4.81c0-0.16,0.14-0.29,0.3-0.29h4.87
						c0.16,0,0.3,0.13,0.3,0.29v4.88c0,0.16-0.13,0.29-0.3,0.29c0,0,0,0,0,0H20.8C20.64,9.99,20.51,9.86,20.5,9.69
						C20.5,9.7,20.5,9.7,20.5,9.69"/>
					<path id="Path_167" d="M20.5,12.76c0-0.16,0.13-0.3,0.3-0.3h4.87c0.16,0,0.3,0.13,0.3,0.3v4.87c0,0.16-0.13,0.3-0.3,0.3H20.8
						c-0.12,0-0.23-0.07-0.28-0.18c-0.01-0.04-0.02-0.08-0.02-0.12V12.76z M21.1,17.33h4.28v-4.27H21.1V17.33z"/>
					<path id="Path_168" d="M21.68,20.51h-1.9c-0.16,0-0.3-0.13-0.3-0.29c0,0,0,0,0,0v-1.91h-2.11v1.91c0,0.16-0.13,0.29-0.29,0.29
						c0,0,0,0-0.01,0h-1.9v2.11h1.9c0.16,0,0.3,0.13,0.3,0.3v1.9h2.11v-1.9c0-0.16,0.13-0.3,0.3-0.3h1.9L21.68,20.51z M14.59,22.93
						v-2.71c0-0.16,0.13-0.3,0.29-0.3c0,0,0,0,0,0h1.91v-1.91c0-0.08,0.03-0.15,0.08-0.2c0.05-0.06,0.13-0.09,0.21-0.09h2.7
						c0.08,0,0.16,0.03,0.21,0.09c0.06,0.05,0.09,0.12,0.09,0.2v1.91h1.9c0.16,0,0.3,0.13,0.3,0.3v2.71c0,0.16-0.13,0.29-0.3,0.29
						c0,0,0,0,0,0h-1.9v1.91c0,0.16-0.13,0.29-0.29,0.29c0,0,0,0-0.01,0h-2.71c-0.16,0-0.29-0.12-0.29-0.28c0,0,0-0.01,0-0.01v-1.91
						h-1.91C14.72,23.22,14.59,23.1,14.59,22.93C14.58,22.93,14.58,22.93,14.59,22.93"/>
					<path id="Path_169" d="M14.41,27.87c0.16,0,0.29,0.13,0.29,0.3c0,0,0,0,0,0v4.99h-0.59v-4.99C14.11,28,14.24,27.87,14.41,27.87
						"/>
					<path id="Path_170" d="M12.94,27.87c0.16,0,0.3,0.13,0.3,0.3v4.99h-0.6v-4.99C12.64,28,12.78,27.87,12.94,27.87"/>
					<path id="Path_171" d="M12.94,33.75c-0.16,0-0.3-0.13-0.3-0.29c0,0,0,0,0,0v-0.3h2.05v0.3c0,0.16-0.12,0.29-0.28,0.29
						c0,0-0.01,0-0.01,0H12.94z"/>
					<path id="Path_172" d="M11.48,9.39h4.28V5.11h-4.28V9.39z M16.06,9.98h-4.88c-0.16,0-0.29-0.12-0.29-0.28c0,0,0-0.01,0-0.01
						V4.81c0-0.16,0.13-0.29,0.29-0.29h4.88c0.16,0,0.29,0.13,0.29,0.29v4.88C16.35,9.85,16.22,9.98,16.06,9.98L16.06,9.98"/>
					<path id="Path_173" d="M15.76,13.06h-4.28v4.27h4.28V13.06z M11.18,12.46h4.88c0.16,0,0.29,0.14,0.29,0.3v4.87
						c0,0.04-0.01,0.08-0.02,0.12c-0.05,0.11-0.15,0.18-0.27,0.18h-4.88c-0.16,0-0.29-0.13-0.29-0.3c0,0,0,0,0,0v-4.87
						C10.88,12.59,11.01,12.46,11.18,12.46C11.18,12.46,11.18,12.46,11.18,12.46"/>
					<path id="Path_174" d="M10.69,26.9h15.47v-0.64H10.69V26.9z M26.75,25.97v1.23c0,0.16-0.13,0.29-0.29,0.29c0,0,0,0-0.01,0H10.4
						c-0.16,0-0.3-0.13-0.3-0.29c0,0,0,0,0-0.01v-1.23c0-0.16,0.13-0.3,0.3-0.3h16.05C26.62,25.67,26.75,25.8,26.75,25.97"/>
					<path id="Path_175" d="M9.15,17.36c0-0.16,0.13-0.29,0.29-0.29c0.16,0,0.3,0.13,0.3,0.29v8.61c0,0.17-0.13,0.3-0.3,0.3
						c-0.16,0-0.29-0.13-0.29-0.3c0,0,0,0,0,0V17.36z"/>
					<path id="Path_176" d="M9.15,27.2c0-0.16,0.13-0.3,0.29-0.3c0,0,0,0,0,0c0.17,0,0.3,0.13,0.3,0.3v4.87c0,0.17-0.13,0.3-0.3,0.3
						c-0.16,0-0.29-0.13-0.29-0.3c0,0,0,0,0,0V27.2z"/>
					<path id="Path_177" d="M6.82,17.66H2.54v4.28h4.28V17.66z M2.24,17.07h4.88c0.16,0,0.29,0.13,0.29,0.29v4.88
						c0,0.16-0.12,0.29-0.28,0.29c0,0-0.01,0-0.01,0H2.24c-0.16,0-0.29-0.12-0.29-0.28c0,0,0-0.01,0-0.01v-4.88
						C1.95,17.2,2.08,17.07,2.24,17.07"/>
					<path id="Path_178" d="M2.54,31.78h4.28v-4.28H2.54V31.78z M1.95,27.2c0-0.16,0.13-0.3,0.29-0.3c0,0,0,0,0,0h4.88
						c0.16,0,0.29,0.13,0.29,0.29c0,0,0,0,0,0.01v4.87c0,0.16-0.13,0.3-0.29,0.3c0,0,0,0-0.01,0H2.24c-0.16,0-0.29-0.13-0.29-0.3
						c0,0,0,0,0,0V27.2z"/>
					<path id="Path_179" d="M9.15,15.91V3.39c0-0.16,0.13-0.3,0.29-0.3c0,0,0,0,0,0h17.97c0.16,0,0.3,0.13,0.3,0.3v12.52h8.79
						c0.16,0,0.3,0.13,0.3,0.3v17.25c0,0.16-0.13,0.29-0.3,0.29c0,0,0,0,0,0H23.91c0.16,0,0.3-0.13,0.3-0.29c0,0,0,0,0,0v-0.3H36.2
						V16.5h-8.79c-0.16,0-0.3-0.13-0.3-0.29c0,0,0,0,0-0.01V3.68H9.74v12.53c0,0.16-0.13,0.29-0.3,0.29c0,0,0,0,0,0H0.66v16.66
						h11.99v0.3c0,0.16,0.13,0.29,0.3,0.29c0,0,0,0,0,0H0.36c-0.16,0-0.3-0.13-0.3-0.29c0,0,0,0,0-0.01V16.21
						c0-0.16,0.13-0.3,0.3-0.3L9.15,15.91z"/>
				</g>
			</g>
		</g>
	</g>
</g>
<g id="Layer_4">
</g>
</svg>
