<?xml version="1.0" encoding="utf-8"?>
<!-- Generator: Adobe Illustrator 24.0.0, SVG Export Plug-In . SVG Version: 6.00 Build 0)  -->
<svg version="1.1" id="Layer_1" xmlns="http://www.w3.org/2000/svg" xmlns:xlink="http://www.w3.org/1999/xlink" x="0px" y="0px"
	 viewBox="0 0 36.85 36.85" style="enable-background:new 0 0 36.85 36.85;" xml:space="preserve">
<g id="Layer_2">
</g>
<g id="Layer_3">
</g>
<g id="Layer_4">
	<g id="Group_179" transform="translate(0 0)">
		<g>
			<defs>
				<rect id="SVGID_3_" x="4.79" y="3.09" width="24.2" height="30.68"/>
			</defs>
			<clipPath id="SVGID_2_">
				<use xlink:href="#SVGID_3_"  style="overflow:visible;"/>
			</clipPath>
			<g id="Group_178" transform="translate(0 0.001)" style="clip-path:url(#SVGID_2_);">
				<path id="Path_180" style="fill:#BC7FCD;" d="M7.09,33.76h21.89l-0.4-1.66c-0.21-0.84-0.97-1.53-1.68-1.53H9.18
					c-0.72,0-1.47,0.69-1.68,1.53L7.09,33.76z"/>
				<path id="Path_181" style="fill:#BC7FCD;" d="M16.54,18.47L16.54,18.47c-0.06,0-0.12-0.02-0.16-0.07l-2.75-2.75
					c-0.09-0.09-0.09-0.23,0-0.32c0,0,0,0,0,0l9.45-9.45c0.09-0.09,0.23-0.09,0.32,0l2.75,2.75c0.09,0.09,0.09,0.23,0,0.32
					c0,0,0,0,0,0L16.7,18.4C16.66,18.45,16.6,18.47,16.54,18.47"/>
				<path id="Path_182" d="M16.79,29.58c-0.06,0-0.12-0.02-0.16-0.07l-3.46-3.46c-0.09-0.09-0.09-0.23,0-0.32
					c0.09-0.09,0.23-0.09,0.32,0l3.3,3.3l4.48-4.48v-8.05l-2.12-2.12c-0.09-0.09-0.09-0.23,0-0.32s0.23-0.09,0.32,0l2.19,2.19
					c0.04,0.04,0.07,0.1,0.07,0.16v8.23c0,0.06-0.02,0.12-0.07,0.16l-4.71,4.71C16.9,29.56,16.85,29.58,16.79,29.58"/>
				<path id="Path_183" d="M21.27,30.16c-0.12,0-0.23-0.1-0.23-0.23c0-0.06,0.02-0.12,0.07-0.16l3.74-3.74V15.03l-3.17-3.17
					c-0.08-0.09-0.08-0.23,0.01-0.32c0.09-0.08,0.22-0.08,0.31,0l3.24,3.24c0.04,0.04,0.07,0.1,0.07,0.16v11.19
					c0,0.06-0.02,0.12-0.07,0.16l-3.8,3.8C21.39,30.13,21.33,30.16,21.27,30.16"/>
				<path id="Path_184" d="M12.3,30.16c-0.06,0-0.12-0.02-0.16-0.07l-4.04-4.03c-0.09-0.09-0.09-0.23,0-0.32s0.23-0.09,0.32,0
					l4.04,4.03c0.09,0.09,0.09,0.23,0,0.32C12.42,30.13,12.36,30.16,12.3,30.16"/>
				<path id="Path_185" d="M27.73,33.45H5.92c-0.12,0-0.23-0.1-0.23-0.23c0-0.02,0-0.04,0.01-0.06l0.47-1.76
					c0.26-0.95,1.17-1.7,2.07-1.7h17.18c0.9,0,1.8,0.75,2.06,1.7l0.47,1.76c0.03,0.12-0.04,0.25-0.16,0.28
					C27.77,33.45,27.75,33.45,27.73,33.45 M6.21,33h21.22l-0.39-1.48c-0.21-0.75-0.94-1.36-1.63-1.36H8.24
					c-0.69,0-1.42,0.61-1.63,1.37L6.21,33z"/>
				<path id="Path_186" d="M25.01,7.49c-0.06,0-0.12-0.02-0.16-0.07c-0.09-0.09-0.09-0.23,0-0.32l2.31-2.31l-1.17-1.17l-2.31,2.31
					c-0.09,0.09-0.23,0.09-0.32,0c-0.09-0.09-0.09-0.23,0-0.32l2.47-2.47c0.09-0.09,0.23-0.09,0.32,0l1.49,1.49
					c0.09,0.09,0.09,0.23,0,0.32c0,0,0,0,0,0l-2.47,2.47C25.12,7.47,25.07,7.49,25.01,7.49"/>
				<path id="Path_187" d="M13.9,18.6c-0.06,0-0.12-0.02-0.16-0.07l-1.49-1.49c-0.09-0.09-0.09-0.23,0-0.32c0,0,0,0,0,0l0.64-0.64
					c0.09-0.09,0.23-0.09,0.32,0c0.09,0.09,0.09,0.23,0,0.32l0,0l-0.48,0.48l1.17,1.17l0.48-0.48c0.09-0.09,0.23-0.09,0.32,0
					c0.09,0.09,0.09,0.23,0,0.32l-0.64,0.64C14.01,18.58,13.96,18.6,13.9,18.6"/>
				<path id="Path_188" d="M15.66,18.1L15.66,18.1c-0.06,0-0.12-0.02-0.16-0.07l-2.75-2.75c-0.09-0.09-0.09-0.23,0-0.32c0,0,0,0,0,0
					l9.45-9.45c0.09-0.09,0.23-0.09,0.32,0c0,0,0,0,0,0l2.75,2.75c0.09,0.09,0.09,0.23,0,0.32c0,0,0,0,0,0l-9.45,9.45
					C15.78,18.07,15.72,18.1,15.66,18.1 M13.23,15.12l2.43,2.43l9.13-9.13l-2.43-2.43L13.23,15.12z"/>
				<path id="Path_189" d="M14,25.33H5.01c-0.12,0-0.23-0.1-0.23-0.23v-0.85c0-0.12,0.1-0.23,0.23-0.23H14
					c0.12,0,0.23,0.1,0.23,0.23v0.85C14.22,25.23,14.12,25.33,14,25.33 M5.24,24.88h8.53v-0.39H5.24V24.88z"/>
				<path id="Path_190" d="M16.83,32.86c-0.68,0-1.23-0.55-1.23-1.23c0-0.68,0.55-1.23,1.23-1.23s1.23,0.55,1.23,1.23c0,0,0,0,0,0
					C18.06,32.31,17.51,32.86,16.83,32.86 M16.83,30.85c-0.43,0-0.78,0.35-0.78,0.78s0.35,0.78,0.78,0.78
					c0.43,0,0.78-0.35,0.78-0.78c0,0,0,0,0,0C17.6,31.2,17.26,30.85,16.83,30.85"/>
				<path id="Path_191" d="M18.8,13.45c-0.85,0-1.55-0.69-1.55-1.55c0-0.85,0.69-1.55,1.55-1.55c0.85,0,1.55,0.69,1.55,1.54
					C20.35,12.76,19.66,13.45,18.8,13.45 M18.8,10.81c-0.6,0-1.09,0.49-1.09,1.1c0,0.6,0.49,1.09,1.1,1.09
					c0.6,0,1.09-0.49,1.09-1.09C19.9,11.3,19.41,10.81,18.8,10.81"/>
			</g>
		</g>
	</g>
</g>
</svg>
