<svg id="Layer_1" data-name="Layer 1" xmlns="http://www.w3.org/2000/svg" viewBox="0 0 36.85 36.85"><title>gastrointestinal</title><g id="Layer_6" data-name="Layer 6"><path d="M1.1,36.85H1a.55.55,0,0,1-.47-.62,43.86,43.86,0,0,1,2.27-9.16c1.71-4.16,3.68-4.81,5.38-4.9a6.82,6.82,0,0,1,5.3,2.24l.1.1c.72.66,1.33.94,1.82.81.79-.2,1.58-1.44,2.35-3.71,1.25-3.62-.09-4.72-1.07-5.53l-.44-.38-.43-.42A22.34,22.34,0,0,1,12,10.57,15.09,15.09,0,0,1,10.08.44.53.53,0,0,1,10.72,0a.55.55,0,0,1,.43.64A14.26,14.26,0,0,0,12.88,10a21.51,21.51,0,0,0,3.71,4.5l.45.43a4.77,4.77,0,0,0,.37.32c1,.84,2.9,2.39,1.4,6.73-.93,2.74-1.9,4.1-3.11,4.41a3.09,3.09,0,0,1-2.84-1.08l-.11-.11a5.77,5.77,0,0,0-4.48-1.93c-1.43.08-2.95.64-4.42,4.23a42.89,42.89,0,0,0-2.21,8.88A.54.54,0,0,1,1.1,36.85Z"/><path d="M5.28,36.85H5.22a.55.55,0,0,1-.48-.61s.2-1.66.63-4c.4-2.1,1-4.36,2.73-4.62s2.52.9,3.85,2.77c.23.34.49.7.77,1.08,3.43,4.61,8.29,5.06,14.45,1.32,9.39-6.94,8.55-16.13,7.22-21-.87-3.16-2.5-5.37-4.59-6.22A5,5,0,0,0,25.27,6a14.44,14.44,0,0,0-3.15,2.79C21,10.05,20,11.13,18.77,11.15a2.76,2.76,0,0,1-2-1C13.13,6.51,14.13.7,14.17.45A.55.55,0,0,1,14.81,0a.54.54,0,0,1,.44.63c0,.06-.94,5.51,2.31,8.79a1.76,1.76,0,0,0,1.16.63h0c.76,0,1.6-.93,2.58-2a15.25,15.25,0,0,1,3.39-3,6.14,6.14,0,0,1,5.5-.47c2.41,1,4.27,3.45,5.23,7,1.41,5.13,2.3,14.84-7.64,22.18l0,0c-8.39,5.1-13.29,2-15.92-1.59-.29-.39-.55-.76-.79-1.09-1.32-1.88-1.79-2.46-2.8-2.33S6.8,30.64,6.45,32.5c-.43,2.25-.62,3.85-.63,3.87A.53.53,0,0,1,5.28,36.85Z"/><path d="M16.3,31.88a7,7,0,0,0,2.84,1.44,5.54,5.54,0,0,0,1.94.14,11.21,11.21,0,0,0,6.84-2.92c3.47-2.93,4.62-5.8,4.94-7.25s-2.67-1.06-5.65-.93-4-1.86-5.64-1.28-1.42,4-2.76,5.52a5.77,5.77,0,0,1-3.74,1.75.88.88,0,0,0-.69,1.28A6.3,6.3,0,0,0,16.3,31.88Z"/><path d="M32.48,17.63h-.12A.54.54,0,0,1,32,17a9.15,9.15,0,0,0-1.34-5.8A6.34,6.34,0,0,0,28,8.52a.54.54,0,0,1-.31-.7.53.53,0,0,1,.69-.32,7.11,7.11,0,0,1,3.15,3.09l0,0C33.64,14.39,33,17.1,33,17.21A.54.54,0,0,1,32.48,17.63Z"/></g></svg>