<?xml version="1.0" encoding="utf-8"?>
<!-- Generator: Adobe Illustrator 24.0.0, SVG Export Plug-In . SVG Version: 6.00 Build 0)  -->
<svg version="1.1" id="Layer_1" xmlns="http://www.w3.org/2000/svg" xmlns:xlink="http://www.w3.org/1999/xlink" x="0px" y="0px"
	 viewBox="0 0 36.85 36.85" style="enable-background:new 0 0 36.85 36.85;" xml:space="preserve">
<g id="Layer_20">
</g>
<g id="Layer_3">
</g>
<g id="Layer_2">
</g>
<g id="Layer_4">
</g>
<g id="Layer_5">
</g>
<g id="Layer_6">
</g>
<g id="Layer_7">
</g>
<g id="Layer_8">
</g>
<g id="Layer_9">
</g>
<g id="Layer_10">
</g>
<g id="Layer_11">
</g>
<g id="Layer_12">
</g>
<g id="Layer_13">
</g>
<g id="Layer_14">
	<g id="Group_512">
		<path id="Path_3226" d="M16.7,18.64l0.17-0.71l-0.69-0.23c-2.17-0.74-7.03-3.7-9.88-5.5l-1.16,1.16c2.61,1.65,7.24,4.49,9.86,5.59
			c-0.9,4.66-0.52,12.21,1.58,17.77h1.7C15.74,30.61,15.81,22.42,16.7,18.64z M17.65,14.38c0.02,0.44,0.16,0.87,0.4,1.24
			c-0.15,0.37-0.22,0.77-0.23,1.18c-0.01,1.82,1.46,3.3,3.28,3.3c1.2,0,2.3-0.64,2.89-1.69c0.05,0,0.1,0.02,0.15,0.02
			c1.5,0,2.72-1.22,2.72-2.72s-1.22-2.72-2.72-2.72c-0.46,0-0.91,0.12-1.31,0.35c-0.19-0.4-0.42-0.77-0.7-1.12
			c-1.16-1.49-4.58-4.69-8.06-7.81l-3.4,3.4C13.62,10.47,16.28,12.93,17.65,14.38L17.65,14.38z M30.53,16.9
			c-0.69-6.48-8.44-13.67-12.17-16.77l-1.14,1.14c3.52,2.94,11.09,9.89,11.72,15.8c0.71,6.69,1.07,16.53,1.17,19.66h1.6
			C31.62,33.64,31.26,23.68,30.53,16.9L30.53,16.9z M25.72,20.72c-0.81,0-1.57,0.38-2.06,1.02c-0.04-0.01-0.08,0-0.11-0.01
			c-1.47-0.96-3.43-0.54-4.39,0.92s-0.54,3.43,0.92,4.39c0.52,0.34,1.12,0.51,1.73,0.51c0.09,0,0.18-0.02,0.27-0.03
			c0.05,0.17,0.1,0.35,0.14,0.52c0.25,1.02,0.46,2.1,0.65,3.18c0.31,1.8,0.56,3.66,0.77,5.49h3.73c-0.05-2.01-0.14-4.01-0.31-6.03
			c-0.1-1.16-0.22-2.33-0.41-3.52c-0.08-0.43-0.15-0.86-0.24-1.3c1.4-0.37,2.23-1.81,1.86-3.21C27.95,21.52,26.91,20.72,25.72,20.72
			L25.72,20.72z"/>
	</g>
</g>
<g id="Layer_15">
</g>
<g id="Layer_16">
</g>
<g id="Layer_17">
</g>
<g id="Layer_18">
</g>
<g id="Layer_19">
</g>
</svg>
