<?xml version="1.0" encoding="utf-8"?>
<!-- Generator: Adobe Illustrator 24.0.0, SVG Export Plug-In . SVG Version: 6.00 Build 0)  -->
<svg version="1.1" id="Layer_1" xmlns="http://www.w3.org/2000/svg" xmlns:xlink="http://www.w3.org/1999/xlink" x="0px" y="0px"
	 viewBox="0 0 32 32" style="enable-background:new 0 0 32 32;" xml:space="preserve">
<g id="Layer_2">
</g>
<g id="Layer_3">
</g>
<g id="Layer_4">
</g>
<g id="Layer_5">
	<g id="Group_38" transform="translate(0 0)">
		<path id="Path_78" d="M29.25,19.21c-0.26-0.64-0.98-0.95-1.62-0.69c-0.64,0.26-0.95,0.98-0.69,1.62l1.47,3.63l-4.36-1.92
			c-0.32-0.14-0.67-0.14-0.99-0.01c-1.5,0.64-3.11,0.96-4.74,0.96c-6.67,0-11.14-5.22-11.14-10.09c0-5.57,5-10.09,11.14-10.09
			s11.14,4.53,11.14,10.09c0,0.48-0.04,0.95-0.11,1.43c-0.1,0.68,0.37,1.31,1.05,1.42c0.68,0.1,1.31-0.37,1.42-1.05
			c0.09-0.59,0.14-1.19,0.14-1.79c-0.01-3.42-1.48-6.67-4.03-8.94c-2.63-2.38-6.06-3.68-9.6-3.65c-3.54-0.03-6.97,1.27-9.6,3.65
			C6.45,5.8,5.03,8.61,4.74,11.64c-2.87,1.83-4.62,4.98-4.66,8.38c0,2.08,0.67,4.1,1.91,5.77l-1.82,4.5
			c-0.26,0.64,0.05,1.36,0.69,1.62c0.31,0.13,0.66,0.12,0.97-0.02l5.25-2.31c1.33,0.49,2.74,0.74,4.15,0.74c0.03,0,0.06,0,0.09,0
			c2.06-0.01,4.08-0.56,5.86-1.59c1.54-0.89,2.84-2.15,3.77-3.67c0.88-0.16,1.75-0.4,2.59-0.72l6.68,2.95
			c0.63,0.28,1.36-0.01,1.64-0.64c0.14-0.31,0.14-0.66,0.02-0.97L29.25,19.21z M11.23,27.83c-0.02,0-0.03,0-0.05,0
			c-1.25,0-2.49-0.25-3.64-0.74c-0.32-0.14-0.68-0.13-0.99,0.01l-2.92,1.29l0.94-2.33c0.17-0.43,0.09-0.92-0.21-1.27
			c-1.15-1.32-1.79-3.01-1.79-4.76c0.02-2.01,0.85-3.92,2.3-5.3c0.5,2.57,1.78,4.93,3.68,6.73c2.45,2.34,5.67,3.7,9.06,3.83
			C15.9,26.93,13.61,27.84,11.23,27.83L11.23,27.83z"/>
		<ellipse id="Ellipse_7" cx="18.23" cy="12.71" rx="1.31" ry="1.12"/>
		<ellipse id="Ellipse_8" cx="23.46" cy="12.71" rx="1.31" ry="1.12"/>
		<ellipse id="Ellipse_9" cx="13.36" cy="12.71" rx="1.31" ry="1.12"/>
	</g>
</g>
</svg>
