<?xml version="1.0" encoding="utf-8"?>
<!-- Generator: Adobe Illustrator 24.0.0, SVG Export Plug-In . SVG Version: 6.00 Build 0)  -->
<svg version="1.1" id="Layer_1" xmlns="http://www.w3.org/2000/svg" xmlns:xlink="http://www.w3.org/1999/xlink" x="0px" y="0px"
	 viewBox="0 0 32 32" style="enable-background:new 0 0 32 32;" xml:space="preserve">
<g id="Layer_2">
</g>
<g id="Layer_3">
	<g>
		<path id="Icon_material-people_1_" d="M21.87,14.58c2.39,0,4.39-1.94,4.39-4.39s-1.94-4.39-4.39-4.39s-4.39,1.94-4.39,4.39
			C17.48,12.58,19.42,14.58,21.87,14.58C21.81,14.58,21.81,14.58,21.87,14.58z M10.19,14.58c2.39,0,4.39-1.94,4.39-4.39
			s-1.94-4.39-4.39-4.39c-2.39,0-4.39,1.94-4.39,4.39C5.87,12.58,7.81,14.58,10.19,14.58L10.19,14.58L10.19,14.58z M10.19,17.48
			C6.77,17.48,0,19.16,0,22.58v3.61h20.32v-3.61C20.39,19.16,13.61,17.48,10.19,17.48L10.19,17.48z M21.87,17.48
			c-0.45,0-0.9,0-1.42,0.06c1.68,1.23,2.84,2.84,2.84,5.03v3.61H32v-3.61C32,19.16,25.23,17.48,21.87,17.48L21.87,17.48z"/>
	</g>
</g>
<g id="Layer_4">
</g>
</svg>
