<?xml version="1.0" encoding="utf-8"?>
<!-- Generator: Adobe Illustrator 24.0.0, SVG Export Plug-In . SVG Version: 6.00 Build 0)  -->
<svg version="1.1" id="Layer_1" xmlns="http://www.w3.org/2000/svg" xmlns:xlink="http://www.w3.org/1999/xlink" x="0px" y="0px"
	 viewBox="0 0 36.85 36.85" style="enable-background:new 0 0 36.85 36.85;" xml:space="preserve">
<g id="Layer_2">
	<g>
		<path id="Path_152_1_" d="M17.8,24.75c-0.15,0-0.28-0.13-0.28-0.28l-0.03-3.62c0-0.13,0.07-0.26,0.19-0.32
			c0.37-0.19,0.76-0.35,1.16-0.49c0.14-0.05,0.29,0.02,0.35,0.16c0.01,0.03,0.02,0.07,0.02,0.1L19.04,24
			c-0.01,0.13-0.08,0.24-0.2,0.3l-0.45,0.21c-0.15,0.07-0.31,0.14-0.46,0.22C17.89,24.74,17.85,24.75,17.8,24.75 M17.88,20.86
			l0.03,3.45c0.11-0.05,0.22-0.1,0.32-0.15l0.42-0.2l0.15-3.5C18.49,20.57,18.18,20.71,17.88,20.86z"/>
		<path id="Path_153_1_" d="M18.51,11.1c-0.37-0.01-0.74-0.09-1.08-0.24c-1.44-0.62-2.1-2.3-1.48-3.73
			c0.46-1.06,1.51-1.73,2.66-1.71h0.04c1.53,0.06,2.74,1.31,2.75,2.84c0,1.17-0.71,2.22-1.81,2.64
			C19.25,11.05,18.88,11.11,18.51,11.1 M18.6,5.81c-1.36,0.01-2.45,1.12-2.44,2.48c0.01,1.36,1.12,2.45,2.48,2.44
			c1.36-0.01,2.45-1.12,2.44-2.48c-0.01-1.34-1.1-2.43-2.44-2.44H18.6z M18.53,10.2c-1.07-0.02-1.92-0.9-1.9-1.97
			c0.02-1.07,0.9-1.92,1.97-1.9h0.03c1.04,0.05,1.85,0.9,1.87,1.93c0,0.8-0.49,1.51-1.23,1.8C19.03,10.16,18.78,10.2,18.53,10.2
			 M18.59,6.52l0,0.19c-0.86-0.02-1.56,0.67-1.58,1.52C17,9.09,17.68,9.8,18.53,9.81c0.86,0.02,1.56-0.67,1.58-1.52
			c0-0.01,0-0.02,0-0.03c-0.02-0.83-0.67-1.51-1.5-1.55L18.59,6.52z"/>
		<path id="Path_154_1_" d="M16.44,19.17c-0.05,0-0.11-0.01-0.16-0.04c-0.07-0.03-0.13-0.06-0.2-0.09l-0.08-0.04
			c-0.56-0.28-1.19-0.59-1.65-1.19c-0.11-0.14-0.19-0.3-0.26-0.46c-0.07-0.17-0.11-0.35-0.12-0.53c0-0.04,0-0.07,0-0.11l0.01-0.1
			c0.05-1.35,1.45-2.15,1.51-2.19l0.21-0.12l0,0.01c0.02-0.01,0.03-0.02,0.05-0.02c0.3-0.14,0.62-0.19,0.95-0.17
			c0.28,0,0.54,0.16,0.67,0.41c0.1,0.27,0.04,0.56-0.15,0.77c-0.2,0.25-0.47,0.45-0.77,0.58c-0.12,0.05-0.25,0.1-0.38,0.13l0,0.03
			l-0.22,0c-0.08,0.01-0.15,0.01-0.23,0.01c-0.49,0.06-0.62,0.33-0.65,0.49c0,0.01,0,0.03,0,0.05c0.01,0.21,0.11,0.4,0.26,0.54
			c0.22,0.23,0.65,0.48,1.28,0.73c0.22,0.09,0.45,0.18,0.69,0.26l0.24,0.09c0.14,0.05,0.21,0.21,0.16,0.35
			c-0.03,0.07-0.08,0.12-0.14,0.15c-0.27,0.12-0.54,0.25-0.8,0.4C16.59,19.15,16.52,19.17,16.44,19.17 M15.59,14.81
			c-0.29,0.19-1.19,0.86-1.23,1.83l-0.01,0.04v0.04c0,0.02,0,0.05,0,0.07c0.01,0.14,0.04,0.28,0.1,0.42
			c0.06,0.13,0.13,0.26,0.21,0.38c0.4,0.53,0.96,0.8,1.5,1.07l0.08,0.04c0.06,0.03,0.13,0.06,0.19,0.09l0.12,0.16l-0.1-0.17
			c0.18-0.1,0.37-0.2,0.58-0.3c-0.23-0.09-0.46-0.17-0.68-0.26c-0.7-0.27-1.16-0.54-1.42-0.82c-0.22-0.21-0.35-0.5-0.36-0.81
			c0-0.03,0-0.06,0.01-0.09c0.03-0.17,0.19-0.72,1.01-0.82c0.07,0,0.14,0,0.21-0.01l0.04-0.01c0.02,0,0.04,0,0.06-0.01
			c0.13-0.03,0.26-0.06,0.38-0.12c0.24-0.1,0.45-0.26,0.62-0.46c0.1-0.1,0.14-0.25,0.11-0.39c-0.08-0.12-0.21-0.19-0.35-0.19
			c-0.26-0.02-0.52,0.03-0.75,0.14c-0.08,0.03-0.15,0.07-0.22,0.12L15.59,14.81z M17.3,18.37"/>
		<path id="Path_155_1_" d="M18.15,31.53c-0.31,0-0.57-0.26-0.57-0.57l-0.01-0.86c-0.13-0.07-0.27-0.16-0.41-0.26
			c-0.34-0.23-0.65-0.51-0.91-0.82c-0.17-0.21-0.3-0.45-0.39-0.71c-0.08-0.29-0.1-0.6-0.06-0.9c0.07-0.6,0.35-1.15,0.78-1.57
			c0.05-0.06,0.12-0.11,0.18-0.17c0.27-0.23,0.56-0.42,0.88-0.58l-0.01-0.01c0.17-0.1,0.35-0.19,0.53-0.28
			c0.12-0.06,0.25-0.12,0.37-0.18l0.18-0.09c0.5-0.23,0.97-0.53,1.39-0.89c0.33-0.34,0.51-0.79,0.51-1.27
			c0-0.13-0.01-0.25-0.03-0.38c-0.13-0.57-0.48-1.06-0.98-1.36c-0.08-0.06-0.17-0.11-0.26-0.16l-0.03-0.02
			c-0.12-0.04-0.21-0.13-0.25-0.25c-0.02-0.08,0-0.16,0.04-0.22c0.07-0.08,0.16-0.13,0.27-0.15c0.01,0,0.03-0.01,0.04-0.01
			l0.27-0.09c0.03-0.01,0.06-0.02,0.08-0.03c0.07-0.03,0.14-0.05,0.22-0.07c0.3-0.05,0.52,0.18,0.68,0.33L20.7,20
			c0.18,0.17,0.35,0.37,0.49,0.58l0,0c0.25,0.38,0.41,0.81,0.47,1.25c0.02,0.18,0.03,0.36,0.02,0.53c-0.01,0.26-0.05,0.51-0.12,0.76
			c-0.13,0.43-0.37,0.81-0.69,1.13c-0.57,0.54-1.24,0.84-1.82,1.1l-0.15,0.06l-0.11,0.1l-0.05-0.04l-0.01,0
			c-0.14,0.06-0.27,0.12-0.4,0.18c-0.18,0.08-0.35,0.16-0.51,0.25c-0.2,0.1-0.39,0.22-0.56,0.35c-0.05,0.04-0.1,0.08-0.14,0.12
			c-0.34,0.28-0.57,0.67-0.65,1.1c-0.05,0.21-0.05,0.43-0.01,0.64c0.05,0.2,0.14,0.38,0.26,0.55c0.21,0.28,0.47,0.54,0.75,0.75
			c0.03,0.02,0.06,0.05,0.1,0.07l-0.02-2.97c0-0.12,0.06-0.24,0.16-0.31c0.28-0.17,0.57-0.33,0.87-0.46
			c0.05-0.03,0.11-0.03,0.17-0.02c0.03-0.06,0.09-0.11,0.15-0.14l0.23-0.11c0.15-0.06,0.32-0.02,0.44,0.1
			c0.05,0.04,0.1,0.08,0.15,0.13c0.52,0.45,0.84,1.09,0.9,1.77c0.04,0.3,0.01,0.61-0.09,0.9c-0.09,0.25-0.23,0.49-0.41,0.69
			c-0.27,0.31-0.59,0.58-0.94,0.79c-0.14,0.09-0.28,0.17-0.42,0.24l-0.04,0.86C18.71,31.29,18.46,31.54,18.15,31.53 M17.95,29.87
			L17.95,29.87l0.01,1.09c0,0.1,0.08,0.19,0.19,0.19c0,0,0,0,0.01,0c0.1,0,0.19-0.08,0.19-0.18l0.03-0.75l0,0l0.18-4.03
			c-0.22,0.1-0.44,0.22-0.64,0.35L17.95,29.87z M18.94,26.11l-0.15,3.41c0.03-0.02,0.07-0.05,0.1-0.07c0.29-0.2,0.55-0.45,0.78-0.72
			c0.12-0.16,0.22-0.34,0.27-0.53c0.05-0.21,0.06-0.43,0.02-0.65c-0.08-0.5-0.35-0.94-0.75-1.24
			C19.13,26.24,19.04,26.17,18.94,26.11 M19.26,25.86c0.07,0.05,0.14,0.1,0.2,0.15c0.02,0.01,0.04,0.03,0.06,0.04
			c-0.02-0.02-0.03-0.03-0.05-0.05c-0.05-0.04-0.09-0.08-0.14-0.12c-0.02-0.01-0.04-0.03-0.06-0.04L19.26,25.86z M17.78,25.44
			c-0.26,0.16-0.52,0.33-0.76,0.52L17,25.98c0.01-0.01,0.02-0.01,0.03-0.02c0.19-0.14,0.4-0.27,0.61-0.38
			c0.17-0.09,0.34-0.17,0.53-0.26c0.14-0.06,0.27-0.12,0.42-0.19l0.3-0.13c0.59-0.26,1.19-0.53,1.71-1.02
			c0.27-0.27,0.47-0.6,0.59-0.96c0.06-0.22,0.1-0.44,0.11-0.66c0-0.16,0-0.32-0.02-0.48c-0.05-0.39-0.19-0.76-0.41-1.09
			c-0.12-0.19-0.27-0.36-0.43-0.51l-0.04-0.04c-0.1-0.1-0.24-0.24-0.35-0.23c-0.04,0.01-0.09,0.03-0.13,0.04
			c-0.04,0.01-0.07,0.03-0.1,0.04l-0.21,0.07c0.07,0.05,0.15,0.09,0.22,0.14c0.59,0.36,1,0.94,1.15,1.61
			c0.02,0.14,0.04,0.29,0.04,0.44c0.01,0.58-0.22,1.13-0.62,1.54c-0.44,0.4-0.94,0.72-1.48,0.96l-0.18,0.09
			c-0.13,0.06-0.25,0.12-0.37,0.18c-0.18,0.09-0.35,0.17-0.51,0.27L17.78,25.44z"/>
		<path id="Path_156_1_" d="M17.74,18.57c-0.15,0-0.27-0.12-0.27-0.27l-0.03-3.6c0-0.25-0.12-0.49-0.32-0.64
			c-0.2-0.15-0.46-0.2-0.7-0.14c-0.71,0.19-1.4,0.45-2.06,0.77c-0.9,0.45-1.7,0.53-2.37,0.25c-0.15,0.08-0.3,0.15-0.47,0.23
			c-0.95,0.45-1.77,0.52-2.46,0.19c-0.22,0.12-0.44,0.23-0.66,0.34c-1.38,0.66-2.28,0.38-2.8-0.02c-0.15,0.07-0.3,0.13-0.46,0.2
			C3.58,16.54,0.76,16.1,0.2,15.6c-0.11-0.08-0.16-0.22-0.13-0.36c0.05-0.19,0.28-0.31,0.73-0.39c2.15-0.37,4.16-0.87,7.06-3.13
			l0.39-0.31c1.63-1.28,3.66-2.88,5.36-2.64c0.68,0.11,1.28,0.51,1.65,1.08c0.36,0.51,0.82,0.94,1.35,1.27l0.02,0.01
			c0.33,0.21,0.67,0.39,1.04,0.54l0.01,0c0.54,0.16,1.11,0.17,1.66,0.03l0.01,0c0.37-0.14,0.72-0.3,1.06-0.5l0.02-0.01
			c0.54-0.31,1.02-0.73,1.4-1.22c0.39-0.57,1-0.94,1.68-1.02c1.7-0.19,3.68,1.49,5.26,2.83l0.38,0.32c2.81,2.37,4.81,2.93,6.94,3.38
			l0,0c0.45,0.1,0.67,0.22,0.72,0.42c0.03,0.13-0.03,0.27-0.14,0.35c-0.58,0.48-3.41,0.82-4.97,0.11c-0.15-0.07-0.3-0.14-0.45-0.21
			c-0.54,0.38-1.44,0.63-2.8-0.08c-0.22-0.11-0.43-0.23-0.65-0.36c-0.69,0.3-1.51,0.2-2.45-0.28c-0.16-0.09-0.31-0.17-0.46-0.25
			c-0.68,0.26-1.47,0.15-2.36-0.33c-0.64-0.35-1.32-0.63-2.02-0.85c-0.24-0.07-0.5-0.03-0.7,0.11c-0.21,0.15-0.34,0.38-0.35,0.63
			l-0.14,3.15l-0.13,0.18l-0.09,0.03c-0.4,0.14-0.82,0.29-1.23,0.45C17.81,18.57,17.78,18.57,17.74,18.57 M16.66,13.51
			c0.25,0,0.5,0.09,0.7,0.24c0.3,0.22,0.47,0.57,0.47,0.95l0.03,3.44c0.36-0.14,0.72-0.27,1.07-0.39l0.14-3.03
			c0.03-0.66,0.59-1.17,1.25-1.15c0.1,0,0.2,0.02,0.3,0.05c0.73,0.22,1.43,0.52,2.1,0.88c0.82,0.44,1.53,0.54,2.11,0.28l0.09-0.04
			l0.08,0.05c0.17,0.09,0.34,0.19,0.53,0.29c0.86,0.45,1.6,0.53,2.19,0.23l0.09-0.05l0.09,0.05c0.24,0.14,0.48,0.28,0.72,0.4
			c1.02,0.53,1.85,0.55,2.49,0.05l0.1-0.08l0.11,0.06c0.17,0.09,0.35,0.17,0.54,0.26c1.51,0.69,4.12,0.29,4.54-0.03
			c-0.12-0.06-0.25-0.1-0.38-0.12c-2.18-0.46-4.23-1.04-7.11-3.46l-0.38-0.32c-1.53-1.3-3.43-2.91-4.97-2.74
			c-0.58,0.07-1.09,0.39-1.42,0.88c-0.41,0.53-0.91,0.97-1.49,1.31l-0.04,0.04l-0.03,0c-0.35,0.21-0.72,0.38-1.1,0.52l-0.13,0.07
			l-0.03-0.03c-0.54,0.12-1.1,0.11-1.63-0.03l-0.03,0.02l-0.13-0.08c-0.37-0.15-0.72-0.33-1.05-0.54h-0.02l-0.05-0.05
			c-0.56-0.36-1.05-0.82-1.44-1.37c-0.31-0.49-0.81-0.83-1.39-0.93c-1.53-0.22-3.49,1.32-5.06,2.56l-0.4,0.31
			c-2.97,2.32-5.03,2.82-7.23,3.2c-0.13,0.02-0.26,0.05-0.39,0.11c0.41,0.33,3,0.82,4.53,0.19c0.19-0.08,0.37-0.16,0.55-0.24
			l0.11-0.05l0.09,0.08c0.62,0.52,1.45,0.53,2.49,0.04c0.25-0.12,0.49-0.24,0.74-0.38l0.09-0.05l0.09,0.05
			c0.58,0.32,1.33,0.26,2.2-0.16c0.19-0.09,0.37-0.18,0.54-0.27l0.09-0.04l0.09,0.04c0.57,0.28,1.29,0.21,2.12-0.2
			c0.68-0.34,1.39-0.6,2.13-0.8C16.43,13.52,16.55,13.51,16.66,13.51"/>
		<path id="Path_157_1_" d="M17.11,25.11c-0.05,0-0.1-0.01-0.15-0.04c-0.47-0.23-0.9-0.54-1.27-0.9c-0.31-0.32-0.53-0.72-0.65-1.15
			c-0.07-0.25-0.1-0.5-0.1-0.76c0-0.18,0.01-0.36,0.04-0.53c0.07-0.45,0.25-0.87,0.51-1.24c0.02-0.03,0.04-0.06,0.07-0.08
			c0.24-0.31,0.52-0.58,0.84-0.8c0.23-0.17,0.47-0.32,0.72-0.45c0.15-0.08,0.3-0.16,0.47-0.23c0.25-0.11,0.49-0.21,0.7-0.3
			c0.05-0.02,0.08-0.03,0.11-0.04c0.21-0.08,0.41-0.15,0.61-0.22c0.2-0.07,0.39-0.13,0.58-0.2c0.23-0.08,0.45-0.15,0.66-0.23
			l0.22-0.08c0.4-0.13,0.77-0.33,1.09-0.6c0.16-0.13,0.26-0.32,0.28-0.53c0-0.05-0.02-0.47-0.67-0.56c-0.06,0-0.11-0.01-0.16-0.01
			l-0.05,0c-0.19-0.04-0.38-0.1-0.56-0.18c-0.3-0.13-0.55-0.34-0.75-0.6c-0.18-0.22-0.23-0.51-0.13-0.77
			c0.21-0.44,0.92-0.52,1.62-0.19c0.09,0.04,0.18,0.09,0.26,0.15l-0.01,0.01c0.33,0.19,1.49,1.06,1.43,2.33v0.03
			c0,0.03,0,0.05,0,0.08c-0.02,0.18-0.07,0.36-0.15,0.53c-0.07,0.16-0.17,0.3-0.27,0.44c-0.39,0.48-0.86,0.75-1.45,1.03
			c-0.04,0.02-0.08,0.04-0.12,0.05l-0.12,0.05c-0.39,0.17-0.8,0.32-1.15,0.45l-0.71,0.25c-0.15,0.05-0.29,0.1-0.43,0.16
			c-0.23,0.08-0.45,0.17-0.67,0.27c-0.24,0.11-0.47,0.23-0.69,0.36c-0.24,0.14-0.45,0.32-0.63,0.54c-0.2,0.23-0.33,0.5-0.4,0.79
			C16.02,22.03,16,22.15,16,22.27c-0.03,0.45,0.11,0.89,0.41,1.23c0.19,0.21,0.41,0.4,0.65,0.55c0.12,0.08,0.25,0.16,0.38,0.24
			c0.02,0.01,0.04,0.02,0.06,0.03c0.07,0.03,0.13,0.07,0.18,0.12c0.06,0.06,0.09,0.14,0.08,0.23c-0.03,0.17-0.21,0.27-0.42,0.37
			c-0.02,0.01-0.04,0.02-0.05,0.02C17.23,25.09,17.17,25.11,17.11,25.11 M21.02,15.76l0.04,0c0.05,0.01,0.1,0.01,0.14,0.01
			c0.82,0.11,1.03,0.65,1.03,0.95c-0.02,0.31-0.16,0.59-0.39,0.8c-0.36,0.31-0.78,0.54-1.23,0.69l-0.22,0.08
			c-0.22,0.08-0.44,0.15-0.67,0.23c-0.19,0.06-0.38,0.13-0.58,0.2c-0.2,0.07-0.4,0.14-0.6,0.21c-0.04,0.01-0.07,0.03-0.12,0.04
			c-0.2,0.08-0.43,0.18-0.68,0.29c-0.16,0.07-0.31,0.14-0.45,0.22c-0.24,0.13-0.46,0.27-0.68,0.42c-0.29,0.2-0.55,0.45-0.77,0.73
			l-0.02,0.02c-0.01,0.01-0.02,0.02-0.03,0.04c-0.23,0.32-0.38,0.69-0.45,1.08c-0.02,0.16-0.04,0.31-0.04,0.47
			c0,0.22,0.03,0.45,0.08,0.66c0.1,0.37,0.29,0.71,0.55,0.98c0.34,0.33,0.73,0.61,1.15,0.82c0.01-0.01,0.03-0.02,0.06-0.03
			c0.02-0.01,0.06-0.03,0.1-0.05c-0.01,0-0.01-0.01-0.02-0.01c-0.14-0.08-0.27-0.16-0.4-0.25c-0.27-0.17-0.51-0.38-0.73-0.62
			c-0.36-0.41-0.54-0.96-0.5-1.5c0-0.15,0.02-0.29,0.05-0.43c0.08-0.35,0.24-0.68,0.48-0.95c0.21-0.24,0.45-0.45,0.72-0.61
			c0.23-0.14,0.48-0.27,0.73-0.39c0.23-0.1,0.46-0.19,0.69-0.28c0.14-0.06,0.29-0.11,0.44-0.16l0.71-0.25
			c0.34-0.12,0.74-0.27,1.12-0.44l0.11-0.05c0.04-0.02,0.08-0.04,0.13-0.06c0.5-0.2,0.95-0.51,1.31-0.92
			c0.09-0.11,0.16-0.23,0.22-0.35c0.06-0.13,0.1-0.27,0.11-0.42c0-0.01,0-0.02,0-0.04c0-0.02,0-0.03,0-0.05
			c0.05-1.04-0.93-1.78-1.18-1.96l-0.07-0.05c-0.07-0.05-0.14-0.09-0.22-0.12c-0.52-0.25-1.01-0.2-1.11,0.01
			c-0.04,0.14,0,0.28,0.09,0.39c0.16,0.21,0.36,0.37,0.6,0.48C20.71,15.68,20.86,15.73,21.02,15.76"/>
	</g>
</g>
<g id="Layer_3">
</g>
<g id="Layer_4">
</g>
</svg>
