<?xml version="1.0" encoding="utf-8"?>
<!-- Generator: Adobe Illustrator 24.0.0, SVG Export Plug-In . SVG Version: 6.00 Build 0)  -->
<svg version="1.1" xmlns="http://www.w3.org/2000/svg" xmlns:xlink="http://www.w3.org/1999/xlink" x="0px" y="0px"
	 viewBox="0 0 36.85 36.85" style="enable-background:new 0 0 36.85 36.85;" xml:space="preserve">
<g id="Layer_1">
	<g>
		<g id="Group_169" transform="translate(94.332 94.329)">
			<g id="Group_168">
				<path id="Path_179" d="M-62.97-63.92c-0.28-0.28-0.73-0.28-1.02,0c-0.28,0.28-0.28,0.73,0,1.02c0.28,0.28,0.73,0.28,1.02,0
					c0,0,0,0,0,0l0,0C-62.69-63.19-62.69-63.64-62.97-63.92C-62.97-63.92-62.97-63.92-62.97-63.92z"/>
			</g>
		</g>
		<g id="Group_171" transform="translate(0 0)">
			<g id="Group_170">
				<path id="Path_180" d="M36.69,17.31C36.05,7.21,27.34-0.46,17.24,0.18c-4.21,0.27-8.21,1.98-11.3,4.85L5.16,4.32
					C4.87,4.05,4.42,4.07,4.15,4.36C4.03,4.5,3.96,4.67,3.96,4.85v5.35c0,0.4,0.32,0.72,0.72,0.72h5.35c0.4,0,0.72-0.32,0.72-0.72
					c0-0.18-0.07-0.36-0.2-0.49L9.29,8.37c5.58-5.03,14.18-4.59,19.21,0.98s4.59,14.18-0.98,19.21s-14.18,4.59-19.21-0.98
					c-2.26-2.5-3.51-5.75-3.51-9.11c0-0.4-0.32-0.72-0.72-0.72H0.79c-0.4,0-0.72,0.32-0.72,0.72c0,9.64,7.47,17.63,17.09,18.28
					c0.41,0.03,0.83,0.04,1.24,0.04c3.95,0,7.8-1.27,10.97-3.64c0.32-0.24,0.38-0.69,0.14-1c-0.24-0.32-0.69-0.38-1-0.14
					c-6.74,4.99-16.11,4.31-22.06-1.59c-3-2.99-4.77-7-4.93-11.23h1.86c0.39,8.29,7.44,14.7,15.73,14.3s14.7-7.44,14.3-15.73
					s-7.44-14.7-15.73-14.3c-3.74,0.18-7.27,1.74-9.92,4.39c-0.27,0.27-0.28,0.72-0.01,1l0.61,0.65H5.39V6.47l0.07,0.07
					C5.75,6.8,6.19,6.79,6.46,6.52c6.6-6.59,17.3-6.59,23.89,0.01c5.97,5.98,6.61,15.44,1.5,22.17c-0.24,0.31-0.18,0.76,0.13,1
					c0.31,0.24,0.76,0.18,1-0.13C35.66,26.06,36.97,21.71,36.69,17.31z"/>
			</g>
		</g>
		<g id="Group_173" transform="translate(25.411 45.599)">
			<g id="Group_172">
				<path id="Path_181" d="M-12.35-24.77h-2.17c0.1-0.09,0.19-0.18,0.29-0.27c1.35-1.3,2.01-2.41,2.01-3.38
					c0.08-1.31-0.92-2.43-2.23-2.51c-0.09-0.01-0.18-0.01-0.28,0c-1.39,0-2.51,1.12-2.51,2.51c0,0.4,0.32,0.72,0.72,0.72
					c0.4,0,0.72-0.32,0.72-0.72c0-0.59,0.48-1.08,1.08-1.08c1.08,0,1.08,0.81,1.08,1.08c0,1-1.92,2.81-3.29,3.78
					c-0.32,0.23-0.4,0.68-0.17,1c0.13,0.19,0.35,0.3,0.58,0.3h4.17c0.4,0,0.72-0.32,0.72-0.72C-11.63-24.45-11.95-24.77-12.35-24.77
					L-12.35-24.77z"/>
			</g>
		</g>
		<g id="Group_175" transform="translate(41.98 45.599)">
			<g id="Group_174">
				<path id="Path_182" d="M-23.67-27.02h-0.49v-0.2c0-0.4-0.32-0.72-0.72-0.72c-0.4,0-0.72,0.32-0.72,0.72v0.2h-0.99l1.61-2.83
					c0.2-0.34,0.08-0.78-0.27-0.98c-0.34-0.2-0.78-0.08-0.98,0.27l0,0l-2.22,3.9c-0.2,0.34-0.08,0.78,0.27,0.98
					c0.11,0.06,0.23,0.09,0.35,0.09h2.22v1.54c0,0.4,0.32,0.72,0.72,0.72c0.4,0,0.72-0.32,0.72-0.72l0,0v-1.54h0.49
					c0.4,0,0.72-0.32,0.72-0.72C-22.95-26.7-23.28-27.02-23.67-27.02L-23.67-27.02z"/>
			</g>
		</g>
		<g id="Group_177" transform="translate(60.846 45.599)">
			<g id="Group_176">
				<path id="Path_183" d="M-38.04-30.88c-0.37-0.14-0.78,0.04-0.92,0.41l-2.37,6.16c-0.14,0.37,0.04,0.78,0.41,0.93
					c0.37,0.14,0.78-0.04,0.93-0.41l2.37-6.16C-37.48-30.32-37.67-30.74-38.04-30.88C-38.04-30.88-38.04-30.88-38.04-30.88z"/>
			</g>
		</g>
		<g id="Group_179" transform="translate(75.672 45.6)">
			<g id="Group_178">
				<path id="Path_184" d="M-47.17-30.62c-0.13-0.19-0.35-0.31-0.59-0.31h-3.01c-0.4,0-0.72,0.32-0.72,0.72
					c0,0.4,0.32,0.72,0.72,0.72h1.98l-1.93,5.19c-0.14,0.37,0.05,0.78,0.42,0.92c0.37,0.14,0.78-0.05,0.92-0.42l2.29-6.16
					C-47.01-30.18-47.04-30.43-47.17-30.62z"/>
			</g>
		</g>
	</g>
</g>
<g id="Layer_2">
</g>
</svg>
