<?xml version="1.0" encoding="utf-8"?>
<!-- Generator: Adobe Illustrator 24.0.0, SVG Export Plug-In . SVG Version: 6.00 Build 0)  -->
<svg version="1.1" xmlns="http://www.w3.org/2000/svg" xmlns:xlink="http://www.w3.org/1999/xlink" x="0px" y="0px"
	 viewBox="0 0 34.58 36.85" style="enable-background:new 0 0 34.58 36.85;" xml:space="preserve">
<g id="Layer_1">
	<g>
		<path id="Path_199" d="M12.03,10.4l-0.61,0.22c-0.95,0.35-1.65,1.17-1.84,2.16l-0.21,1.09c-0.19,1,0.46,1.96,1.46,2.15
			c0.11,0.02,0.23,0.03,0.35,0.03h5.31c1.01,0,1.84-0.82,1.84-1.84c0-0.11-0.01-0.22-0.03-0.32l-0.19-1.08
			c-0.18-1.01-0.89-1.84-1.85-2.19l-0.65-0.24V9.42c0-0.03,0-0.05-0.01-0.08c0.48-0.48,0.74-1.13,0.75-1.81V6.1
			c0-1.39-1.13-2.52-2.53-2.52c-1.39,0-2.52,1.13-2.52,2.52v1.47c0,0.67,0.27,1.31,0.74,1.78c0,0.02,0,0.04,0,0.07L12.03,10.4z
			 M17.06,13l0.19,1.08c0.08,0.42-0.21,0.83-0.63,0.9c-0.05,0.01-0.09,0.01-0.14,0.01h-5.31c-0.43,0-0.78-0.35-0.78-0.78
			c0-0.05,0-0.1,0.01-0.15l0.21-1.09c0.12-0.63,0.56-1.14,1.16-1.36l0.4-0.15c0.01,0.01,0.02,0.02,0.03,0.03
			c0.92,0.8,2.29,0.8,3.21,0c0.02-0.01,0.03-0.03,0.05-0.05l0.42,0.15C16.5,11.84,16.94,12.36,17.06,13L17.06,13z M12.35,6.1
			c0-0.81,0.65-1.46,1.46-1.46c0.67,0,1.25,0.45,1.42,1.1c-0.07,0.03-0.14,0.06-0.21,0.09c-0.65,0.26-1.18,0.23-1.33,0.12
			c-0.24-0.17-0.57-0.11-0.74,0.14c-0.16,0.24-0.11,0.57,0.13,0.73c0.3,0.19,0.66,0.29,1.01,0.27c0.4-0.01,0.81-0.08,1.18-0.23v0.66
			c0,0.41-0.17,0.8-0.46,1.09c-0.13,0.13-0.29,0.23-0.46,0.31c-0.01,0-0.02,0.01-0.03,0.01c-0.17,0.07-0.36,0.1-0.54,0.1
			c-0.8-0.02-1.43-0.67-1.44-1.46L12.35,6.1z M13.77,10.1h0.05c0.25,0,0.49-0.04,0.72-0.11v0.85c-0.44,0.27-1,0.27-1.45,0V9.99
			C13.31,10.06,13.54,10.1,13.77,10.1z"/>
		<path id="Path_200" d="M5.47,25.14h16.53c0.29,0.01,0.54-0.22,0.54-0.52c0.01-0.29-0.22-0.54-0.52-0.54c-0.01,0-0.02,0-0.03,0
			H5.47c-0.29-0.01-0.54,0.22-0.54,0.52c-0.01,0.29,0.22,0.54,0.52,0.54C5.45,25.14,5.46,25.14,5.47,25.14z"/>
		<path id="Path_201" d="M5.47,28h16.53c0.29,0.01,0.54-0.22,0.54-0.52c0.01-0.29-0.22-0.54-0.52-0.54c-0.01,0-0.02,0-0.03,0H5.47
			c-0.29-0.01-0.54,0.22-0.54,0.52C4.92,27.75,5.15,27.99,5.44,28C5.45,28,5.46,28,5.47,28z"/>
		<path id="Path_202" d="M5.47,30.86h16.53c0.29,0.01,0.54-0.22,0.54-0.52c0.01-0.29-0.22-0.54-0.52-0.54c-0.01,0-0.02,0-0.03,0
			H5.47c-0.29-0.01-0.54,0.22-0.54,0.52c-0.01,0.29,0.22,0.54,0.52,0.54C5.45,30.86,5.46,30.86,5.47,30.86z"/>
		<path id="Path_203" d="M5.47,33.72h16.53c0.29,0.01,0.54-0.22,0.54-0.52c0.01-0.29-0.22-0.54-0.52-0.54c-0.01,0-0.02,0-0.03,0
			H5.47c-0.29-0.01-0.54,0.22-0.54,0.52c-0.01,0.29,0.22,0.54,0.52,0.54C5.45,33.72,5.46,33.72,5.47,33.72z"/>
		<path id="Path_204" d="M4.94,18.89c0,0.29,0.24,0.53,0.53,0.53h16.53c0.29-0.01,0.52-0.25,0.52-0.54
			c-0.01-0.28-0.23-0.51-0.52-0.52H5.47C5.18,18.36,4.94,18.59,4.94,18.89z"/>
		<path id="Path_205" d="M5.47,22.28h16.53c0.29-0.01,0.52-0.25,0.52-0.54c-0.01-0.28-0.23-0.51-0.52-0.52H5.47
			c-0.29,0.01-0.52,0.25-0.52,0.54C4.96,22.04,5.19,22.27,5.47,22.28z"/>
		<path id="Path_206" d="M3.51,25.14c0.29,0,0.53-0.24,0.53-0.53c0-0.29-0.24-0.53-0.53-0.53c-0.29,0-0.53,0.24-0.53,0.53
			S3.21,25.14,3.51,25.14C3.51,25.14,3.51,25.14,3.51,25.14z"/>
		<path id="Path_207" d="M3.51,19.42c0.29,0,0.53-0.24,0.53-0.53c0-0.29-0.24-0.53-0.53-0.53c-0.29,0-0.53,0.24-0.53,0.53
			C2.98,19.18,3.21,19.42,3.51,19.42C3.51,19.42,3.51,19.42,3.51,19.42z"/>
		<path id="Path_208" d="M3.51,22.28c0.29,0,0.53-0.24,0.53-0.53c0-0.29-0.24-0.53-0.53-0.53c-0.29,0-0.53,0.24-0.53,0.53
			S3.21,22.28,3.51,22.28C3.51,22.28,3.51,22.28,3.51,22.28z"/>
		<path id="Path_209" d="M3.51,28c0.29,0,0.53-0.24,0.53-0.53c0-0.29-0.24-0.53-0.53-0.53c-0.29,0-0.53,0.24-0.53,0.53
			S3.21,28,3.51,28C3.51,28,3.51,28,3.51,28z"/>
		<path id="Path_210" d="M3.51,30.86c0.29,0,0.53-0.24,0.53-0.53c0-0.29-0.24-0.53-0.53-0.53c-0.29,0-0.53,0.24-0.53,0.53
			S3.21,30.86,3.51,30.86C3.51,30.86,3.51,30.86,3.51,30.86z"/>
		<path id="Path_211" d="M3.51,33.73c0.29,0,0.53-0.24,0.53-0.53c0-0.29-0.24-0.53-0.53-0.53c-0.29,0-0.53,0.24-0.53,0.53
			C2.98,33.49,3.21,33.73,3.51,33.73C3.51,33.73,3.51,33.73,3.51,33.73z"/>
		<path id="Path_212" d="M33.58,8.67c-0.2-0.23-0.38-0.49-0.51-0.76c-0.1-0.31-0.17-0.62-0.19-0.95c-0.08-0.62-0.16-1.33-0.66-1.83
			c-0.49-0.49-1.2-0.58-1.83-0.66c-0.32-0.02-0.64-0.09-0.95-0.19c-0.27-0.14-0.53-0.31-0.76-0.51c-0.37-0.33-0.8-0.59-1.27-0.77
			V2.84c0-1.4-1.13-2.53-2.53-2.53H2.78c-1.4,0-2.53,1.13-2.53,2.53v2.05C0.24,5.19,0.47,5.43,0.76,5.44
			C1.05,5.44,1.3,5.21,1.3,4.92c0-0.01,0-0.02,0-0.03V2.84c0-0.81,0.66-1.47,1.47-1.47h22.11c0.81,0,1.47,0.66,1.47,1.47v0.16
			c-0.47,0.17-0.9,0.43-1.27,0.77c-0.23,0.2-0.49,0.38-0.76,0.51c-0.31,0.1-0.62,0.17-0.95,0.19c-0.62,0.08-1.33,0.16-1.83,0.66
			c-0.5,0.49-0.58,1.2-0.66,1.83C20.87,7.28,20.8,7.6,20.7,7.91c-0.14,0.27-0.31,0.53-0.51,0.76c-0.4,0.5-0.85,1.07-0.85,1.8
			c0,0.73,0.45,1.3,0.85,1.8c0.2,0.23,0.38,0.49,0.51,0.76c0.1,0.31,0.17,0.62,0.19,0.95c0.08,0.62,0.16,1.33,0.66,1.83
			c0.49,0.49,1.2,0.58,1.83,0.66c0.19,0.02,0.37,0.05,0.53,0.08v8.02c0,0.45,0.36,0.81,0.81,0.81c0.18,0,0.36-0.06,0.5-0.17
			l1.13-0.88v9.69c0,0.81-0.66,1.47-1.47,1.47H2.78c-0.81,0-1.47-0.66-1.47-1.47V7.23C1.3,6.94,1.05,6.7,0.76,6.71
			C0.48,6.72,0.25,6.95,0.24,7.23v26.78c0,1.4,1.13,2.53,2.53,2.53h22.11c1.4,0,2.53-1.13,2.53-2.53v-9.69l1.13,0.88
			c0.35,0.28,0.87,0.22,1.14-0.14c0.11-0.14,0.17-0.32,0.17-0.5v-5.92c-0.01-0.29-0.25-0.52-0.54-0.52
			c-0.28,0.01-0.51,0.23-0.52,0.52v5.42l-1.41-1.1c-0.3-0.23-0.71-0.23-1.01,0l-1.41,1.11v-6.98l0.12,0.09
			c0.5,0.4,1.07,0.85,1.8,0.85c0.73,0,1.3-0.45,1.8-0.85c0.23-0.2,0.49-0.38,0.76-0.51c0.31-0.1,0.62-0.17,0.95-0.19
			c0.62-0.08,1.33-0.16,1.83-0.66c0.5-0.49,0.58-1.2,0.66-1.83c0.02-0.32,0.09-0.64,0.19-0.95c0.14-0.27,0.31-0.53,0.51-0.76
			c0.4-0.5,0.85-1.07,0.85-1.8S33.98,9.17,33.58,8.67L33.58,8.67z M32.75,11.61c-0.27,0.31-0.49,0.65-0.66,1.01
			c-0.14,0.39-0.23,0.81-0.26,1.22c-0.06,0.5-0.12,0.97-0.36,1.21s-0.71,0.29-1.21,0.36c-0.42,0.03-0.83,0.12-1.22,0.26
			c-0.37,0.17-0.71,0.4-1.01,0.66c-0.4,0.32-0.78,0.62-1.14,0.62s-0.74-0.3-1.14-0.62c-0.31-0.27-0.65-0.49-1.01-0.66
			c-0.03-0.01-0.11-0.04-0.13-0.05c-0.35-0.11-0.72-0.18-1.09-0.21c-0.5-0.06-0.97-0.12-1.21-0.36s-0.29-0.71-0.36-1.2
			c-0.03-0.42-0.12-0.83-0.26-1.22c-0.17-0.37-0.4-0.71-0.66-1.01c-0.32-0.4-0.62-0.78-0.62-1.14c0-0.36,0.3-0.74,0.62-1.14
			c0.27-0.31,0.49-0.65,0.66-1.01c0.14-0.39,0.23-0.81,0.26-1.22c0.06-0.5,0.12-0.97,0.36-1.21s0.71-0.29,1.21-0.36
			c0.42-0.03,0.83-0.12,1.22-0.26c0.37-0.17,0.71-0.4,1.01-0.66c0.4-0.32,0.78-0.62,1.14-0.62h0c0.36,0,0.74,0.3,1.14,0.62
			c0.31,0.27,0.65,0.49,1.01,0.66c0.39,0.14,0.81,0.23,1.22,0.26c0.5,0.06,0.97,0.12,1.21,0.36c0.24,0.24,0.29,0.71,0.36,1.2
			c0.03,0.42,0.12,0.83,0.26,1.22c0.17,0.37,0.4,0.71,0.66,1.01c0.32,0.4,0.62,0.78,0.62,1.14C33.37,10.83,33.07,11.21,32.75,11.61
			L32.75,11.61z"/>
		<path id="Path_213" d="M30.29,8.78l-1.81-0.51l-1.04-1.56c-0.21-0.31-0.62-0.39-0.93-0.18c-0.07,0.05-0.14,0.11-0.18,0.18
			l-1.04,1.56l-1.81,0.51c-0.36,0.1-0.56,0.47-0.46,0.83c0.02,0.08,0.06,0.16,0.12,0.23l1.16,1.47l-0.07,1.87
			c-0.01,0.37,0.27,0.68,0.64,0.7c0.09,0,0.18-0.01,0.26-0.04l1.76-0.65l1.76,0.65c0.35,0.13,0.73-0.05,0.86-0.4
			c0.03-0.08,0.04-0.17,0.04-0.26l-0.07-1.88l1.16-1.47c0.23-0.29,0.18-0.71-0.11-0.94C30.46,8.84,30.38,8.8,30.29,8.78L30.29,8.78z
			 M28.55,10.77c-0.1,0.13-0.15,0.28-0.14,0.44l0.06,1.44l-1.35-0.5c-0.15-0.05-0.31-0.05-0.46,0l-1.35,0.5l0.06-1.44
			c0.01-0.16-0.04-0.32-0.14-0.44l-0.89-1.13l1.38-0.39c0.15-0.04,0.29-0.14,0.37-0.27l0.8-1.19l0.8,1.19
			c0.09,0.13,0.22,0.23,0.37,0.27l1.38,0.39L28.55,10.77z"/>
	</g>
</g>
<g id="Layer_2">
</g>
</svg>
