<?xml version="1.0" encoding="utf-8"?>
<!-- Generator: Adobe Illustrator 24.0.0, SVG Export Plug-In . SVG Version: 6.00 Build 0)  -->
<svg version="1.1" id="Layer_1" xmlns="http://www.w3.org/2000/svg" xmlns:xlink="http://www.w3.org/1999/xlink" x="0px" y="0px"
	 viewBox="0 0 32 32" style="enable-background:new 0 0 32 32;" xml:space="preserve">
<g id="Layer_2_1_">
	<g id="button-find_a_doctor_1_" transform="translate(26 31)">
		<path id="Path_79_1_" d="M5.2-28.1c-0.8-1-2-1.6-3.2-1.6H1.4V-30c0-0.6-0.4-1-0.9-1s-0.9,0.4-0.9,0.9l0,0v2.5
			c0,0.5,0.4,0.9,0.9,0.9s0.9-0.4,0.9-0.9l0,0v-0.3H2c1.2,0,2.2,1,2.2,2.2c0,0.2,0,0.4-0.1,0.6l-2.5,8.7c-0.9,3-4,4.8-7,3.9
			c-1.9-0.5-3.4-2-3.9-3.9l-2.5-8.7c-0.3-1.2,0.3-2.4,1.5-2.7c0.2-0.1,0.4-0.1,0.6-0.1h0.5v0.3c0,0.5,0.4,0.9,0.9,0.9
			s0.9-0.4,0.9-0.9l0,0V-30c0-0.5-0.4-0.9-0.9-0.9s-0.9,0.4-0.9,0.9l0,0v0.3h-0.5c-2.2,0-4.1,1.8-4.1,4.1c0,0.4,0.1,0.8,0.2,1.1
			l2.5,8.7c0.4,1.6,1.4,3,2.7,4c0.3,0.2,0.6,0.4,0.9,0.6l2.7,6.5V-4c0,1.8-1.5,3.3-3.3,3.3s-3.3-1.5-3.3-3.3v-6.4
			c0-3-2.4-5.4-5.4-5.4s-5.4,2.4-5.4,5.4l0,0v2.2c-2.5,0.5-4.2,3-3.7,5.5c0.5,2.5,3,4.2,5.5,3.7s4.2-3,3.7-5.5
			c-0.4-1.8-1.8-3.3-3.7-3.7v-2.2c0-1.9,1.6-3.5,3.5-3.5s3.5,1.6,3.5,3.5V-4c0.1,2.7,2.4,5,5.3,5C-5.3,0.9-3-1.4-3-4.2v-0.7l2.7-6.5
			C0-11.6,0.3-11.8,0.6-12c1.3-1,2.3-2.4,2.7-4l2.5-8.7C6.2-25.8,6-27.1,5.2-28.1z M-18.5-3.8c0,1.6-1.3,2.8-2.8,2.8
			s-2.8-1.3-2.8-2.8c0-1.6,1.3-2.8,2.8-2.8l0,0C-19.7-6.6-18.5-5.4-18.5-3.8z M-3.9-7.4l-1.3-3c0.8,0.1,1.7,0.1,2.6,0L-3.9-7.4z"/>
		<circle id="Ellipse_10_1_" cx="-21.4" cy="-3.6" r="0.9"/>
	</g>
</g>
<g id="Layer_2">
</g>
<g id="Layer_3">
</g>
<g id="Layer_4">
</g>
</svg>
